<?xml version="1.0" encoding="UTF-8" standalone="no"?>
<!-- Created with Inkscape (http://www.inkscape.org/) -->

<svg
   width="24.098122mm"
   height="7.34481mm"
   viewBox="0 0 24.098122 7.34481"
   version="1.1"
   id="svg5"
   inkscape:version="1.1 (c4e8f9ed74, 2021-05-24)"
   sodipodi:docname="about.svg"
   xmlns:inkscape="http://www.inkscape.org/namespaces/inkscape"
   xmlns:sodipodi="http://sodipodi.sourceforge.net/DTD/sodipodi-0.dtd"
   xmlns="http://www.w3.org/2000/svg"
   xmlns:svg="http://www.w3.org/2000/svg">
  <sodipodi:namedview
     id="namedview7"
     pagecolor="#505050"
     bordercolor="#eeeeee"
     borderopacity="1"
     inkscape:pageshadow="0"
     inkscape:pageopacity="0"
     inkscape:pagecheckerboard="0"
     inkscape:document-units="mm"
     showgrid="false"
     inkscape:zoom="10.650419"
     inkscape:cx="43.613308"
     inkscape:cy="19.717534"
     inkscape:window-width="1916"
     inkscape:window-height="1061"
     inkscape:window-x="0"
     inkscape:window-y="15"
     inkscape:window-maximized="1"
     inkscape:current-layer="layer1" />
  <defs
     id="defs2" />
  <g
     inkscape:label="Layer 1"
     inkscape:groupmode="layer"
     id="layer1"
     transform="translate(-24.956482,-59.204735)">
    <g
       aria-label="About"
       id="text5798"
       style="font-size:10.5833px;line-height:1.25;font-family:Z003;-inkscape-font-specification:Z003;stroke-width:0.264583">
      <path
         d="m 24.956482,66.274379 c 0.243416,0.07408 0.359832,0.09525 0.560915,0.09525 0.719664,0 1.217079,-0.380999 2.603492,-1.968494 0.83608,0 1.460495,0.01058 1.873244,0.04233 -0.02117,0.127 -0.04233,0.254 -0.05292,0.380999 -0.02117,0.105833 -0.05292,0.328082 -0.08467,0.560915 -0.02117,0.201083 -0.05292,0.391582 -0.0635,0.433915 -0.03175,0.179916 -0.05292,0.349249 -0.05292,0.455082 0,0.137583 0.105833,0.232833 0.243416,0.232833 0.04233,0 0.328083,-0.05292 0.857248,-0.148166 l 0.603248,-0.105833 c 0.07408,-0.01058 0.190499,-0.03175 0.370415,-0.0635 l 0.169333,-0.253999 c -0.433915,0.03175 -0.698498,0.05292 -0.783164,0.05292 -0.423332,0 -0.539749,-0.105833 -0.539749,-0.476248 0,-0.677332 0.412749,-3.640655 0.751415,-5.3234 l -0.148166,-0.105833 c -0.317499,0.328082 -0.338666,0.338666 -0.560915,0.338666 -0.137583,0 -0.1905,-0.01058 -0.603248,-0.07408 -0.476249,-0.07408 -0.751415,-0.105833 -0.963081,-0.105833 -0.486831,0 -0.99483,0.243416 -1.492245,0.730248 -0.560915,0.539748 -0.804331,1.005414 -0.804331,1.566328 0,0.254 0.03175,0.423332 0.148167,0.730248 L 27.77164,62.84539 c -0.169333,-0.497415 -0.22225,-0.740831 -0.22225,-0.984247 0,-0.603248 0.455082,-0.96308 1.227663,-0.96308 0.116416,0 0.253999,0.01058 0.391582,0.02117 l 0.253999,0.03175 c 0.148167,0.01058 0.254,0.02117 0.328083,0.03175 0.169333,0.02117 0.264582,0.02117 0.550331,0.04233 l -1.830911,2.370659 c -0.444498,0.571498 -1.132413,1.375829 -1.418162,1.650994 -0.423332,0.412749 -0.740831,0.560915 -1.227662,0.560915 -0.179917,0 -0.275166,-0.01058 -0.465666,-0.07408 z m 3.492489,-2.307159 2.042577,-2.677575 -0.433916,2.677575 z"
         style="fill:#542538"
         id="path5232" />
      <path
         d="m 32.385941,66.549545 0.338665,-0.285749 c 0.296333,0.116416 0.518582,0.158749 0.719665,0.158749 0.275166,0 0.338665,-0.03175 0.99483,-0.444498 0.476248,-0.264583 0.476248,-0.264583 0.539748,-0.306916 0.285749,-0.179916 0.486832,-0.402165 0.645581,-0.687914 0.338666,-0.613832 0.592665,-1.534579 0.592665,-2.158993 0,-0.486832 -0.243416,-0.804331 -0.624414,-0.804331 -0.359833,0 -0.645582,0.158749 -1.703912,0.910164 0.08467,-0.370416 0.08467,-0.370416 0.201083,-0.899581 0.211666,-1.047747 0.232833,-1.111246 0.444499,-1.587495 0.201082,-0.455082 0.402165,-0.592665 0.888997,-0.592665 h 0.433915 l 0.433915,-0.613831 c -0.211666,-0.02117 -0.349249,-0.03175 -0.465665,-0.03175 -0.391582,0 -0.582081,0.105833 -1.471079,0.846664 -0.719664,0.582082 -0.719664,0.582082 -1.090079,2.222493 -0.201083,0.878414 -0.391582,1.693328 -0.603248,2.624658 -0.1905,0.836081 -0.211666,0.931331 -0.380999,1.608662 z m 1.396995,-3.185573 c 0.603248,-0.444499 0.973664,-0.634998 1.21708,-0.634998 0.211666,0 0.349249,0.190499 0.349249,0.518582 0,0.423331 -0.127,1.058329 -0.306916,1.513411 -0.285749,0.709081 -0.656165,1.05833 -1.12183,1.05833 -0.211666,0 -0.412748,-0.05292 -0.698498,-0.201082 z"
         style="fill:#542538"
         id="path5234" />
      <path
         d="m 39.603732,62.019893 c -0.423332,0 -1.100664,0.306915 -1.725078,0.772581 -0.677331,0.507998 -1.15358,1.608661 -1.15358,2.666991 0,0.634998 0.359832,1.047747 0.920747,1.047747 0.296333,0 0.603248,-0.105833 1.079497,-0.359832 0.529165,-0.296333 0.878414,-0.560915 1.068913,-0.804331 0.423332,-0.582082 0.761998,-1.619245 0.761998,-2.349493 0,-0.571498 -0.391583,-0.973663 -0.952497,-0.973663 z M 39.0534,62.517308 c 0.423332,0 0.687914,0.402165 0.687914,1.047747 0,0.455081 -0.148166,0.99483 -0.402165,1.513411 -0.306916,0.603248 -0.687914,0.931331 -1.09008,0.931331 -0.433915,0 -0.709081,-0.391582 -0.709081,-0.99483 0,-1.227663 0.772581,-2.497659 1.513412,-2.497659 z"
         style="fill:#542538"
         id="path5236" />
      <path
         d="m 43.530132,64.972633 c -0.80433,0.550332 -1.174746,0.772581 -1.312329,0.772581 -0.116416,0 -0.201083,-0.148166 -0.201083,-0.349249 0,-0.243416 0.08467,-0.666748 0.264583,-1.344079 0.105833,-0.402165 0.211666,-0.80433 0.222249,-0.86783 0.09525,-0.402166 0.169333,-0.666748 0.1905,-0.740831 0.03175,-0.116417 0.05292,-0.22225 0.05292,-0.285749 0,-0.08467 -0.05292,-0.137583 -0.126999,-0.137583 -0.105833,0 -0.867831,0.412748 -1.640412,0.888997 l -0.07408,0.285749 c 0.455082,-0.232833 0.645581,-0.306916 0.772581,-0.306916 0.08467,0 0.148166,0.07408 0.148166,0.201083 0,0.148166 -0.09525,0.560915 -0.296332,1.312329 -0.264583,0.99483 -0.328083,1.280579 -0.328083,1.587495 0,0.296333 0.127,0.518582 0.296333,0.518582 0.158749,0 0.338665,-0.09525 0.878414,-0.444499 0.825497,-0.529165 0.825497,-0.529165 1.09008,-0.709081 -0.09525,0.359832 -0.148167,0.719665 -0.148167,0.910164 0,0.148166 0.07408,0.243416 0.1905,0.243416 0.211666,0 1.206496,-0.582082 1.936744,-1.132413 l 0.07408,-0.317499 c -0.751415,0.444498 -1.100664,0.634998 -1.21708,0.634998 -0.07408,0 -0.116416,-0.07408 -0.116416,-0.253999 0,-0.539749 0.380999,-2.106077 0.846664,-3.460739 -0.137583,0.07408 -0.232833,0.126999 -0.275166,0.148166 -0.127,0.0635 -0.253999,0.126999 -0.391582,0.179916 -0.03175,0.02117 -0.09525,0.05292 -0.211666,0.116416 -0.07408,0.264583 -0.243416,0.973664 -0.518582,2.127243 z"
         style="fill:#542538"
         id="path5238" />
      <path
         d="m 48.747688,65.036133 c -0.80433,0.486832 -1.142996,0.656165 -1.291162,0.656165 -0.137583,0 -0.306916,-0.264583 -0.306916,-0.497415 0,-0.148167 0.01058,-0.179916 0.243416,-1.18533 0.05292,-0.190499 0.09525,-0.391582 0.137583,-0.592665 0.01058,-0.03175 0.05292,-0.201082 0.07408,-0.296332 0.359832,-0.01058 0.687914,-0.03175 1.047747,-0.05292 l 0.402165,-0.306915 h -1.354662 c 0.05292,-0.243416 0.07408,-0.317499 0.105833,-0.476249 0.03175,-0.105833 0.105833,-0.391582 0.253999,-0.96308 l 0.0635,-0.275166 -0.179916,0.09525 c -0.0635,0.02117 -0.148167,0.0635 -0.264583,0.116416 -0.07408,0.04233 -0.158749,0.07408 -0.243416,0.116416 -0.04233,0.02117 -0.08467,0.04233 -0.148166,0.0635 l -0.09525,0.433916 -0.116416,0.507998 -0.08467,0.380999 c -0.09525,0.01058 -0.15875,0.01058 -0.1905,0.01058 h -0.253999 c -0.02117,0 -0.07408,0 -0.15875,0.01058 -0.05292,0.03175 -0.09525,0.0635 -0.105833,0.0635 -0.03175,0.02117 -0.09525,0.07408 -0.201082,0.15875 -0.02117,0.01058 -0.07408,0.0635 -0.15875,0.116416 h 0.254 0.486831 0.232833 l -0.105833,0.465665 c -0.455082,1.873244 -0.455082,1.873244 -0.455082,2.21191 0,0.338665 0.222249,0.709081 0.423332,0.709081 0.232833,0 0.952497,-0.433915 1.968494,-1.206496 z"
         style="fill:#542538"
         id="path5240" />
    </g>
  </g>
</svg>
