<?xml version="1.0" encoding="UTF-8" standalone="no"?>
<!-- Created with Inkscape (http://www.inkscape.org/) -->

<svg
   width="40.597446mm"
   height="7.34481mm"
   viewBox="0 0 40.597447 7.34481"
   version="1.1"
   id="svg5"
   inkscape:version="1.1 (c4e8f9ed74, 2021-05-24)"
   sodipodi:docname="download.svg"
   xmlns:inkscape="http://www.inkscape.org/namespaces/inkscape"
   xmlns:sodipodi="http://sodipodi.sourceforge.net/DTD/sodipodi-0.dtd"
   xmlns="http://www.w3.org/2000/svg"
   xmlns:svg="http://www.w3.org/2000/svg">
  <sodipodi:namedview
     id="namedview7"
     pagecolor="#505050"
     bordercolor="#eeeeee"
     borderopacity="1"
     inkscape:pageshadow="0"
     inkscape:pageopacity="0"
     inkscape:pagecheckerboard="0"
     inkscape:document-units="mm"
     showgrid="false"
     inkscape:zoom="10.650419"
     inkscape:cx="42.76827"
     inkscape:cy="16.712957"
     inkscape:window-width="1916"
     inkscape:window-height="1061"
     inkscape:window-x="0"
     inkscape:window-y="15"
     inkscape:window-maximized="1"
     inkscape:current-layer="layer1" />
  <defs
     id="defs2" />
  <g
     inkscape:label="Layer 1"
     inkscape:groupmode="layer"
     id="layer1"
     transform="translate(-25.62323,-59.194152)">
    <g
       aria-label="Download"
       id="text5798"
       style="font-size:10.5833px;line-height:1.25;font-family:Z003;-inkscape-font-specification:Z003;stroke-width:0.264583">
      <path
         d="m 25.62323,66.369629 h 1.344079 c 1.735661,0 2.169576,-0.03175 2.730491,-0.232833 0.846664,-0.285749 1.714495,-0.83608 2.127243,-1.344079 0.539749,-0.666748 0.920748,-1.777994 0.920748,-2.677575 0,-0.730247 -0.380999,-1.280579 -1.100664,-1.598078 -0.455082,-0.201082 -0.99483,-0.285749 -2.02141,-0.349249 l 0.07408,-0.296332 -0.761997,0.317499 c -0.867831,0.148166 -1.418162,0.338666 -1.979077,0.698498 -0.899581,0.582081 -1.333496,1.291162 -1.333496,2.201326 0,0.201083 0.01058,0.328082 0.07408,0.592665 l 0.867831,-0.391582 c -0.0635,-0.275166 -0.07408,-0.391582 -0.07408,-0.592665 0,-1.259413 0.783165,-2.000244 2.264827,-2.14841 l -0.793748,3.153823 c -0.412749,1.767411 -0.687914,2.095494 -1.830911,2.18016 z m 3.915821,-5.873731 c 0.783164,0.03175 1.132413,0.09525 1.460495,0.264582 0.518582,0.275166 0.825497,0.857247 0.825497,1.566328 0,0.920748 -0.349248,2.042577 -0.825497,2.645825 -0.518582,0.666748 -1.142996,0.920747 -2.233076,0.920747 h -0.15875 l -1.354662,-0.04233 c 1.227663,-1.142996 1.227663,-1.142996 1.703911,-3.058573 z"
         style="fill:#542538"
         id="path5084" />
      <path
         d="m 35.846665,62.019893 c -0.423332,0 -1.100663,0.306915 -1.725078,0.772581 -0.677331,0.507998 -1.153579,1.608661 -1.153579,2.666991 0,0.634998 0.359832,1.047747 0.920747,1.047747 0.296332,0 0.603248,-0.105833 1.079496,-0.359832 0.529165,-0.296333 0.878414,-0.560915 1.068914,-0.804331 0.423332,-0.582082 0.761997,-1.619245 0.761997,-2.349493 0,-0.571498 -0.391582,-0.973663 -0.952497,-0.973663 z m -0.550331,0.497415 c 0.423332,0 0.687914,0.402165 0.687914,1.047747 0,0.455081 -0.148166,0.99483 -0.402165,1.513411 -0.306916,0.603248 -0.687915,0.931331 -1.09008,0.931331 -0.433915,0 -0.709081,-0.391582 -0.709081,-0.99483 0,-1.227663 0.772581,-2.497659 1.513412,-2.497659 z"
         style="fill:#542538"
         id="path5086" />
      <path
         d="m 37.38124,64.168303 c 0.201083,-0.518582 0.253999,-0.656165 0.328082,-0.783165 0.169333,-0.285749 0.359832,-0.402165 0.624415,-0.402165 l 0.349249,0.01058 c 0.08467,0.01058 0.179916,0.01058 0.275166,0.01058 0.232832,0 0.296332,-0.01058 0.486831,-0.08467 -0.550331,0.624415 -0.86783,0.984247 -0.941913,1.100663 -0.402166,0.582082 -0.656165,1.291163 -0.656165,1.841495 0,0.380998 0.232833,0.645581 0.571498,0.645581 0.550332,0 1.174746,-0.444499 2.05316,-1.439329 -0.116416,0.349249 -0.158749,0.560915 -0.158749,0.836081 0,0.391582 0.201083,0.603248 0.571498,0.603248 1.333496,0 3.407823,-2.582325 3.407823,-4.254487 0,-0.285749 -0.08467,-0.465665 -0.264583,-0.582081 -0.264582,0.0635 -0.359832,0.105833 -0.740831,0.275166 0.105833,0.275165 0.137583,0.444498 0.137583,0.740831 0,0.698497 -0.264583,1.523995 -0.698498,2.201326 -0.380999,0.571498 -0.910164,1.015997 -1.238246,1.015997 -0.222249,0 -0.359832,-0.1905 -0.359832,-0.486832 0,-0.455082 0.148166,-0.99483 0.857247,-3.100907 -0.285749,0.09525 -0.402165,0.127 -0.783164,0.222249 -0.02117,0.07408 -0.09525,0.328083 -0.232833,0.772581 -0.253999,0.804331 -0.338665,1.015997 -0.539748,1.344079 -0.380999,0.624415 -1.09008,1.195913 -1.481662,1.195913 -0.179916,0 -0.285749,-0.169333 -0.285749,-0.465665 0,-0.455082 0.179916,-1.047747 0.476249,-1.587495 0.253999,-0.455082 0.497415,-0.751414 1.090079,-1.344079 v -0.105833 c 0,-0.02117 0,-0.04233 -0.01058,-0.08467 h -0.116416 c -0.179916,0.126999 -0.253999,0.148166 -0.433915,0.148166 -0.296333,0 -0.867831,-0.01058 -1.206497,-0.02117 -0.105833,-0.01058 -0.222249,-0.01058 -0.285749,-0.01058 -0.179916,0 -0.296332,0.03175 -0.359832,0.105833 -0.158749,0.158749 -0.370415,0.645581 -0.613831,1.428745 z"
         style="fill:#542538"
         id="path5088" />
      <path
         d="m 45.212865,66.168546 0.624414,-2.487075 0.264583,-0.169333 c 0.984247,-0.613831 1.100663,-0.677331 1.248829,-0.677331 0.0635,0 0.105833,0.05292 0.105833,0.137583 0,0.169333 -0.07408,0.476248 -0.391582,1.767411 -0.232833,0.93133 -0.275166,1.12183 -0.275166,1.322912 0,0.148166 0.04233,0.275166 0.15875,0.476249 0.476248,-0.211666 1.217079,-0.677331 1.95791,-1.227663 l 0.07408,-0.296332 c -1.02658,0.592664 -1.100663,0.624414 -1.206496,0.624414 -0.105833,0 -0.169333,-0.105833 -0.169333,-0.285749 0,-0.285749 0.04233,-0.465665 0.507999,-2.14841 0.264582,-0.941913 0.264582,-0.941913 0.264582,-1.005413 0,-0.116416 -0.07408,-0.179916 -0.201083,-0.179916 -0.232832,0 -0.264582,0.02117 -1.407578,0.719664 -0.423332,0.264583 -0.698498,0.433915 -0.825498,0.518582 0.105833,-0.370416 0.253999,-1.015997 0.253999,-1.100663 0,-0.08467 -0.05292,-0.137583 -0.137583,-0.137583 -0.116416,0 -0.83608,0.370415 -1.661578,0.857247 l -0.0635,0.275166 c 0.677331,-0.306916 0.719664,-0.317499 0.814914,-0.317499 0.07408,0 0.126999,0.0635 0.126999,0.148166 0,0.232833 -0.190499,1.079497 -0.465665,2.063743 l -0.243416,0.857248 c -0.02117,0.07408 -0.07408,0.275166 -0.148166,0.571498 z"
         style="fill:#542538"
         id="path5090" />
      <path
         d="m 51.594585,65.004383 c -0.222249,0.127 -0.222249,0.127 -0.677331,0.412749 -0.306915,0.190499 -0.486832,0.275166 -0.603248,0.275166 -0.105833,0 -0.190499,-0.127 -0.190499,-0.275166 v -0.09525 -0.09525 c 0,-0.1905 0.476248,-2.24366 0.86783,-3.735905 0.412749,-1.566329 0.507999,-1.746245 0.973664,-1.746245 0.158749,0 0.264582,0.01058 0.518582,0.07408 l 0.455081,-0.560914 c -0.222249,-0.05292 -0.328082,-0.0635 -0.476248,-0.0635 -0.423332,0 -0.751414,0.158749 -1.269996,0.624414 -0.465665,0.412749 -0.582081,0.582082 -0.719664,0.963081 -0.08467,0.253999 -0.317499,1.111246 -0.423332,1.576911 l -0.761998,3.312573 c -0.01058,0.0635 -0.02117,0.127 -0.02117,0.1905 0,0.328082 0.179917,0.645581 0.349249,0.645581 h 0.0635 0.03175 c 0.0635,0.03175 0.402165,-0.201083 1.883827,-1.269996 z"
         style="fill:#542538"
         id="path5092" />
      <path
         d="m 54.684906,62.019893 c -0.423332,0 -1.100663,0.306915 -1.725077,0.772581 -0.677332,0.507998 -1.15358,1.608661 -1.15358,2.666991 0,0.634998 0.359832,1.047747 0.920747,1.047747 0.296332,0 0.603248,-0.105833 1.079497,-0.359832 0.529165,-0.296333 0.878413,-0.560915 1.068913,-0.804331 0.423332,-0.582082 0.761997,-1.619245 0.761997,-2.349493 0,-0.571498 -0.391582,-0.973663 -0.952497,-0.973663 z m -0.550331,0.497415 c 0.423332,0 0.687914,0.402165 0.687914,1.047747 0,0.455081 -0.148166,0.99483 -0.402165,1.513411 -0.306916,0.603248 -0.687915,0.931331 -1.09008,0.931331 -0.433915,0 -0.709081,-0.391582 -0.709081,-0.99483 0,-1.227663 0.772581,-2.497659 1.513412,-2.497659 z"
         style="fill:#542538"
         id="path5094" />
      <path
         d="m 60.3258,64.983217 c -0.772581,0.529165 -0.952497,0.634998 -1.05833,0.634998 -0.07408,0 -0.127,-0.08467 -0.127,-0.211666 0,-0.285749 0.243416,-1.396996 0.634998,-2.846908 0.116417,-0.169333 0.137583,-0.190499 0.306916,-0.380999 -0.507998,-0.116416 -0.867831,-0.158749 -1.333496,-0.158749 -0.433915,0 -0.645581,0.04233 -0.910164,0.211666 -0.380998,0.222249 -0.825497,0.550331 -0.96308,0.698498 -0.402165,0.444498 -0.836081,1.873244 -0.836081,2.730491 0,0.507998 0.169333,0.846664 0.433916,0.846664 0.232832,0 0.582081,-0.211666 1.904994,-1.164163 -0.116417,0.539748 -0.15875,0.804331 -0.15875,0.941914 0,0.148166 0.0635,0.222249 0.169333,0.222249 0.137583,0 0.222249,-0.04233 0.973664,-0.539748 0.359832,-0.243416 0.560914,-0.380999 0.952496,-0.666748 z m -1.862661,-0.07408 c -0.370415,0.275165 -0.560915,0.412748 -0.571498,0.423332 -0.349249,0.222249 -0.624415,0.359832 -0.761998,0.359832 -0.179916,0 -0.275165,-0.1905 -0.275165,-0.529165 0,-0.539749 0.158749,-1.238246 0.433915,-1.852078 0.253999,-0.582081 0.486832,-0.80433 0.846664,-0.80433 0.190499,0 0.550331,0.05292 0.89958,0.137582 -0.211666,0.761998 -0.285749,1.047747 -0.296332,1.100664 -0.0635,0.264582 -0.116416,0.529165 -0.179916,0.80433 -0.01058,0.05292 -0.04233,0.179916 -0.09525,0.359833 z"
         style="fill:#542538"
         id="path5096" />
      <path
         d="m 64.823682,64.983217 -0.296333,0.190499 c -0.264582,0.179916 -0.444498,0.306916 -0.497415,0.338666 -0.222249,0.137583 -0.423332,0.232832 -0.476248,0.232832 -0.08467,0 -0.148166,-0.116416 -0.148166,-0.275166 0,-0.349248 0.878413,-4.180403 1.111246,-4.836567 0.232833,-0.634998 0.465665,-0.878414 0.846664,-0.878414 0.148166,0 0.243416,0.02117 0.486832,0.08467 l 0.370415,-0.592665 c -0.158749,-0.03175 -0.232832,-0.04233 -0.338665,-0.04233 -0.254,0 -0.402166,0.04233 -0.634998,0.179916 -0.264583,0.148166 -0.624415,0.423332 -0.920747,0.698498 -0.518582,0.497415 -0.550332,0.571498 -0.825498,1.661578 -0.01058,0.04233 -0.04233,0.190499 -0.08467,0.338666 -0.1905,-0.04233 -0.338666,-0.0635 -0.433915,-0.0635 -0.328083,0 -1.238247,0.571498 -1.661579,1.037163 -0.359832,0.412749 -0.83608,1.904994 -0.83608,2.635242 0,0.402165 0.211666,0.814914 0.402165,0.814914 0.201083,0 0.687915,-0.296333 1.777995,-1.09008 -0.05292,0.285749 -0.08467,0.560915 -0.08467,0.761998 0,0.211666 0.07408,0.328082 0.232833,0.328082 0.169333,0 1.09008,-0.560915 1.968493,-1.195913 z m -2.074327,0.04233 c -0.899581,0.634998 -1.132413,0.772581 -1.280579,0.772581 -0.148167,0 -0.22225,-0.148166 -0.22225,-0.465665 0,-0.349249 0.0635,-0.740831 0.1905,-1.21708 0.296332,-1.068913 0.719664,-1.598078 1.259412,-1.598078 0.201083,0 0.338666,0.07408 0.550332,0.285749 z"
         style="fill:#542538"
         id="path5098" />
    </g>
    <text
       xml:space="preserve"
       style="font-size:10.5833px;line-height:1.25;font-family:Z003;-inkscape-font-specification:Z003;stroke-width:0.264583"
       x="45.117657"
       y="53.995991"
       id="text25988"><tspan
         sodipodi:role="line"
         id="tspan25986"
         style="stroke-width:0.264583"
         x="45.117657"
         y="53.995991" /></text>
  </g>
</svg>
