<?xml version="1.0" encoding="UTF-8" standalone="no"?>
<!-- Created with Inkscape (http://www.inkscape.org/) -->

<svg
   width="18.150307mm"
   height="9.8001356mm"
   viewBox="0 0 18.150307 9.8001356"
   version="1.1"
   id="svg5"
   inkscape:version="1.1 (c4e8f9ed74, 2021-05-24)"
   sodipodi:docname="help.svg"
   xmlns:inkscape="http://www.inkscape.org/namespaces/inkscape"
   xmlns:sodipodi="http://sodipodi.sourceforge.net/DTD/sodipodi-0.dtd"
   xmlns="http://www.w3.org/2000/svg"
   xmlns:svg="http://www.w3.org/2000/svg">
  <sodipodi:namedview
     id="namedview7"
     pagecolor="#505050"
     bordercolor="#eeeeee"
     borderopacity="1"
     inkscape:pageshadow="0"
     inkscape:pageopacity="0"
     inkscape:pagecheckerboard="0"
     inkscape:document-units="mm"
     showgrid="false"
     inkscape:zoom="16"
     inkscape:cx="24.28125"
     inkscape:cy="16.3125"
     inkscape:window-width="1916"
     inkscape:window-height="1061"
     inkscape:window-x="0"
     inkscape:window-y="15"
     inkscape:window-maximized="1"
     inkscape:current-layer="layer1" />
  <defs
     id="defs2" />
  <g
     inkscape:label="Layer 1"
     inkscape:groupmode="layer"
     id="layer1"
     transform="translate(-25.062315,-59.194152)">
    <g
       aria-label="Help"
       id="text5798"
       style="font-size:10.5833px;line-height:1.25;font-family:Z003;-inkscape-font-specification:Z003;stroke-width:0.264583">
      <path
         d="m 28.86172,62.961806 c 0.0635,-0.201082 0.09525,-0.338665 0.116416,-0.391582 0.0635,-0.253999 0.126999,-0.497415 0.190499,-0.740831 0.0635,-0.253999 0.127,-0.507998 0.201083,-0.761997 0.01058,-0.04233 0.04233,-0.1905 0.08467,-0.391582 l 0.412749,-0.349249 c -0.275166,-0.02117 -0.465665,-0.02117 -0.613831,-0.02117 -1.037164,0 -1.746245,0.1905 -2.317743,0.613832 -0.571498,0.423332 -0.825497,0.910163 -0.825497,1.576911 0,0.169333 0.02117,0.275166 0.08467,0.529165 l 0.793748,-0.264582 c -0.09525,-0.338666 -0.116417,-0.497415 -0.116417,-0.730248 0,-0.582081 0.243416,-1.005413 0.666748,-1.195913 0.264583,-0.105833 0.518582,-0.137583 1.164163,-0.137583 -0.158749,0.518582 -0.169333,0.571498 -0.529165,1.979077 l -0.07408,0.306916 -0.380999,0.402165 0.275166,0.02117 c -0.507998,1.968494 -0.740831,2.254243 -1.873244,2.254243 -0.169333,0 -0.296332,0 -0.560915,-0.02117 l -0.497415,0.687915 c 0.232833,0.03175 0.328082,0.04233 0.518582,0.04233 0.338665,0 0.603248,-0.03175 0.814914,-0.105833 0.328082,-0.09525 0.857247,-0.518582 1.407579,-1.09008 0.560914,-0.582081 0.592664,-0.645581 0.941913,-1.746244 1.312329,-0.08467 1.693328,-0.105833 2.285993,-0.116417 -0.05292,0.22225 -0.09525,0.370416 -0.105833,0.433916 l -0.243416,0.89958 c -0.370415,1.481662 -0.370415,1.481662 -0.370415,1.619245 0,0.116416 0.105833,0.222249 0.232832,0.222249 0.07408,0 0.179916,-0.02117 0.296333,-0.05292 0.275165,-0.07408 0.444498,-0.105833 1.598078,-0.317499 l 0.190499,-0.264583 c -0.550331,0.05292 -0.730247,0.0635 -1.005413,0.0635 -0.211666,0 -0.338666,-0.105833 -0.338666,-0.285749 0,-0.328082 0,-0.328082 0.677331,-2.963324 0.677332,-2.360076 0.677332,-2.360076 0.804331,-2.561158 0.15875,-0.254 0.338666,-0.359833 0.634998,-0.359833 0.211666,0 0.328082,0.02117 0.560915,0.105833 l 0.359832,-0.582081 c -0.190499,-0.0635 -0.275166,-0.07408 -0.465665,-0.07408 -0.137583,0 -0.243416,0.01058 -0.349249,0.04233 -0.264582,0.08467 -0.804331,0.507998 -1.259413,0.984247 -0.423332,0.455082 -0.571498,0.730247 -0.751414,1.386412 l -0.285749,1.02658 c -0.01058,0.03175 -0.04233,0.148166 -0.09525,0.328082 z"
         style="fill:#542538"
         id="path5048" />
      <path
         d="m 35.931347,64.919717 c -0.846664,0.719664 -1.301746,0.984247 -1.703912,0.984247 -0.275165,0 -0.486831,-0.179916 -0.560914,-0.455082 -0.04233,-0.169333 -0.05292,-0.285749 -0.05292,-0.592665 0.486832,-0.306916 0.783164,-0.518582 1.407579,-0.984247 0.582081,-0.433915 0.793747,-0.783164 0.793747,-1.259412 0,-0.370416 -0.222249,-0.592665 -0.603248,-0.592665 -0.232832,0 -0.391582,0.05292 -0.645581,0.190499 -0.402165,0.232833 -0.761998,0.518582 -0.973664,0.772581 -0.402165,0.486832 -0.761997,1.650995 -0.761997,2.508242 0,0.624415 0.328082,1.015997 0.86783,1.015997 0.624415,0 1.428746,-0.465665 2.222493,-1.280579 z m -2.285993,-0.444499 c 0.179916,-1.142996 0.656164,-2.010827 1.12183,-2.010827 0.169332,0 0.285749,0.169333 0.285749,0.433916 0,0.529165 -0.306916,0.86783 -1.407579,1.576911 z"
         style="fill:#542538"
         id="path5050" />
      <path
         d="m 38.820555,65.004383 c -0.22225,0.127 -0.22225,0.127 -0.677331,0.412749 -0.306916,0.190499 -0.486832,0.275166 -0.603249,0.275166 -0.105833,0 -0.190499,-0.127 -0.190499,-0.275166 v -0.09525 -0.09525 c 0,-0.1905 0.476249,-2.24366 0.867831,-3.735905 0.412748,-1.566329 0.507998,-1.746245 0.973663,-1.746245 0.15875,0 0.264583,0.01058 0.518582,0.07408 l 0.455082,-0.560914 c -0.22225,-0.05292 -0.328083,-0.0635 -0.476249,-0.0635 -0.423332,0 -0.751414,0.158749 -1.269996,0.624414 -0.465665,0.412749 -0.582081,0.582082 -0.719664,0.963081 -0.08467,0.253999 -0.317499,1.111246 -0.423332,1.576911 l -0.761998,3.312573 c -0.01058,0.0635 -0.02117,0.127 -0.02117,0.1905 0,0.328082 0.179916,0.645581 0.349249,0.645581 h 0.0635 0.03175 c 0.0635,0.03175 0.402166,-0.201083 1.883828,-1.269996 z"
         style="fill:#542538"
         id="path5052" />
      <path
         d="m 38.344304,68.623872 -0.317499,0.338665 c 0.190499,0.01058 0.317499,0.01058 0.359832,0.01058 l 0.761998,0.01058 0.677331,0.01058 c 0.08467,0 0.232832,0 0.497415,-0.01058 l 0.328082,-0.264583 -1.185329,-0.0635 c 0.137582,-0.645582 0.201082,-0.952497 0.243415,-1.12183 0.05292,-0.222249 0.09525,-0.444499 0.148167,-0.677331 l 0.116416,-0.455082 c 0.211666,0.04233 0.328082,0.05292 0.507998,0.05292 0.582082,0 0.698498,-0.05292 1.523995,-0.740831 0.359833,-0.285749 0.486832,-0.433915 0.645582,-0.740831 0.338665,-0.687914 0.560915,-1.513411 0.560915,-2.11666 0,-0.507998 -0.22225,-0.83608 -0.571499,-0.83608 -0.253999,0 -0.613831,0.158749 -1.047746,0.476248 -0.465665,0.338666 -0.751415,0.550332 -0.867831,0.624415 0.148166,-0.624415 0.222249,-0.941914 0.222249,-0.96308 0,-0.0635 -0.07408,-0.137583 -0.148166,-0.137583 -0.105833,0 -0.96308,0.455082 -1.746244,0.920747 l -0.0635,0.275166 c 0.07408,-0.03175 0.222249,-0.09525 0.433915,-0.179916 0.201083,-0.09525 0.243416,-0.105833 0.328083,-0.105833 0.126999,0 0.201082,0.105833 0.201082,0.296332 0,0.380999 -0.624414,3.100907 -1.227662,5.376316 z m 1.883827,-3.291406 0.15875,-0.719665 0.158749,-0.687914 c 0.01058,-0.05292 0.04233,-0.1905 0.08467,-0.380999 0.857248,-0.634998 1.195913,-0.814914 1.471079,-0.814914 0.211666,0 0.349249,0.222249 0.349249,0.582081 0,0.476249 -0.148166,1.079497 -0.412749,1.650995 -0.285749,0.634998 -0.645581,0.941914 -1.079496,0.941914 -0.264583,0 -0.550332,-0.08467 -0.804331,-0.232833 z"
         style="fill:#542538"
         id="path5054" />
    </g>
  </g>
</svg>
