<?xml version="1.0" encoding="UTF-8" standalone="no"?>
<svg
   width="1722.4108mm"
   height="1148.0642mm"
   viewBox="0 0 1722.4108 1148.0642"
   version="1.1"
   id="svg8"
   inkscape:version="1.1 (c4e8f9ed74, 2021-05-24)"
   sodipodi:docname="logo-slogan.svg"
   xmlns:inkscape="http://www.inkscape.org/namespaces/inkscape"
   xmlns:sodipodi="http://sodipodi.sourceforge.net/DTD/sodipodi-0.dtd"
   xmlns="http://www.w3.org/2000/svg"
   xmlns:svg="http://www.w3.org/2000/svg"
   xmlns:rdf="http://www.w3.org/1999/02/22-rdf-syntax-ns#"
   xmlns:cc="http://creativecommons.org/ns#"
   xmlns:dc="http://purl.org/dc/elements/1.1/">
  <defs
     id="defs2" />
  <sodipodi:namedview
     id="base"
     pagecolor="#ffffff"
     bordercolor="#666666"
     borderopacity="1.0"
     inkscape:pageopacity="0.0"
     inkscape:pageshadow="2"
     inkscape:zoom="0.125"
     inkscape:cx="3211.9999"
     inkscape:cy="2623.9999"
     inkscape:document-units="mm"
     inkscape:current-layer="layer1"
     inkscape:document-rotation="0"
     showgrid="false"
     showborder="true"
     inkscape:window-width="1916"
     inkscape:window-height="1061"
     inkscape:window-x="0"
     inkscape:window-y="15"
     inkscape:window-maximized="1"
     inkscape:pagecheckerboard="0" />
  <metadata
     id="metadata5">
    <rdf:RDF>
      <cc:Work
         rdf:about="">
        <dc:format>image/svg+xml</dc:format>
        <dc:type
           rdf:resource="http://purl.org/dc/dcmitype/StillImage" />
      </cc:Work>
    </rdf:RDF>
  </metadata>
  <g
     inkscape:label="Layer 1"
     inkscape:groupmode="layer"
     id="layer1"
     transform="translate(137.11214,185.98567)">
    <g
       id="g884"
       transform="translate(-98.330723,-185.98567)">
      <g
         id="layer2"
         inkscape:label="Text"
         transform="translate(20.221622,-38.567821)">
        <path
           id="text1582"
           style="font-style:normal;font-weight:normal;font-size:529.167px;line-height:1.25;font-family:sans-serif;fill:#c30b38;fill-opacity:1;stroke:none;stroke-width:0.999999"
           transform="scale(0.26458333)"
           d="m 438.67383,798.38867 c -34.00002,0 -151.9999,65.99993 -316,176 l -4,56.00003 c 122.00007,-66.0001 127.99999,-68.00003 146,-68.00003 16.00001,0 24,11.99999 24,34 0,28.00003 -5.99998,56.00193 -36,170.00193 -94.00006,348.0002 -94,348 -94,400 0,48.0001 17.99998,80 48,80 34.00002,0 87.99993,-25.9999 194,-94 38.00002,-24 75.99997,-48 114,-74 18.00001,-10 31.99998,-20 56,-34 l 8,-56 -34,18 c -138.00009,76.0001 -161.99999,86 -186,86 -22.00002,0 -36,-22 -36,-56 0,-34 -4e-5,-33.9998 66,-298 74.00004,-304.00013 74,-304.00192 74,-320.00193 0,-12.00001 -9.99999,-20 -24,-20 z" />
      </g>
      <g
         inkscape:label="Layer 1"
         id="layer1-67"
         style="display:inline"
         transform="translate(20.221622,-38.567821)">
        <g
           inkscape:label="Layer 1"
           id="layer1-6"
           transform="translate(80.213131,91.912739)">
          <path
             style="fill:#542538;fill-opacity:1;stroke:#000000;stroke-width:0.237018px;stroke-linecap:butt;stroke-linejoin:miter;stroke-opacity:1"
             d="m -54.14592,52.678234 -46.01663,17.354827 c 0,0 52.682937,31.330669 116.294525,31.330669 64.452226,0 126.078655,-26.56634 126.078655,-26.56634 L 91.862561,52.524289 c 0,0 -20.117959,16.139974 -73.098501,16.139974 -53.966834,0 -72.90998,-15.986029 -72.90998,-15.986029 z"
             id="path833"
             sodipodi:nodetypes="ccsccsc" />
          <path
             style="fill:#542538;fill-opacity:1;stroke:#000000;stroke-width:0;stroke-linecap:butt;stroke-linejoin:miter;stroke-miterlimit:4;stroke-dasharray:none;stroke-opacity:1"
             d="m -47.896672,42.162484 c 0,0 15.192999,15.406188 65.187436,15.406188 42.13193,0 69.886982,-13.274585 69.886982,-13.274585 0,0 -61.165938,-64.314556 -36.620076,-62.131865 24.545864,2.182688 27.253138,11.2307874 30.657573,7.096762 4.520907,-5.489763 -52.305165,-53.782844 -69.689994,-40.207922 -21.5057519,16.79274 -59.421921,93.111422 -59.421921,93.111422 z"
             id="path835"
             sodipodi:nodetypes="cscsssc" />
        </g>
      </g>
    </g>
    <g
       aria-label="mage"
       id="text888"
       style="font-size:529.167px;line-height:1.25;font-family:Z003;-inkscape-font-specification:Z003;fill:#542538;stroke-width:0">
      <path
         d="M 95.324057,207.8827 132.89491,193.5952 166.7616,65.007616 c 34.39586,-23.812515 57.15004,-36.512522 64.02921,-36.512522 4.23333,0 6.87917,4.233335 6.87917,11.641673 0,15.87501 -20.10835,95.779223 -42.33336,167.745933 l 40.21669,-14.2875 32.80835,-132.291753 c 30.16252,-19.579179 58.73754,-35.454188 65.08754,-35.454188 4.76251,0 6.87917,3.704168 6.87917,10.054172 0,11.641674 -4.7625,35.454189 -19.05001,89.958389 -7.9375,32.80835 -10.58334,46.03753 -10.58334,58.20837 0,11.11251 2.64584,16.93334 12.70001,23.81251 30.69169,-15.34584 60.32504,-34.39585 89.42922,-57.6792 l 0.52917,-12.17084 c -44.9792,27.51668 -44.9792,27.51668 -52.38753,27.51668 -5.82084,0 -9.52501,-5.29167 -9.52501,-13.75834 0,-12.17084 6.35001,-40.21669 17.46251,-79.375046 16.93335,-58.737536 20.10835,-70.9083771 20.10835,-79.375049 0,-5.29167 -2.64584,-7.937505 -8.46667,-7.937505 -9.52501,0 -42.33336,16.9333439 -106.89174,55.033367 2.11667,-9.525006 2.11667,-9.525006 6.87917,-30.1625182 2.11667,-7.9375049 3.70417,-16.9333438 3.70417,-19.0500117 0,-3.7041691 -2.64583,-5.8208371 -6.87917,-5.8208371 -8.99584,0 -29.10418,11.112507 -105.30423,59.266703 8.46667,-35.9833552 11.11251,-48.154196 11.11251,-51.858365 0,-4.762503 -3.175,-7.408338 -7.93751,-7.408338 -5.29167,0 -11.1125,3.175002 -37.57085,17.9916779 C 102.73239,23.203424 102.73239,23.203424 93.207389,29.553427 L 89.50322,44.370103 c 28.04585,-14.287509 32.80835,-15.875009 39.15836,-15.875009 4.23333,0 7.40834,4.233335 7.40834,10.054172 0,7.937505 -1.58751,14.816676 -22.75419,98.954224 -4.7625,16.93335 -8.99583,34.39586 -13.22917,51.85837 z"
         id="path1158" />
      <path
         d="m 635.07383,133.27016 c -38.62919,26.45835 -47.62503,31.75002 -52.9167,31.75002 -3.70417,0 -6.35,-4.23334 -6.35,-10.58334 0,-14.28751 12.17084,-69.850045 31.75002,-142.345923 5.82083,-8.4666721 6.87917,-9.5250061 15.34584,-19.050012 -25.40002,-5.820837 -43.39169,-7.937505 -66.67504,-7.937505 -21.69585,0 -32.27919,2.116668 -45.50836,10.58334 -19.05001,11.1125068 -41.27503,27.516684 -48.1542,34.925021 -20.10834,22.225014 -41.80419,93.662559 -41.80419,136.525089 0,25.40001 8.46667,42.33335 21.69585,42.33335 11.64167,0 29.10418,-10.58334 95.25005,-58.20836 -5.82083,26.98751 -7.9375,40.21669 -7.9375,47.09586 0,7.40834 3.175,11.1125 8.46667,11.1125 6.87917,0 11.11251,-2.11666 48.68336,-26.98751 17.99168,-12.17084 28.04586,-19.05001 47.62503,-33.33752 z m -93.13339,-3.70417 c -18.52084,13.75834 -28.04585,20.63751 -28.57502,21.16668 -17.46251,11.11251 -31.22085,17.99168 -38.10002,17.99168 -8.99584,0 -13.75834,-9.52501 -13.75834,-26.45835 0,-26.98752 7.9375,-61.912541 21.69584,-92.604227 12.70001,-29.104184 24.34169,-40.2166912 42.33336,-40.2166912 9.52501,0 27.51669,2.6458352 44.9792,6.8791712 -10.58334,38.100023 -14.28751,52.387532 -14.81668,55.033367 -3.175,13.229175 -5.82083,26.458349 -8.99584,40.21669 -0.52916,2.64584 -2.11666,8.99584 -4.7625,17.99168 z"
         id="path1160" />
      <path
         d="m 814.46047,86.703463 c 2.11667,-11.641674 4.7625,-21.695847 6.87917,-30.162519 2.64583,-10.054173 5.29167,-20.108346 7.9375,-29.633351 l 2.64584,-11.641674 c 9.525,-2.645835 10.05417,-2.645835 26.98752,-29.633352 -2.64584,0 -9.52501,0 -61.38338,1.058334 -32.27918,0.529167 -41.80419,2.116668 -57.15003,11.641674 -25.40002,15.345843 -43.39169,30.691685 -54.5042,44.979194 -15.87501,21.16668 -34.92502,84.137551 -34.92502,116.945901 0,13.22918 3.175,22.75419 11.64167,34.39586 -32.27919,28.04585 -41.80419,35.98335 -60.8542,52.38753 -26.45835,23.28335 -38.62919,40.74586 -38.62919,55.56254 0,19.57917 22.75418,30.69168 63.50004,30.69168 48.68336,0 86.78338,-13.75834 122.23757,-44.45003 22.75418,-19.57918 28.04585,-30.69168 39.15836,-83.07921 z M 745.13959,231.69522 c -6.87917,32.27919 -11.64167,43.92086 -21.16668,53.97503 -11.64167,13.75834 -33.33752,20.10835 -64.55837,20.10835 -34.39586,0 -52.9167,-8.99584 -52.9167,-26.45835 0,-21.69585 14.81668,-34.92502 161.39593,-147.63759 z M 704.9229,162.37434 c -9.52501,-9.525 -13.22917,-17.99168 -13.22917,-30.69168 0,-12.17084 2.64583,-25.40002 12.17084,-56.620871 9.525,-31.75002 16.93334,-45.508362 29.10418,-52.916699 9.52501,-6.350004 21.16668,-7.408338 74.08338,-7.408338 h 16.93334 c -22.22501,16.404176 -24.87084,18.520844 -29.63335,26.458349 -4.23333,6.879171 -10.05417,26.987517 -21.69584,71.437549 -8.99584,5.82083 -10.58334,7.40833 -17.46252,12.17084 -12.7,8.99583 -24.87084,18.52084 -36.51252,27.51668 z"
         id="path1162" />
      <path
         d="m 1017.1312,130.09516 c -42.33337,35.98335 -65.08755,49.21253 -85.19589,49.21253 -13.75834,0 -24.34168,-8.99584 -28.04585,-22.75418 -2.11667,-8.46668 -2.64584,-14.28751 -2.64584,-29.63336 24.34168,-15.34584 39.15836,-25.92918 70.37921,-49.212526 29.10417,-21.695847 39.68757,-39.158358 39.68757,-62.970872 0,-18.520845 -11.1125,-29.633352 -30.16256,-29.633352 -11.64168,0 -19.57918,2.645835 -32.27919,9.525006 -20.10834,11.6416738 -38.10002,25.929183 -48.68336,38.62919 -20.10835,24.341682 -38.10002,82.550054 -38.10002,125.412574 0,31.22086 16.40417,50.80003 43.39169,50.80003 31.22085,0 71.43754,-23.28334 111.12504,-64.0292 z M 902.83112,107.87014 C 911.82696,50.720107 935.63948,7.3284138 958.92283,7.3284138 c 8.46667,0 14.2875,8.4666722 14.2875,21.6958462 0,26.45835 -15.34584,43.391694 -70.37921,78.84588 z"
         id="path1164" />
    </g>
    <g
       aria-label="sourcerer"
       id="text870"
       style="font-size:529.167px;line-height:1.25;font-family:Z003;-inkscape-font-specification:Z003;stroke-width:0">
      <path
         d="m -76.279885,522.58866 c -0.529167,4.7625 -1.058334,8.99584 -1.058334,12.17084 0,23.28335 15.87501,38.62919 39.158358,38.62919 16.933344,0 39.15835728,-6.35 56.091701,-16.40417 31.75002,-17.99168 50.270864,-44.9792 50.270864,-71.43755 0,-19.57918 -3.175002,-23.81251 -33.33752,-42.33336 C 16.853506,431.57194 9.4451682,421.51777 9.4451682,407.75942 c 0,-17.99167 15.3458428,-33.86668 33.3375208,-33.86668 12.17084,0 21.695846,5.82083 32.808353,20.63751 C 93.58272,377.06774 93.58272,377.06774 100.46189,367.01357 89.878551,354.31356 79.824378,349.02189 65.007702,349.02189 c -38.62919,0 -88.370887,45.50836 -88.370887,80.96255 0,16.40417 8.466672,29.10418 28.5750172,43.39169 26.4583498,18.52085 30.1625188,23.28335 30.1625188,36.51252 0,19.05002 -24.341682,41.27503 -44.9791946,41.27503 -11.6416734,0 -20.6375124,-6.35001 -25.9291824,-17.99168 -3.704169,-7.9375 -4.762503,-15.87501 -5.29167,-34.39585 -5.820837,4.7625 -10.054173,7.40833 -12.170841,8.99584 -4.233336,2.64583 -8.995839,5.29167 -13.758342,8.46667 -0.529167,0 -5.29167,3.70417 -9.525006,6.35 z"
         style="fill:#542538"
         id="path1139" />
      <path
         d="m 260.27017,349.02189 c -21.16668,0 -55.03337,15.34584 -86.25422,38.62919 -33.86669,25.40001 -57.6792,80.43338 -57.6792,133.35008 0,31.75002 17.99167,52.38753 46.03752,52.38753 14.81668,0 30.16252,-5.29167 53.97504,-17.99168 26.45835,-14.81667 43.92086,-28.04585 53.44586,-40.21669 21.16668,-29.10418 38.10003,-80.96255 38.10003,-117.47507 0,-28.57502 -19.57918,-48.68336 -47.62503,-48.68336 z m -27.51669,24.87085 c 21.16668,0 34.39586,20.10834 34.39586,52.38753 0,22.75418 -7.40834,49.7417 -20.10835,75.67088 -15.34584,30.16252 -34.39585,46.56669 -54.5042,46.56669 -21.69584,0 -35.45419,-19.57917 -35.45419,-49.74169 0,-61.38337 38.62919,-124.88341 75.67088,-124.88341 z"
         style="fill:#542538"
         id="path1141" />
      <path
         d="m 456.59092,496.65948 c -40.21669,27.51668 -58.73754,38.62919 -65.61671,38.62919 -5.82083,0 -10.05417,-7.40834 -10.05417,-17.46251 0,-12.17084 4.23334,-33.33752 13.22918,-67.20421 5.29166,-20.10835 10.58333,-40.21669 11.1125,-43.39169 4.7625,-20.10835 8.46667,-33.33752 9.52501,-37.04169 1.5875,-5.82084 2.64583,-11.11251 2.64583,-14.28751 0,-4.23334 -2.64583,-6.87917 -6.35,-6.87917 -5.29167,0 -43.39169,20.63751 -82.02089,44.45003 l -3.70416,14.2875 c 22.75418,-11.64167 32.27918,-15.34584 38.62919,-15.34584 4.23333,0 7.40833,3.70417 7.40833,10.05417 0,7.40834 -4.7625,28.04585 -14.81667,65.61671 -13.22918,49.7417 -16.40418,64.02921 -16.40418,79.37505 0,14.81668 6.35001,25.92918 14.81668,25.92918 7.9375,0 16.93334,-4.7625 43.92086,-22.22501 41.27502,-26.45835 41.27502,-26.45835 54.5042,-35.45419 -4.7625,17.99168 -7.40834,35.98336 -7.40834,45.50836 0,7.40834 3.70417,12.17084 9.52501,12.17084 10.58334,0 60.32503,-29.10418 96.83756,-56.62087 l 3.70416,-15.87501 c -37.57085,22.22502 -55.03336,31.75002 -60.8542,31.75002 -3.70417,0 -5.82084,-3.70416 -5.82084,-12.7 0,-26.98752 19.05002,-105.30424 42.33336,-173.03761 -6.87917,3.70417 -11.64167,6.35 -13.75834,7.40834 -6.35,3.175 -12.70001,6.35 -19.57918,8.99584 -1.5875,1.05833 -4.7625,2.64583 -10.58334,5.82083 -3.70417,13.22918 -12.17084,48.68337 -25.92918,106.36257 z"
         style="fill:#c30b38"
         id="path1143" />
      <path
         d="m 573.00716,571.80119 40.74586,-15.34584 39.68753,-150.81259 c 17.99167,-13.75835 30.16251,-18.52085 44.45002,-18.52085 11.64168,0 18.52085,4.23334 28.04585,16.40418 l 15.87501,-50.27087 c -9.525,-3.175 -14.28751,-4.23333 -19.57918,-4.23333 -10.05417,0 -20.63751,4.7625 -34.92502,14.81667 -6.87917,5.29167 -13.75834,10.58334 -21.16668,15.34585 -3.175,2.64583 -6.87917,5.29167 -10.05417,7.40833 l 6.35,-31.75002 c 0,-3.175 -3.175,-5.82083 -6.87917,-5.82083 -6.87917,0 -53.44586,22.75418 -85.72505,41.80419 l -1.5875,14.28751 c 30.69169,-14.81668 31.22085,-15.34584 38.10002,-15.34584 6.87917,0 10.05418,3.70417 10.05418,11.1125 0,7.40834 -5.29167,31.75002 -11.64168,55.03337 z"
         style="fill:#542538"
         id="path1145" />
      <path
         d="m 878.86461,499.30531 c -40.21669,29.10419 -68.7917,43.92086 -85.72505,43.92086 -19.05001,0 -30.16252,-14.81667 -30.16252,-40.21669 0,-25.92918 6.35001,-59.2667 16.40418,-84.13755 11.11251,-28.04585 24.34168,-42.33336 39.68752,-42.33336 12.70001,0 19.57918,10.05417 22.22502,33.33752 l 30.69168,-17.99168 c 0.52917,-2.64583 0.52917,-5.29167 0.52917,-6.35 0,-22.75418 -11.64167,-36.51252 -30.16252,-36.51252 -10.05417,0 -14.81667,2.11667 -34.39585,14.81667 -39.68753,24.87085 -48.1542,32.80836 -59.79587,54.5042 -14.81668,28.57502 -25.92918,73.55422 -25.92918,106.36257 0,31.22085 13.75834,48.68336 38.62919,48.68336 25.40001,0 67.73337,-20.63751 116.9459,-57.15003 z"
         style="fill:#542538"
         id="path1147" />
      <path
         d="m 1058.2507,494.01364 c -42.3334,35.98336 -65.08755,49.21253 -85.1959,49.21253 -13.75834,0 -24.34168,-8.99584 -28.04585,-22.75418 -2.11667,-8.46667 -2.64584,-14.28751 -2.64584,-29.63335 24.34169,-15.34584 39.15836,-25.92918 70.37919,-49.21253 29.1042,-21.69585 39.6875,-39.15836 39.6875,-62.97087 0,-18.52085 -11.1125,-29.63335 -30.1625,-29.63335 -11.6416,0 -19.5791,2.64583 -32.27916,9.525 -20.10834,11.64168 -38.10002,25.92919 -48.68336,38.62919 -20.10835,24.34169 -38.10002,82.55005 -38.10002,125.41258 0,31.22085 16.40417,50.80003 43.39169,50.80003 31.22085,0 71.43755,-23.28335 111.12505,-64.0292 z M 943.95062,471.78863 c 8.99583,-57.15004 32.80835,-100.54173 56.09168,-100.54173 8.4667,0 14.2875,8.46667 14.2875,21.69585 0,26.45835 -15.34582,43.39169 -70.37918,78.84588 z"
         style="fill:#542538"
         id="path1149" />
      <path
         d="m 1084.7082,571.80119 40.7458,-15.34584 39.6875,-150.81259 c 17.9917,-13.75835 30.1626,-18.52085 44.4501,-18.52085 11.6416,0 18.5208,4.23334 28.0458,16.40418 l 15.875,-50.27087 c -9.525,-3.175 -14.2875,-4.23333 -19.5792,-4.23333 -10.0541,0 -20.6375,4.7625 -34.925,14.81667 -6.8791,5.29167 -13.7583,10.58334 -21.1667,15.34585 -3.175,2.64583 -6.8791,5.29167 -10.0541,7.40833 l 6.35,-31.75002 c 0,-3.175 -3.175,-5.82083 -6.8792,-5.82083 -6.8792,0 -53.4459,22.75418 -85.7251,41.80419 l -1.5875,14.28751 c 30.6917,-14.81668 31.2209,-15.34584 38.1001,-15.34584 6.8791,0 10.0541,3.70417 10.0541,11.1125 0,7.40834 -5.2916,31.75002 -11.6416,55.03337 z"
         style="fill:#542538"
         id="path1151" />
      <path
         d="m 1390.0368,494.01364 c -42.3333,35.98336 -65.0875,49.21253 -85.1959,49.21253 -13.7583,0 -24.3416,-8.99584 -28.0458,-22.75418 -2.1167,-8.46667 -2.6459,-14.28751 -2.6459,-29.63335 24.3417,-15.34584 39.1584,-25.92918 70.3793,-49.21253 29.1041,-21.69585 39.6875,-39.15836 39.6875,-62.97087 0,-18.52085 -11.1125,-29.63335 -30.1625,-29.63335 -11.6417,0 -19.5792,2.64583 -32.2792,9.525 -20.1084,11.64168 -38.1,25.92919 -48.6834,38.62919 -20.1083,24.34169 -38.1,82.55005 -38.1,125.41258 0,31.22085 16.4042,50.80003 43.3917,50.80003 31.2208,0 71.4375,-23.28335 111.1251,-64.0292 z m -114.3001,-22.22501 c 8.9959,-57.15004 32.8084,-100.54173 56.0917,-100.54173 8.4667,0 14.2876,8.46667 14.2876,21.69585 0,26.45835 -15.3459,43.39169 -70.3793,78.84588 z"
         style="fill:#542538"
         id="path1153" />
      <path
         d="m 1416.4943,571.80119 40.7458,-15.34584 39.6876,-150.81259 c 17.9916,-13.75835 30.1625,-18.52085 44.45,-18.52085 11.6417,0 18.5208,4.23334 28.0458,16.40418 l 15.8751,-50.27087 c -9.5251,-3.175 -14.2876,-4.23333 -19.5792,-4.23333 -10.0542,0 -20.6375,4.7625 -34.925,14.81667 -6.8792,5.29167 -13.7584,10.58334 -21.1667,15.34585 -3.175,2.64583 -6.8792,5.29167 -10.0542,7.40833 l 6.35,-31.75002 c 0,-3.175 -3.175,-5.82083 -6.8792,-5.82083 -6.8791,0 -53.4458,22.75418 -85.725,41.80419 l -1.5875,14.28751 c 30.6917,-14.81668 31.2208,-15.34584 38.1,-15.34584 6.8792,0 10.0542,3.70417 10.0542,11.1125 0,7.40834 -5.2917,31.75002 -11.6417,55.03337 z"
         style="fill:#542538"
         id="path1155" />
    </g>
    <g
       aria-label="Download, Sort and Track your favourite art!"
       id="text3970"
       style="font-size:180.622px;line-height:0.95;font-family:Z003;-inkscape-font-specification:Z003;text-align:center;text-anchor:middle;stroke-width:0.264583">
      <path
         d="m -137.11214,745.69342 h 22.93899 c 29.622007,0 37.027509,-0.54187 46.600475,-3.97368 14.449759,-4.8768 29.260763,-14.26914 36.30502,-22.939 9.211722,-11.37918 15.714114,-30.34449 15.714114,-45.69736 0,-12.46292 -6.502392,-21.85526 -18.784688,-27.27392 -7.766745,-3.43182 -16.978467,-4.8768 -34.4988,-5.96053 l 1.264354,-5.05741 -13.004784,5.41866 c -14.811004,2.5287 -24.203351,5.7799 -33.776311,11.92105 -15.35287,9.93421 -22.75837,22.03588 -22.75837,37.56937 0,3.43182 0.18062,5.59928 1.26435,10.11483 l 14.811,-6.68301 c -1.08373,-4.69617 -1.26435,-6.68301 -1.26435,-10.11483 0,-21.49402 13.36603,-34.13756 38.653107,-36.66627 l -13.546649,53.82536 c -7.044258,30.16387 -11.740428,35.76315 -31.247608,37.20813 z m 66.830135,-100.24521 c 13.366027,0.54187 19.326553,1.6256 24.925835,4.51555 8.850478,4.69618 14.088515,14.63039 14.088515,26.73206 0,15.71411 -5.960525,34.86004 -14.088515,45.1555 -8.850478,11.37918 -19.507176,15.71411 -38.111241,15.71411 h -2.70933 l -23.119619,-0.72249 c 20.952155,-19.50717 20.952155,-19.50717 29.080145,-52.19975 z"
         id="path9262" />
      <path
         d="m 37.368155,671.45778 c -7.224879,0 -18.784687,5.23804 -29.4413847,13.18541 -11.5598077,8.66985 -19.6877973,27.45454 -19.6877973,45.51674 0,10.83732 6.1411477,17.88158 15.7141134,17.88158 5.0574158,0 10.2954536,-1.80622 18.4234436,-6.14115 9.031099,-5.05742 14.991625,-9.57297 18.242821,-13.72727 7.22488,-9.93421 13.004784,-27.63517 13.004784,-40.09809 0,-9.75358 -6.683014,-16.61722 -16.25598,-16.61722 z m -9.392343,8.48923 c 7.224879,0 11.740429,6.86364 11.740429,17.88158 0,7.76675 -2.528708,16.97847 -6.863636,25.82895 -5.238037,10.29545 -11.740429,15.89473 -18.604065,15.89473 -7.4055017,0 -12.1016735,-6.68301 -12.1016735,-16.97846 0,-20.95216 13.1854055,-42.6268 25.8289455,-42.6268 z"
         id="path9264" />
      <path
         d="m 63.558273,708.12405 c 3.431818,-8.85048 4.334928,-11.19857 5.599282,-13.36603 2.889951,-4.8768 6.141147,-6.86364 10.656697,-6.86364 l 5.960526,0.18062 c 1.444976,0.18063 3.070574,0.18063 4.696172,0.18063 3.973684,0 5.057416,-0.18063 8.308612,-1.44498 -9.392344,10.6567 -14.811004,16.79785 -16.075358,18.78469 -6.863636,9.93421 -11.198564,22.03588 -11.198564,31.42822 0,6.5024 3.973684,11.01795 9.753588,11.01795 9.392344,0 20.049042,-7.58613 35.040662,-24.56459 -1.98684,5.96052 -2.70932,9.57296 -2.70932,14.26913 0,6.68302 3.43181,10.29546 9.75358,10.29546 22.75837,0 58.16028,-44.07177 58.16028,-72.61005 0,-4.87679 -1.44497,-7.94736 -4.51555,-9.9342 -4.51554,1.08373 -6.14114,1.80622 -12.64353,4.69617 1.80622,4.69617 2.34808,7.58612 2.34808,12.64354 0,11.92105 -4.51555,26.00956 -11.92105,37.56937 -6.50239,9.75359 -15.53349,17.33971 -21.13277,17.33971 -3.79307,0 -6.14115,-3.25119 -6.14115,-8.30861 0,-7.76674 2.52871,-16.97847 14.63038,-52.92224 -4.87679,1.62559 -6.86364,2.16746 -13.36603,3.79306 -0.36124,1.26435 -1.6256,5.59928 -3.97368,13.1854 -4.33493,13.72728 -5.77991,17.33972 -9.21172,22.939 -6.50239,10.6567 -18.604068,20.41028 -25.287082,20.41028 -3.070574,0 -4.876794,-2.88995 -4.876794,-7.94737 0,-7.76674 3.070574,-17.88157 8.12799,-27.09329 4.334928,-7.76675 8.489236,-12.82417 18.604066,-22.939 v -1.80622 c 0,-0.36124 0,-0.72249 -0.18062,-1.44497 h -1.98684 c -3.07058,2.16746 -4.33493,2.5287 -7.40551,2.5287 -5.057412,0 -14.811,-0.18062 -20.590904,-0.36124 -1.80622,-0.18062 -3.793062,-0.18062 -4.876794,-0.18062 -3.070574,0 -5.057416,0.54186 -6.141148,1.80622 -2.709329,2.70933 -6.321769,11.01794 -10.476075,24.38397 z"
         id="path9266" />
      <path
         d="m 197.21825,742.2616 10.6567,-42.44617 4.51555,-2.88995 c 16.79785,-10.47607 18.78469,-11.55981 21.3134,-11.55981 1.08373,0 1.80622,0.90311 1.80622,2.34809 0,2.88995 -1.26436,8.12799 -6.68302,30.16387 -3.97368,15.89474 -4.69617,19.14593 -4.69617,22.57775 0,2.52871 0.72249,4.69617 2.70933,8.12799 8.12799,-3.61244 20.77153,-11.55981 33.41507,-20.95215 l 1.26435,-5.05741 c -17.52033,10.11483 -18.78468,10.65669 -20.5909,10.65669 -1.80622,0 -2.88995,-1.80622 -2.88995,-4.87679 0,-4.87679 0.72248,-7.94737 8.66985,-36.66627 4.51555,-16.07535 4.51555,-16.07535 4.51555,-17.15909 0,-1.98684 -1.26435,-3.07057 -3.43182,-3.07057 -3.97368,0 -4.51555,0.36124 -24.02272,12.2823 -7.22488,4.51555 -11.92105,7.4055 -14.08852,8.85047 1.80622,-6.32177 4.33493,-17.33971 4.33493,-18.78468 0,-1.44498 -0.90311,-2.34809 -2.34809,-2.34809 -1.98684,0 -14.26913,6.32177 -28.35765,14.63038 l -1.08373,4.69617 c 11.55981,-5.23803 12.28229,-5.41866 13.90789,-5.41866 1.26436,0 2.16747,1.08374 2.16747,2.52871 0,3.97369 -3.2512,18.42345 -7.94737,35.22129 l -4.15431,14.63038 c -0.36124,1.26436 -1.26435,4.69617 -2.5287,9.75359 z"
         id="path9268" />
      <path
         d="m 306.13317,722.39318 c -3.79306,2.16747 -3.79306,2.16747 -11.55981,7.04426 -5.23804,3.2512 -8.30861,4.69617 -10.29545,4.69617 -1.80622,0 -3.2512,-2.16746 -3.2512,-4.69617 v -1.6256 -1.62559 c 0,-3.2512 8.12799,-38.29187 14.811,-63.75957 7.04426,-26.73205 8.66986,-29.80263 16.61723,-29.80263 2.70933,0 4.51555,0.18062 8.85048,1.26436 l 7.76674,-9.57297 c -3.79306,-0.90311 -5.59928,-1.08373 -8.12799,-1.08373 -7.22488,0 -12.82416,2.70933 -21.67464,10.6567 -7.94737,7.04425 -9.93421,9.93421 -12.28229,16.4366 -1.44498,4.33493 -5.41866,18.96531 -7.22488,26.91267 l -13.00479,56.53469 c -0.18062,1.08373 -0.36124,2.16746 -0.36124,3.25119 0,5.59929 3.07057,11.01795 5.96052,11.01795 h 1.08374 0.54186 c 1.08373,0.54186 6.86364,-3.43182 32.15072,-21.67464 z"
         id="path9270" />
      <path
         d="m 358.87472,671.45778 c -7.22488,0 -18.78468,5.23804 -29.44138,13.18541 -11.55981,8.66985 -19.6878,27.45454 -19.6878,45.51674 0,10.83732 6.14115,17.88158 15.71412,17.88158 5.05741,0 10.29545,-1.80622 18.42344,-6.14115 9.0311,-5.05742 14.99162,-9.57297 18.24282,-13.72727 7.22488,-9.93421 13.00478,-27.63517 13.00478,-40.09809 0,-9.75358 -6.68301,-16.61722 -16.25598,-16.61722 z m -9.39234,8.48923 c 7.22488,0 11.74043,6.86364 11.74043,17.88158 0,7.76675 -2.52871,16.97847 -6.86364,25.82895 -5.23803,10.29545 -11.74043,15.89473 -18.60406,15.89473 -7.4055,0 -12.10167,-6.68301 -12.10167,-16.97846 0,-20.95216 13.1854,-42.6268 25.82894,-42.6268 z"
         id="path9272" />
      <path
         d="m 455.14617,722.03194 c -13.18541,9.0311 -16.25598,10.83732 -18.0622,10.83732 -1.26436,0 -2.16747,-1.44498 -2.16747,-3.61244 0,-4.87679 4.15431,-23.8421 10.83732,-48.58732 1.98685,-2.88995 2.34809,-3.25119 5.23804,-6.50239 -8.66985,-1.98684 -14.811,-2.70933 -22.75837,-2.70933 -7.4055,0 -11.01794,0.72249 -15.53349,3.61244 -6.50239,3.79306 -14.08852,9.39234 -16.4366,11.92105 -6.86364,7.58613 -14.26914,31.9701 -14.26914,46.60048 0,8.66985 2.88995,14.44976 7.4055,14.44976 3.97369,0 9.93421,-3.61244 32.51196,-19.86842 -1.98684,9.21172 -2.70933,13.72727 -2.70933,16.07535 0,2.52871 1.08373,3.79307 2.88995,3.79307 2.34809,0 3.79306,-0.72249 16.61723,-9.21173 6.14114,-4.1543 9.57296,-6.50239 16.25598,-11.37918 z m -31.78947,-1.26435 c -6.32177,4.69617 -9.57297,7.04425 -9.75359,7.22487 -5.96053,3.79307 -10.6567,6.14115 -13.00478,6.14115 -3.07058,0 -4.69618,-3.25119 -4.69618,-9.0311 0,-9.21172 2.70933,-21.13277 7.40551,-31.60885 4.33492,-9.93421 8.30861,-13.72727 14.44975,-13.72727 3.2512,0 9.39235,0.90311 15.35287,2.34809 -3.61244,13.00478 -4.87679,17.88158 -5.05741,18.78469 -1.08373,4.51555 -1.98684,9.0311 -3.07058,13.72727 -0.18062,0.90311 -0.72248,3.07057 -1.62559,6.14115 z"
         id="path9274" />
      <path
         d="m 531.91024,722.03194 -5.05742,3.2512 c -4.51555,3.07057 -7.58612,5.23803 -8.48923,5.7799 -3.79306,2.34808 -7.22488,3.97368 -8.12799,3.97368 -1.44498,0 -2.52871,-1.98684 -2.52871,-4.69617 0,-5.96052 14.99163,-71.34569 18.96531,-82.54425 3.97369,-10.83732 7.94737,-14.99163 14.44976,-14.99163 2.52871,0 4.15431,0.36125 8.30861,1.44498 l 6.32177,-10.11483 c -2.70933,-0.54187 -3.97368,-0.72249 -5.7799,-0.72249 -4.33493,0 -6.86364,0.72249 -10.83732,3.07057 -4.51555,2.52871 -10.6567,7.22488 -15.71411,11.92106 -8.85048,8.48923 -9.39235,9.75358 -14.08852,28.35765 -0.18062,0.72249 -0.72249,3.25119 -1.44498,5.7799 -3.25119,-0.72249 -5.7799,-1.08373 -7.4055,-1.08373 -5.59928,0 -21.13277,9.75359 -28.35765,17.70096 -6.14115,7.04425 -14.26914,32.51196 -14.26914,44.97487 0,6.86364 3.61244,13.9079 6.86364,13.9079 3.43182,0 11.74043,-5.05742 30.34449,-18.60407 -0.90311,4.87679 -1.44497,9.57297 -1.44497,13.00478 0,3.61244 1.26435,5.59929 3.97368,5.59929 2.88995,0 18.60407,-9.57297 33.59569,-20.41029 z m -35.40191,0.72249 c -15.35287,10.83732 -19.32655,13.1854 -21.85526,13.1854 -2.52871,0 -3.79306,-2.52871 -3.79306,-7.94737 0,-5.96052 1.08373,-12.64353 3.25119,-20.77152 5.05742,-18.24283 12.2823,-27.27393 21.49402,-27.27393 3.43182,0 5.7799,1.26436 9.39234,4.8768 z"
         id="path9276" />
      <path
         d="m 532.99345,763.39438 c 21.13277,-18.24283 24.38397,-23.66149 28.53827,-48.94856 -6.50239,1.98684 -6.68301,2.16746 -13.00478,3.97368 -1.6256,20.22966 -6.68302,30.70574 -20.41029,42.98803 z"
         id="path9278" />
      <path
         d="m 610.11875,727.26998 -7.94737,18.78468 c 6.32177,8.48924 14.63038,12.46292 26.55144,12.46292 27.63516,0 54.72846,-22.39713 54.72846,-45.51674 0,-7.4055 -2.70933,-11.19856 -16.25598,-21.67464 -13.18541,-10.29545 -15.35287,-13.36603 -15.35287,-21.13277 0,-11.92105 8.85048,-21.85526 19.50718,-21.85526 7.58612,0 10.29545,3.25119 12.28229,14.811 l 11.92105,-8.48923 c -1.08373,-9.75359 -6.50239,-14.81101 -16.07535,-14.81101 -18.60407,0 -39.73684,20.41029 -39.73684,38.47249 0,8.30861 3.61244,13.90789 14.26913,22.2165 12.2823,9.75359 15.5335,14.63038 15.5335,22.939 0,14.26913 -13.54665,26.55143 -29.26077,26.55143 -7.76674,0 -15.71411,-3.43182 -20.5909,-8.85048 -3.79307,-4.15431 -5.23804,-7.94737 -6.68302,-15.89473 z"
         id="path9280" />
      <path
         d="m 746.66867,671.45778 c -7.22488,0 -18.78469,5.23804 -29.44139,13.18541 -11.5598,8.66985 -19.68779,27.45454 -19.68779,45.51674 0,10.83732 6.14114,17.88158 15.71411,17.88158 5.05742,0 10.29545,-1.80622 18.42344,-6.14115 9.0311,-5.05742 14.99163,-9.57297 18.24283,-13.72727 7.22488,-9.93421 13.00478,-27.63517 13.00478,-40.09809 0,-9.75358 -6.68301,-16.61722 -16.25598,-16.61722 z m -9.39234,8.48923 c 7.22488,0 11.74043,6.86364 11.74043,17.88158 0,7.76675 -2.52871,16.97847 -6.86364,25.82895 -5.23804,10.29545 -11.74043,15.89473 -18.60407,15.89473 -7.4055,0 -12.10167,-6.68301 -12.10167,-16.97846 0,-20.95216 13.18541,-42.6268 25.82895,-42.6268 z"
         id="path9282" />
      <path
         d="m 770.33007,747.49964 13.90789,-5.23804 13.54665,-51.47727 c 6.14115,-4.69617 10.29546,-6.32177 15.17225,-6.32177 3.97369,0 6.32177,1.44498 9.57297,5.59929 l 5.41866,-17.15909 c -3.2512,-1.08374 -4.8768,-1.44498 -6.68302,-1.44498 -3.43181,0 -7.04425,1.6256 -11.92105,5.05742 -2.34808,1.80622 -4.69617,3.61244 -7.22488,5.23803 -1.08373,0.90311 -2.34808,1.80622 -3.43182,2.52871 l 2.16747,-10.83732 c 0,-1.08373 -1.08373,-1.98684 -2.34809,-1.98684 -2.34808,0 -18.24282,7.76675 -29.26076,14.26914 l -0.54187,4.87679 c 10.47608,-5.05741 10.6567,-5.23804 13.00479,-5.23804 2.34808,0 3.43181,1.26436 3.43181,3.79307 0,2.5287 -1.80622,10.83732 -3.97368,18.78468 z"
         id="path9284" />
      <path
         d="m 875.99364,722.93505 c -13.72728,8.30861 -19.50718,11.19856 -22.03589,11.19856 -2.34808,0 -5.23804,-4.51555 -5.23804,-8.48923 0,-2.52871 0.18063,-3.07057 4.15431,-20.22966 0.90311,-3.2512 1.6256,-6.68302 2.34809,-10.11484 0.18062,-0.54186 0.90311,-3.43181 1.26435,-5.05741 6.14115,-0.18062 11.74043,-0.54187 17.88158,-0.90311 l 6.86363,-5.23804 h -23.11961 c 0.90311,-4.15431 1.26435,-5.41866 1.80622,-8.12799 0.54186,-1.80622 1.80622,-6.68301 4.33493,-16.4366 l 1.08373,-4.69617 -3.07058,1.6256 c -1.08373,0.36124 -2.5287,1.08373 -4.51555,1.98684 -1.26435,0.72249 -2.70933,1.26435 -4.1543,1.98684 -0.72249,0.36124 -1.44498,0.72249 -2.52871,1.08373 l -1.6256,7.4055 -1.98684,8.66986 -1.44498,6.50239 c -1.62559,0.18062 -2.70933,0.18062 -3.25119,0.18062 h -4.33493 c -0.36124,0 -1.26435,0 -2.70933,0.18062 -0.90311,0.54187 -1.6256,1.08374 -1.80622,1.08374 -0.54187,0.36124 -1.6256,1.26435 -3.43182,2.70933 -0.36124,0.18062 -1.26435,1.08373 -2.70933,1.98684 h 4.33493 8.30861 3.97369 l -1.80622,7.94737 c -7.76675,31.97009 -7.76675,31.97009 -7.76675,37.74999 0,5.77991 3.79306,12.10168 7.22488,12.10168 3.97368,0 16.25598,-7.40551 33.59569,-20.59091 z"
         id="path9286" />
      <path
         d="m 996.82952,722.03194 c -13.18541,9.0311 -16.25598,10.83732 -18.0622,10.83732 -1.26436,0 -2.16747,-1.44498 -2.16747,-3.61244 0,-4.87679 4.15431,-23.8421 10.83732,-48.58732 1.98685,-2.88995 2.34809,-3.25119 5.23804,-6.50239 -8.66985,-1.98684 -14.811,-2.70933 -22.75837,-2.70933 -7.4055,0 -11.01794,0.72249 -15.53349,3.61244 -6.50239,3.79306 -14.08852,9.39234 -16.4366,11.92105 -6.86364,7.58613 -14.26914,31.9701 -14.26914,46.60048 0,8.66985 2.88995,14.44976 7.4055,14.44976 3.97369,0 9.93421,-3.61244 32.51196,-19.86842 -1.98684,9.21172 -2.70933,13.72727 -2.70933,16.07535 0,2.52871 1.08373,3.79307 2.88995,3.79307 2.34809,0 3.79306,-0.72249 16.61723,-9.21173 6.14114,-4.1543 9.57296,-6.50239 16.25598,-11.37918 z m -31.78947,-1.26435 c -6.32177,4.69617 -9.57297,7.04425 -9.75359,7.22487 -5.96053,3.79307 -10.6567,6.14115 -13.00478,6.14115 -3.07058,0 -4.69618,-3.25119 -4.69618,-9.0311 0,-9.21172 2.70933,-21.13277 7.4055,-31.60885 4.33493,-9.93421 8.30862,-13.72727 14.44976,-13.72727 3.2512,0 9.39235,0.90311 15.35287,2.34809 -3.61244,13.00478 -4.87679,17.88158 -5.05741,18.78469 -1.08373,4.51555 -1.98684,9.0311 -3.07058,13.72727 -0.18062,0.90311 -0.72248,3.07057 -1.62559,6.14115 z"
         id="path9288" />
      <path
         d="m 1013.4465,742.2616 10.6567,-42.44617 4.5155,-2.88995 c 16.7979,-10.47607 18.7847,-11.55981 21.3134,-11.55981 1.0837,0 1.8062,0.90311 1.8062,2.34809 0,2.88995 -1.2643,8.12799 -6.683,30.16387 -3.9737,15.89474 -4.6962,19.14593 -4.6962,22.57775 0,2.52871 0.7225,4.69617 2.7094,8.12799 8.128,-3.61244 20.7715,-11.55981 33.415,-20.95215 l 1.2644,-5.05741 c -17.5203,10.11483 -18.7847,10.65669 -20.5909,10.65669 -1.8062,0 -2.89,-1.80622 -2.89,-4.87679 0,-4.87679 0.7225,-7.94737 8.6699,-36.66627 4.5155,-16.07535 4.5155,-16.07535 4.5155,-17.15909 0,-1.98684 -1.2643,-3.07057 -3.4318,-3.07057 -3.9737,0 -4.5155,0.36124 -24.0227,12.2823 -7.2249,4.51555 -11.9211,7.4055 -14.0885,8.85047 1.8062,-6.32177 4.3349,-17.33971 4.3349,-18.78468 0,-1.44498 -0.9031,-2.34809 -2.3481,-2.34809 -1.9868,0 -14.2691,6.32177 -28.35763,14.63038 l -1.08373,4.69617 c 11.55976,-5.23803 12.28226,-5.41866 13.90786,-5.41866 1.2644,0 2.1675,1.08374 2.1675,2.52871 0,3.97369 -3.2512,18.42345 -7.9474,35.22129 l -4.1543,14.63038 c -0.3612,1.26436 -1.2643,4.69617 -2.52868,9.75359 z"
         id="path9290" />
      <path
         d="m 1156.6795,722.03194 -5.0574,3.2512 c -4.5155,3.07057 -7.5861,5.23803 -8.4892,5.7799 -3.7931,2.34808 -7.2249,3.97368 -8.128,3.97368 -1.445,0 -2.5287,-1.98684 -2.5287,-4.69617 0,-5.96052 14.9916,-71.34569 18.9653,-82.54425 3.9737,-10.83732 7.9474,-14.99163 14.4497,-14.99163 2.5288,0 4.1544,0.36125 8.3087,1.44498 l 6.3217,-10.11483 c -2.7093,-0.54187 -3.9737,-0.72249 -5.7799,-0.72249 -4.3349,0 -6.8636,0.72249 -10.8373,3.07057 -4.5155,2.52871 -10.6567,7.22488 -15.7141,11.92106 -8.8505,8.48923 -9.3924,9.75358 -14.0885,28.35765 -0.1806,0.72249 -0.7225,3.25119 -1.445,5.7799 -3.2512,-0.72249 -5.7799,-1.08373 -7.4055,-1.08373 -5.5993,0 -21.1328,9.75359 -28.3577,17.70096 -6.1411,7.04425 -14.2691,32.51196 -14.2691,44.97487 0,6.86364 3.6124,13.9079 6.8636,13.9079 3.4319,0 11.7405,-5.05742 30.3445,-18.60407 -0.9031,4.87679 -1.4449,9.57297 -1.4449,13.00478 0,3.61244 1.2643,5.59929 3.9736,5.59929 2.89,0 18.6041,-9.57297 33.5957,-20.41029 z m -35.4019,0.72249 c -15.3529,10.83732 -19.3265,13.1854 -21.8552,13.1854 -2.5288,0 -3.7931,-2.52871 -3.7931,-7.94737 0,-5.96052 1.0837,-12.64353 3.2512,-20.77152 5.0574,-18.24283 12.2823,-27.27393 21.494,-27.27393 3.4318,0 5.7799,1.26436 9.3923,4.8768 z"
         id="path9292" />
      <path
         d="m 1215.0201,745.69342 c 43.5299,0 46.2393,-0.36124 60.8696,-8.48923 l 0.3613,-1.44498 c -8.128,1.08373 -19.3266,1.80622 -29.2608,1.80622 -1.445,0 -4.5155,-0.18062 -8.3086,-0.36124 13.9079,-11.74043 18.4234,-18.24282 21.494,-31.9701 l 14.0885,-56.53468 c 23.4809,1.98684 23.6615,1.98684 27.4546,1.98684 8.4892,0 9.7536,-1.80622 14.0885,-19.50717 l -2.3481,-2.70933 c -7.4055,12.64354 -8.3086,13.54665 -14.811,13.54665 -1.8062,0 -5.7799,-0.18063 -11.3792,-0.36125 -26.3708,-1.26435 -29.2607,-1.44497 -35.5825,-1.44497 -31.6089,0 -55.0897,17.15909 -55.0897,40.2787 0,5.96053 1.2643,10.83732 4.5155,17.15909 l 13.5467,-8.85048 c -3.4318,-8.66985 -4.1543,-11.55981 -4.1543,-16.61722 0,-10.29545 4.6961,-17.88158 13.5466,-22.03588 4.6962,-2.16747 10.8373,-3.07058 20.9522,-3.07058 3.9737,0 4.6961,0 16.256,0.90311 l -14.6304,58.88277 c -6.5024,26.55143 -9.9342,31.06698 -25.2871,31.78947 z"
         id="path9294" />
      <path
         d="m 1287.2684,747.49964 13.9079,-5.23804 13.5467,-51.47727 c 6.1411,-4.69617 10.2954,-6.32177 15.1722,-6.32177 3.9737,0 6.3218,1.44498 9.573,5.59929 l 5.4186,-17.15909 c -3.2512,-1.08374 -4.8768,-1.44498 -6.683,-1.44498 -3.4318,0 -7.0442,1.6256 -11.921,5.05742 -2.3481,1.80622 -4.6962,3.61244 -7.2249,5.23803 -1.0837,0.90311 -2.3481,1.80622 -3.4318,2.52871 l 2.1674,-10.83732 c 0,-1.08373 -1.0837,-1.98684 -2.348,-1.98684 -2.3481,0 -18.2429,7.76675 -29.2608,14.26914 l -0.5419,4.87679 c 10.4761,-5.05741 10.6567,-5.23804 13.0048,-5.23804 2.3481,0 3.4318,1.26436 3.4318,3.79307 0,2.5287 -1.8062,10.83732 -3.9737,18.78468 z"
         id="path9296" />
      <path
         d="m 1410.8134,722.03194 c -13.1854,9.0311 -16.256,10.83732 -18.0622,10.83732 -1.2643,0 -2.1675,-1.44498 -2.1675,-3.61244 0,-4.87679 4.1543,-23.8421 10.8374,-48.58732 1.9868,-2.88995 2.348,-3.25119 5.238,-6.50239 -8.6699,-1.98684 -14.811,-2.70933 -22.7584,-2.70933 -7.4055,0 -11.0179,0.72249 -15.5335,3.61244 -6.5024,3.79306 -14.0885,9.39234 -16.4366,11.92105 -6.8636,7.58613 -14.2691,31.9701 -14.2691,46.60048 0,8.66985 2.8899,14.44976 7.4055,14.44976 3.9737,0 9.9342,-3.61244 32.512,-19.86842 -1.9869,9.21172 -2.7094,13.72727 -2.7094,16.07535 0,2.52871 1.0838,3.79307 2.89,3.79307 2.3481,0 3.793,-0.72249 16.6172,-9.21173 6.1412,-4.1543 9.573,-6.50239 16.256,-11.37918 z m -31.7895,-1.26435 c -6.3217,4.69617 -9.5729,7.04425 -9.7536,7.22487 -5.9605,3.79307 -10.6567,6.14115 -13.0047,6.14115 -3.0706,0 -4.6962,-3.25119 -4.6962,-9.0311 0,-9.21172 2.7093,-21.13277 7.4055,-31.60885 4.3349,-9.93421 8.3086,-13.72727 14.4498,-13.72727 3.2511,0 9.3923,0.90311 15.3528,2.34809 -3.6124,13.00478 -4.8768,17.88158 -5.0574,18.78469 -1.0837,4.51555 -1.9868,9.0311 -3.0706,13.72727 -0.1806,0.90311 -0.7225,3.07057 -1.6256,6.14115 z"
         id="path9298" />
      <path
         d="m 1466.9866,722.75443 c -13.7273,9.93421 -23.4809,14.99162 -29.2608,14.99162 -6.5024,0 -10.2954,-5.05741 -10.2954,-13.72727 0,-8.85048 2.1674,-20.22966 5.5992,-28.7189 3.7931,-9.57296 8.3086,-14.44976 13.5467,-14.44976 4.3349,0 6.683,3.43182 7.5861,11.37919 l 10.4761,-6.14115 c 0.1806,-0.90311 0.1806,-1.80622 0.1806,-2.16746 0,-7.76675 -3.9737,-12.46292 -10.2954,-12.46292 -3.4319,0 -5.0575,0.72249 -11.7405,5.05742 -13.5466,8.48923 -16.4366,11.19856 -20.4103,18.60406 -5.0574,9.75359 -8.8504,25.10646 -8.8504,36.30502 0,10.6567 4.6961,16.61723 13.1854,16.61723 8.6698,0 23.1196,-7.04426 39.9174,-19.50718 z"
         id="path9300" />
      <path
         d="m 1474.3917,747.68026 c 1.9869,-0.72249 3.7931,-1.44497 4.3349,-1.6256 1.0838,-0.36124 2.89,-0.90311 4.8768,-1.62559 0.5419,-0.18063 2.1675,-0.72249 3.9737,-1.26436 l 7.0443,-32.15071 4.1543,-2.52871 c 3.6124,8.30861 4.3349,9.93421 10.1148,23.48086 7.7668,18.42344 12.4629,25.82894 19.8684,31.60885 7.7668,5.96052 18.9654,9.75359 28.5383,9.75359 8.3086,0 14.0885,-1.80622 19.6878,-6.32177 l -3.6124,-13.00479 c -5.7799,9.75359 -11.018,13.54665 -18.6041,13.54665 -5.9605,0 -10.8373,-2.88995 -16.4366,-9.57296 -4.8768,-5.77991 -4.8768,-5.77991 -24.2033,-46.7811 l -5.2381,-11.19856 12.1017,-11.01795 c 7.2249,-6.32177 9.2117,-7.58612 12.6435,-7.58612 3.0706,0 5.2381,1.44498 8.128,5.23804 l 9.2117,-13.72727 c -3.6124,-2.70933 -6.1411,-3.61244 -10.1148,-3.61244 -4.8768,0 -7.9474,1.62559 -13.366,6.68301 -5.5993,5.41866 -5.7799,5.59928 -7.7668,7.4055 l -23.3002,20.77153 6.8636,-27.63516 c 5.7799,-23.84211 7.7668,-29.62201 10.8374,-34.67943 3.2512,-5.23803 7.9473,-7.76674 14.0885,-7.76674 1.6256,0 3.0705,0.18062 6.3217,0.72249 l 7.2249,-10.47608 c -2.3481,-0.36124 -3.4318,-0.54187 -5.238,-0.54187 -6.5024,0 -10.6567,1.44498 -16.4366,5.59929 -11.5598,8.12799 -19.6878,16.07535 -22.0359,21.31339 -1.8062,3.97369 -5.238,15.89474 -7.5861,26.37081 z"
         id="path9302" />
      <path
         d="m 102.03055,960.81421 c 5.7799,0.72249 13.36602,1.26436 19.86842,1.26436 12.64353,0 19.68779,-3.43182 30.16387,-14.44976 10.47607,-11.37919 11.19856,-13.18541 17.52033,-42.62679 6.32177,-28.89952 9.75359,-42.26555 15.89474,-62.67583 -2.34809,1.26435 -4.33493,2.34808 -5.05742,2.70932 l -6.32177,3.07058 c -1.6256,0.72249 -2.70933,1.26435 -3.97368,1.98684 l -1.6256,6.50239 -3.79306,14.81101 -3.61244,14.811 -1.98684,7.76675 c -18.0622,11.19856 -18.96531,11.74042 -22.21651,11.74042 -2.16746,0 -3.79306,-2.34808 -3.79306,-5.7799 0,-5.05741 1.44497,-11.55981 7.76674,-35.40191 4.33493,-18.0622 4.33493,-18.0622 4.33493,-19.32655 0,-1.26436 -0.90311,-2.16747 -1.98684,-2.16747 -1.98684,0 -13.36603,5.96053 -28.7189,14.99163 l -0.54186,4.87679 c 9.0311,-4.51555 10.47607,-5.05741 12.46292,-5.05741 1.80622,0 2.70933,0.90311 2.70933,2.70933 0,3.25119 -1.26436,8.48923 -5.59929,24.56459 -4.51555,16.4366 -5.23803,19.50717 -5.23803,24.38397 0,5.96052 2.70933,10.11483 6.32177,10.11483 2.16746,0 4.69617,-1.26436 10.83731,-5.05742 15.5335,-9.75359 15.5335,-9.75359 23.11962,-15.17224 l -1.98684,9.57296 c -5.41866,25.82895 -6.32177,29.08014 -8.48924,33.77631 -3.07057,6.32177 -8.66985,9.0311 -18.78468,9.0311 -5.41866,0 -9.39235,-0.72248 -20.04904,-3.25119 z"
         id="path9304" />
      <path
         d="m 237.85816,843.04867 c -7.22488,0 -18.78469,5.23804 -29.44138,13.18541 -11.55981,8.66985 -19.6878,27.45454 -19.6878,45.51674 0,10.83732 6.14115,17.88158 15.71411,17.88158 5.05742,0 10.29546,-1.80622 18.42345,-6.14115 9.03109,-5.05742 14.99162,-9.57296 18.24282,-13.72727 7.22488,-9.93421 13.00478,-27.63517 13.00478,-40.09808 0,-9.75359 -6.68301,-16.61723 -16.25598,-16.61723 z m -9.39234,8.48924 c 7.22488,0 11.74043,6.86363 11.74043,17.88157 0,7.76675 -2.52871,16.97847 -6.86364,25.82895 -5.23804,10.29545 -11.74043,15.89473 -18.60406,15.89473 -7.40551,0 -12.10168,-6.68301 -12.10168,-16.97846 0,-20.95215 13.18541,-42.62679 25.82895,-42.62679 z"
         id="path9306" />
      <path
         d="m 304.86884,893.44221 c -13.72727,9.39234 -20.04904,13.1854 -22.39713,13.1854 -1.98684,0 -3.43181,-2.5287 -3.43181,-5.96052 0,-4.15431 1.44497,-11.37919 4.51555,-22.93899 1.80622,-6.86364 3.61244,-13.72728 3.79306,-14.81101 1.6256,-6.86363 2.88995,-11.37918 3.25119,-12.64354 0.54187,-1.98684 0.90311,-3.79306 0.90311,-4.87679 0,-1.44498 -0.90311,-2.34809 -2.16746,-2.34809 -1.80622,0 -14.811,7.04426 -27.99641,15.17225 l -1.26435,4.87679 c 7.76674,-3.97368 11.01794,-5.23803 13.1854,-5.23803 1.44498,0 2.52871,1.26435 2.52871,3.43181 0,2.52871 -1.6256,9.57297 -5.05742,22.39713 -4.51555,16.97847 -5.59928,21.85526 -5.59928,27.0933 0,5.05742 2.16747,8.85048 5.05742,8.85048 2.70933,0 5.7799,-1.6256 14.99162,-7.58613 14.08852,-9.03109 14.08852,-9.03109 18.60407,-12.10167 -1.6256,6.14115 -2.52871,12.2823 -2.52871,15.53349 0,2.52871 1.26436,4.15431 3.2512,4.15431 3.61244,0 20.5909,-9.93421 33.05382,-19.32655 l 1.26436,-5.41866 c -12.82417,7.58612 -18.78469,10.83731 -20.77153,10.83731 -1.26436,0 -1.98685,-1.26435 -1.98685,-4.33492 0,-9.21172 6.5024,-35.94378 14.44976,-59.06339 -2.34808,1.26435 -3.97368,2.16746 -4.69617,2.5287 -2.16746,1.08373 -4.33493,2.16747 -6.68301,3.07058 -0.54187,0.36124 -1.6256,0.90311 -3.61244,1.98684 -1.26436,4.51555 -4.15431,16.61722 -8.85048,36.30502 z"
         id="path9308" />
      <path
         d="m 344.60553,919.09053 13.90789,-5.23804 13.54665,-51.47726 c 6.14115,-4.69618 10.29546,-6.32177 15.17225,-6.32177 3.97369,0 6.32177,1.44497 9.57297,5.59928 l 5.41866,-17.15909 c -3.2512,-1.08373 -4.8768,-1.44498 -6.68302,-1.44498 -3.43181,0 -7.04425,1.6256 -11.92105,5.05742 -2.34808,1.80622 -4.69617,3.61244 -7.22488,5.23804 -1.08373,0.90311 -2.34808,1.80622 -3.43182,2.5287 l 2.16747,-10.83732 c 0,-1.08373 -1.08373,-1.98684 -2.34809,-1.98684 -2.34808,0 -18.24282,7.76675 -29.26076,14.26914 l -0.54187,4.87679 c 10.47608,-5.05741 10.6567,-5.23803 13.00479,-5.23803 2.34808,0 3.43181,1.26435 3.43181,3.79306 0,2.52871 -1.80622,10.83732 -3.97368,18.78469 z"
         id="path9310" />
      <path
         d="m 408.90668,954.85369 c -1.44498,1.98684 -3.07057,3.97368 -4.51555,6.14115 3.97368,0.54186 5.59928,0.72248 8.85048,0.72248 5.96052,0 10.6567,-0.90311 13.54665,-2.5287 5.23804,-2.88996 14.44976,-11.74043 19.32655,-18.0622 5.59928,-7.58613 12.10167,-22.939 16.25598,-39.55622 6.86364,-25.82895 10.29545,-39.19497 10.6567,-40.45933 1.6256,0.18062 2.34808,0.18062 3.07057,0.18062 l 9.39235,-0.36124 c 0.54186,0 1.62559,0 3.43181,0.18062 l 7.58613,-5.7799 c -5.23804,-0.18062 -7.22488,-0.18062 -11.55981,-0.18062 -3.97368,0 -5.59928,0 -10.47608,0.18062 11.74043,-46.05861 14.26914,-51.47727 25.10646,-51.47727 3.2512,0 5.77991,0.36124 12.10167,1.44498 l 8.30862,-9.75359 c -3.61244,-0.90311 -5.05742,-1.08373 -8.66986,-1.08373 -11.01794,0 -18.24282,3.79306 -30.52512,15.71411 -10.11483,9.93421 -12.46291,14.99163 -19.50717,45.1555 -1.80622,-0.18062 -2.70933,-0.18062 -3.61244,-0.18062 l -8.85048,0.36124 c -0.36124,0 -1.26435,0 -2.70933,-0.18062 -1.08373,0.72249 -2.16746,1.44497 -2.52871,1.6256 -1.98684,1.08373 -2.34808,1.44497 -3.97368,2.16746 -0.54187,0.36124 -1.98684,1.08373 -3.61244,1.98684 h 4.51555 l 12.64354,0.18062 c 1.08373,0 3.07057,0 6.68301,-0.18062 -2.88995,11.01794 -3.97368,15.71412 -7.4055,31.60885 -10.83732,49.85167 -14.99162,57.79904 -30.34449,57.79904 -2.70933,0 -4.8768,-0.18062 -9.57297,-0.90311 z"
         id="path9312" />
      <path
         d="m 564.4219,893.62283 c -13.1854,9.0311 -16.25598,10.83732 -18.0622,10.83732 -1.26435,0 -2.16746,-1.44497 -2.16746,-3.61244 0,-4.87679 4.1543,-23.8421 10.83732,-48.58732 1.98684,-2.88995 2.34808,-3.25119 5.23804,-6.50239 -8.66986,-1.98684 -14.81101,-2.70933 -22.75838,-2.70933 -7.4055,0 -11.01794,0.72249 -15.53349,3.61244 -6.50239,3.79306 -14.08851,9.39235 -16.4366,11.92105 -6.86363,7.58613 -14.26914,31.9701 -14.26914,46.60048 0,8.66985 2.88996,14.44976 7.40551,14.44976 3.97368,0 9.93421,-3.61244 32.51195,-19.86842 -1.98684,9.21172 -2.70933,13.72727 -2.70933,16.07536 0,2.5287 1.08374,3.79306 2.88996,3.79306 2.34808,0 3.79306,-0.72249 16.61722,-9.21172 6.14115,-4.15431 9.57297,-6.50239 16.25598,-11.37919 z m -31.78947,-1.26435 c -6.32177,4.69617 -9.57297,7.04426 -9.75359,7.22488 -5.96052,3.79306 -10.65669,6.14114 -13.00478,6.14114 -3.07057,0 -4.69617,-3.25119 -4.69617,-9.03109 0,-9.21173 2.70933,-21.13278 7.4055,-31.60885 4.33493,-9.93421 8.30861,-13.72728 14.44976,-13.72728 3.25119,0 9.39234,0.90311 15.35287,2.34809 -3.61244,13.00478 -4.8768,17.88158 -5.05742,18.78469 -1.08373,4.51555 -1.98684,9.0311 -3.07057,13.72727 -0.18062,0.90311 -0.72249,3.07057 -1.6256,6.14115 z"
         id="path9314" />
      <path
         d="m 571.64632,878.45058 c 5.23804,-16.25598 6.5024,-17.88157 13.18541,-18.24282 10.11483,-0.18062 12.82416,-0.36124 17.33971,-1.44497 -10.6567,11.92105 -13.54665,15.53349 -16.07536,19.68779 -5.23803,8.66986 -8.30861,18.96531 -8.30861,27.81579 0,8.30861 3.79306,13.36603 9.75359,13.36603 14.26914,0 33.05382,-14.99163 45.51674,-36.30502 7.22488,-12.10168 11.92105,-26.19019 11.92105,-35.22129 0,-4.33493 -1.26435,-6.68301 -4.69617,-9.75359 -4.33493,1.26436 -6.32177,1.98684 -12.10167,4.8768 2.16746,4.87679 2.88995,7.58612 2.88995,12.64353 0,11.01795 -3.2512,22.39713 -9.39234,32.87321 -7.04426,11.92105 -16.97847,20.5909 -23.66149,20.5909 -4.1543,0 -7.22488,-4.69617 -7.22488,-10.83731 0,-8.30862 2.88996,-18.24283 7.94737,-27.27393 3.61244,-6.50239 7.22488,-11.37918 15.53349,-20.95215 v -1.26435 c 0,-0.36125 0,-1.08373 -0.18062,-1.98684 h -1.80622 c -1.98684,2.5287 -3.97368,3.07057 -9.57296,3.07057 -2.34809,0 -4.51555,0 -10.11484,-0.36124 -4.51555,-0.18063 -7.58612,-0.36125 -8.85047,-0.36125 -3.61244,0 -5.23804,0.54187 -6.32177,1.98684 -2.34809,2.88996 -5.23804,10.29546 -8.85048,23.30024 z"
         id="path9316" />
      <path
         d="m 696.27506,843.04867 c -7.22488,0 -18.78469,5.23804 -29.44138,13.18541 -11.55981,8.66985 -19.6878,27.45454 -19.6878,45.51674 0,10.83732 6.14115,17.88158 15.71411,17.88158 5.05742,0 10.29546,-1.80622 18.42345,-6.14115 9.0311,-5.05742 14.99162,-9.57296 18.24282,-13.72727 7.22488,-9.93421 13.00478,-27.63517 13.00478,-40.09808 0,-9.75359 -6.68301,-16.61723 -16.25598,-16.61723 z m -9.39234,8.48924 c 7.22488,0 11.74043,6.86363 11.74043,17.88157 0,7.76675 -2.52871,16.97847 -6.86364,25.82895 -5.23804,10.29545 -11.74043,15.89473 -18.60406,15.89473 -7.40551,0 -12.10168,-6.68301 -12.10168,-16.97846 0,-20.95215 13.18541,-42.62679 25.82895,-42.62679 z"
         id="path9318" />
      <path
         d="m 763.28574,893.44221 c -13.72727,9.39234 -20.04904,13.1854 -22.39713,13.1854 -1.98684,0 -3.43181,-2.5287 -3.43181,-5.96052 0,-4.15431 1.44497,-11.37919 4.51555,-22.93899 1.80622,-6.86364 3.61244,-13.72728 3.79306,-14.81101 1.6256,-6.86363 2.88995,-11.37918 3.25119,-12.64354 0.54187,-1.98684 0.90311,-3.79306 0.90311,-4.87679 0,-1.44498 -0.90311,-2.34809 -2.16746,-2.34809 -1.80622,0 -14.811,7.04426 -27.99641,15.17225 l -1.26435,4.87679 c 7.76674,-3.97368 11.01794,-5.23803 13.1854,-5.23803 1.44498,0 2.52871,1.26435 2.52871,3.43181 0,2.52871 -1.6256,9.57297 -5.05742,22.39713 -4.51554,16.97847 -5.59928,21.85526 -5.59928,27.0933 0,5.05742 2.16747,8.85048 5.05742,8.85048 2.70933,0 5.7799,-1.6256 14.99162,-7.58613 14.08852,-9.03109 14.08852,-9.03109 18.60407,-12.10167 -1.6256,6.14115 -2.52871,12.2823 -2.52871,15.53349 0,2.52871 1.26436,4.15431 3.2512,4.15431 3.61244,0 20.59091,-9.93421 33.05382,-19.32655 l 1.26436,-5.41866 c -12.82416,7.58612 -18.78469,10.83731 -20.77153,10.83731 -1.26436,0 -1.98684,-1.26435 -1.98684,-4.33492 0,-9.21172 6.50239,-35.94378 14.44975,-59.06339 -2.34808,1.26435 -3.97368,2.16746 -4.69617,2.5287 -2.16746,1.08373 -4.33492,2.16747 -6.68301,3.07058 -0.54187,0.36124 -1.6256,0.90311 -3.61244,1.98684 -1.26435,4.51555 -4.15431,16.61722 -8.85048,36.30502 z"
         id="path9320" />
      <path
         d="m 803.02246,919.09053 13.9079,-5.23804 13.54664,-51.47726 c 6.14115,-4.69618 10.29546,-6.32177 15.17225,-6.32177 3.97369,0 6.32177,1.44497 9.57297,5.59928 l 5.41866,-17.15909 c -3.2512,-1.08373 -4.8768,-1.44498 -6.68302,-1.44498 -3.43181,0 -7.04425,1.6256 -11.92105,5.05742 -2.34808,1.80622 -4.69617,3.61244 -7.22488,5.23804 -1.08373,0.90311 -2.34808,1.80622 -3.43182,2.5287 l 2.16747,-10.83732 c 0,-1.08373 -1.08373,-1.98684 -2.34809,-1.98684 -2.34808,0 -18.24282,7.76675 -29.26076,14.26914 l -0.54187,4.87679 c 10.47608,-5.05741 10.6567,-5.23803 13.00479,-5.23803 2.34808,0 3.43182,1.26435 3.43182,3.79306 0,2.52871 -1.80622,10.83732 -3.97369,18.78469 z"
         id="path9322" />
      <path
         d="m 893.69439,806.02116 c -5.05742,3.97369 -9.21172,7.22488 -12.46292,9.39235 1.26436,3.79306 2.88995,6.86363 6.86364,12.64354 5.05741,-4.51555 5.59928,-5.05742 11.74043,-9.75359 -0.54187,-1.08373 -0.90311,-1.80622 -2.34809,-4.15431 -1.08373,-2.16746 -1.26435,-2.16746 -2.70933,-5.7799 z m 6.86364,90.311 -3.07058,1.6256 c -12.46292,6.86363 -14.63038,7.76674 -16.79784,7.76674 -1.98685,0 -3.2512,-1.98684 -3.2512,-5.05741 0,-3.07057 0,-3.07057 5.96053,-26.91268 6.68301,-27.45454 6.68301,-27.45454 6.68301,-28.89952 0,-1.08373 -0.90311,-1.80622 -2.16746,-1.80622 -3.07058,0 -13.72728,5.96053 -28.53828,15.89474 l -0.36124,5.05741 c 11.01794,-5.96052 11.5598,-6.14114 13.1854,-6.14114 1.44498,0 2.16747,1.08373 2.16747,3.07057 0,2.52871 -0.54187,5.05742 -3.2512,15.35287 -8.48923,31.42823 -8.48923,31.42823 -8.48923,36.1244 0,4.33493 1.62559,7.22488 4.33492,7.22488 3.07058,0 7.94737,-2.34809 17.52034,-8.48924 3.43182,-2.16746 6.86363,-4.33492 10.29545,-6.68301 1.6256,-0.90311 2.88995,-1.80622 5.05742,-3.07057 z"
         id="path9324" />
      <path
         d="m 953.29961,894.52594 c -13.72727,8.30861 -19.50717,11.19856 -22.03588,11.19856 -2.34809,0 -5.23804,-4.51554 -5.23804,-8.48923 0,-2.52871 0.18062,-3.07057 4.15431,-20.22966 0.90311,-3.2512 1.6256,-6.68302 2.34808,-10.11483 0.18063,-0.54187 0.90311,-3.43182 1.26436,-5.05742 6.14114,-0.18062 11.74043,-0.54187 17.88157,-0.90311 l 6.86364,-5.23804 h -23.11962 c 0.90311,-4.1543 1.26436,-5.41866 1.80622,-8.12799 0.54187,-1.80622 1.80622,-6.68301 4.33493,-16.4366 l 1.08373,-4.69617 -3.07057,1.6256 c -1.08373,0.36124 -2.52871,1.08373 -4.51555,1.98684 -1.26435,0.72249 -2.70933,1.26435 -4.1543,1.98684 -0.72249,0.36125 -1.44498,0.72249 -2.52871,1.08373 l -1.6256,7.40551 -1.98684,8.66985 -1.44498,6.50239 c -1.6256,0.18062 -2.70933,0.18062 -3.25119,0.18062 h -4.33493 c -0.36125,0 -1.26436,0 -2.70933,0.18063 -0.90311,0.54186 -1.6256,1.08373 -1.80622,1.08373 -0.54187,0.36124 -1.6256,1.26435 -3.43182,2.70933 -0.36124,0.18062 -1.26435,1.08373 -2.70933,1.98684 h 4.33493 8.30861 3.97368 l -1.80622,7.94737 c -7.76674,31.97009 -7.76674,31.97009 -7.76674,37.74999 0,5.77991 3.79306,12.10168 7.22488,12.10168 3.97368,0 16.25598,-7.4055 33.59569,-20.59091 z"
         id="path9326" />
      <path
         d="m 1015.0721,892.5391 c -14.4498,12.28229 -22.21651,16.79784 -29.08015,16.79784 -4.69617,0 -8.30861,-3.07057 -9.57297,-7.76674 -0.72248,-2.88995 -0.90311,-4.87679 -0.90311,-10.11483 8.30862,-5.23804 13.36603,-8.85048 24.02273,-16.79785 9.9342,-7.4055 13.5466,-13.36603 13.5466,-21.49402 0,-6.32177 -3.793,-10.11483 -10.2954,-10.11483 -3.97369,0 -6.68302,0.90311 -11.01795,3.2512 -6.86363,3.97368 -13.00478,8.85048 -16.61722,13.1854 -6.86364,8.30862 -13.00478,28.17704 -13.00478,42.80742 0,10.65669 5.59928,17.33971 14.811,17.33971 10.6567,0 24.38395,-7.94737 37.93065,-21.85526 z m -39.01436,-7.58612 c 3.07057,-19.50718 11.19856,-34.31818 19.14593,-34.31818 2.88995,0 4.87683,2.88995 4.87683,7.4055 0,9.0311 -5.23807,14.811 -24.02276,26.91268 z"
         id="path9328" />
      <path
         d="m 1136.4496,893.62283 c -13.1854,9.0311 -16.2559,10.83732 -18.0622,10.83732 -1.2643,0 -2.1674,-1.44497 -2.1674,-3.61244 0,-4.87679 4.1543,-23.8421 10.8373,-48.58732 1.9868,-2.88995 2.3481,-3.25119 5.238,-6.50239 -8.6698,-1.98684 -14.811,-2.70933 -22.7583,-2.70933 -7.4055,0 -11.018,0.72249 -15.5335,3.61244 -6.5024,3.79306 -14.0885,9.39235 -16.4366,11.92105 -6.8637,7.58613 -14.2692,31.9701 -14.2692,46.60048 0,8.66985 2.89,14.44976 7.4055,14.44976 3.9737,0 9.9342,-3.61244 32.512,-19.86842 -1.9868,9.21172 -2.7093,13.72727 -2.7093,16.07536 0,2.5287 1.0837,3.79306 2.8899,3.79306 2.3481,0 3.7931,-0.72249 16.6172,-9.21172 6.1412,-4.15431 9.573,-6.50239 16.256,-11.37919 z m -31.7894,-1.26435 c -6.3218,4.69617 -9.573,7.04426 -9.7536,7.22488 -5.9605,3.79306 -10.6567,6.14114 -13.0048,6.14114 -3.0706,0 -4.6962,-3.25119 -4.6962,-9.03109 0,-9.21173 2.7094,-21.13278 7.4055,-31.60885 4.335,-9.93421 8.3086,-13.72728 14.4498,-13.72728 3.2512,0 9.3923,0.90311 15.3529,2.34809 -3.6125,13.00478 -4.8768,17.88158 -5.0575,18.78469 -1.0837,4.51555 -1.9868,9.0311 -3.0705,13.72727 -0.1807,0.90311 -0.7225,3.07057 -1.6256,6.14115 z"
         id="path9330" />
      <path
         d="m 1139.7005,919.09053 13.9079,-5.23804 13.5466,-51.47726 c 6.1412,-4.69618 10.2955,-6.32177 15.1723,-6.32177 3.9737,0 6.3218,1.44497 9.573,5.59928 l 5.4186,-17.15909 c -3.2512,-1.08373 -4.8768,-1.44498 -6.683,-1.44498 -3.4318,0 -7.0443,1.6256 -11.921,5.05742 -2.3481,1.80622 -4.6962,3.61244 -7.2249,5.23804 -1.0838,0.90311 -2.3481,1.80622 -3.4318,2.5287 l 2.1674,-10.83732 c 0,-1.08373 -1.0837,-1.98684 -2.3481,-1.98684 -2.3481,0 -18.2428,7.76675 -29.2607,14.26914 l -0.5419,4.87679 c 10.4761,-5.05741 10.6567,-5.23803 13.0048,-5.23803 2.3481,0 3.4318,1.26435 3.4318,3.79306 0,2.52871 -1.8062,10.83732 -3.9737,18.78469 z"
         id="path9332" />
      <path
         d="m 1245.3641,894.52594 c -13.7272,8.30861 -19.5071,11.19856 -22.0359,11.19856 -2.348,0 -5.238,-4.51554 -5.238,-8.48923 0,-2.52871 0.1806,-3.07057 4.1543,-20.22966 0.9031,-3.2512 1.6256,-6.68302 2.3481,-10.11483 0.1806,-0.54187 0.9031,-3.43182 1.2644,-5.05742 6.1411,-0.18062 11.7404,-0.54187 17.8815,-0.90311 l 6.8637,-5.23804 h -23.1197 c 0.9032,-4.1543 1.2644,-5.41866 1.8063,-8.12799 0.5418,-1.80622 1.8062,-6.68301 4.3349,-16.4366 l 1.0837,-4.69617 -3.0705,1.6256 c -1.0838,0.36124 -2.5288,1.08373 -4.5156,1.98684 -1.2643,0.72249 -2.7093,1.26435 -4.1543,1.98684 -0.7225,0.36125 -1.445,0.72249 -2.5287,1.08373 l -1.6256,7.40551 -1.9868,8.66985 -1.445,6.50239 c -1.6256,0.18062 -2.7094,0.18062 -3.2512,0.18062 h -4.3349 c -0.3613,0 -1.2644,0 -2.7094,0.18063 -0.9031,0.54186 -1.6256,1.08373 -1.8062,1.08373 -0.5419,0.36124 -1.6256,1.26435 -3.4318,2.70933 -0.3613,0.18062 -1.2644,1.08373 -2.7093,1.98684 h 4.3349 8.3086 3.9737 l -1.8062,7.94737 c -7.7668,31.97009 -7.7668,31.97009 -7.7668,37.74999 0,5.77991 3.7931,12.10168 7.2249,12.10168 3.9737,0 16.256,-7.4055 33.5957,-20.59091 z"
         id="path9334" />
      <path
         d="m 1254.5755,905.00202 c 1.6256,4.1543 5.0574,9.75358 8.4892,13.90789 6.683,-4.87679 8.3086,-6.14115 13.3661,-11.37919 -3.2512,-4.69617 -6.1412,-9.21172 -8.4893,-13.36602 -5.9605,4.87679 -10.4761,8.48923 -13.366,10.83732 z m 9.3923,-15.89474 c 3.7931,-2.16746 3.9737,-2.16746 9.9342,-5.96052 l 3.6125,-10.6567 c 1.8062,-5.23804 3.4318,-10.47608 5.0574,-15.71412 10.8373,-33.05382 10.8373,-33.05382 14.9916,-45.51674 -1.6256,0.72249 -3.2512,1.44498 -4.8768,2.34809 -2.1674,0.90311 -4.3349,1.98684 -6.3217,2.88995 l -4.8768,2.34809 c -3.2512,12.64354 -4.1543,16.07535 -6.1412,24.02272 -3.0705,12.2823 -5.5993,22.75837 -8.3086,33.41507 z"
         id="path9336" />
    </g>
  </g>
</svg>
