<?xml version="1.0" encoding="UTF-8" standalone="no"?>
<svg
   width="1685.1394mm"
   height="1065.2754mm"
   viewBox="0 0 1685.1394 1065.2754"
   version="1.1"
   id="svg8"
   inkscape:version="1.1 (c4e8f9ed74, 2021-05-24)"
   sodipodi:docname="logo-under-construction.svg"
   xmlns:inkscape="http://www.inkscape.org/namespaces/inkscape"
   xmlns:sodipodi="http://sodipodi.sourceforge.net/DTD/sodipodi-0.dtd"
   xmlns="http://www.w3.org/2000/svg"
   xmlns:svg="http://www.w3.org/2000/svg"
   xmlns:rdf="http://www.w3.org/1999/02/22-rdf-syntax-ns#"
   xmlns:cc="http://creativecommons.org/ns#"
   xmlns:dc="http://purl.org/dc/elements/1.1/">
  <defs
     id="defs2" />
  <sodipodi:namedview
     id="base"
     pagecolor="#ffffff"
     bordercolor="#666666"
     borderopacity="1.0"
     inkscape:pageopacity="0.0"
     inkscape:pageshadow="2"
     inkscape:zoom="0.16815745"
     inkscape:cx="2875.2814"
     inkscape:cy="2027.8614"
     inkscape:document-units="mm"
     inkscape:current-layer="layer1"
     inkscape:document-rotation="0"
     showgrid="false"
     showborder="true"
     inkscape:window-width="1916"
     inkscape:window-height="1061"
     inkscape:window-x="0"
     inkscape:window-y="15"
     inkscape:window-maximized="1"
     inkscape:pagecheckerboard="false"
     inkscape:showpageshadow="true" />
  <metadata
     id="metadata5">
    <rdf:RDF>
      <cc:Work
         rdf:about="">
        <dc:format>image/svg+xml</dc:format>
        <dc:type
           rdf:resource="http://purl.org/dc/dcmitype/StillImage" />
      </cc:Work>
    </rdf:RDF>
  </metadata>
  <g
     inkscape:label="Layer 1"
     inkscape:groupmode="layer"
     id="layer1"
     transform="translate(99.84088,148.11533)">
    <g
       id="g884"
       transform="translate(-98.330723,-185.98567)">
      <g
         id="layer2"
         inkscape:label="Text"
         transform="translate(20.221622,-38.567821)">
        <path
           id="text1582"
           style="font-style:normal;font-weight:normal;font-size:529.167px;line-height:1.25;font-family:sans-serif;fill:#c30b38;fill-opacity:1;stroke:none;stroke-width:0.999999"
           transform="scale(0.26458333)"
           d="m 438.67383,798.38867 c -34.00002,0 -151.9999,65.99993 -316,176 l -4,56.00003 c 122.00007,-66.0001 127.99999,-68.00003 146,-68.00003 16.00001,0 24,11.99999 24,34 0,28.00003 -5.99998,56.00193 -36,170.00193 -94.00006,348.0002 -94,348 -94,400 0,48.0001 17.99998,80 48,80 34.00002,0 87.99993,-25.9999 194,-94 38.00002,-24 75.99997,-48 114,-74 18.00001,-10 31.99998,-20 56,-34 l 8,-56 -34,18 c -138.00009,76.0001 -161.99999,86 -186,86 -22.00002,0 -36,-22 -36,-56 0,-34 -4e-5,-33.9998 66,-298 74.00004,-304.00013 74,-304.00192 74,-320.00193 0,-12.00001 -9.99999,-20 -24,-20 z" />
      </g>
      <g
         inkscape:label="Layer 1"
         id="layer1-67"
         style="display:inline"
         transform="translate(20.221622,-38.567821)">
        <g
           inkscape:label="Layer 1"
           id="layer1-6"
           transform="translate(80.213131,91.912739)" />
      </g>
    </g>
    <g
       aria-label="mage"
       id="text888"
       style="font-size:529.167px;line-height:1.25;font-family:Z003;-inkscape-font-specification:Z003;fill:#542538;stroke-width:0">
      <path
         d="M 95.324057,207.8827 132.89491,193.5952 166.7616,65.007616 c 34.39586,-23.812515 57.15004,-36.512522 64.02921,-36.512522 4.23333,0 6.87917,4.233335 6.87917,11.641673 0,15.87501 -20.10835,95.779223 -42.33336,167.745933 l 40.21669,-14.2875 32.80835,-132.291753 c 30.16252,-19.579179 58.73754,-35.454188 65.08754,-35.454188 4.76251,0 6.87917,3.704168 6.87917,10.054172 0,11.641674 -4.7625,35.454189 -19.05001,89.958389 -7.9375,32.80835 -10.58334,46.03753 -10.58334,58.20837 0,11.11251 2.64584,16.93334 12.70001,23.81251 30.69169,-15.34584 60.32504,-34.39585 89.42922,-57.6792 l 0.52917,-12.17084 c -44.9792,27.51668 -44.9792,27.51668 -52.38753,27.51668 -5.82084,0 -9.52501,-5.29167 -9.52501,-13.75834 0,-12.17084 6.35001,-40.21669 17.46251,-79.375046 16.93335,-58.737536 20.10835,-70.9083771 20.10835,-79.375049 0,-5.29167 -2.64584,-7.937505 -8.46667,-7.937505 -9.52501,0 -42.33336,16.9333439 -106.89174,55.033367 2.11667,-9.525006 2.11667,-9.525006 6.87917,-30.1625182 2.11667,-7.9375049 3.70417,-16.9333438 3.70417,-19.0500117 0,-3.7041691 -2.64583,-5.8208371 -6.87917,-5.8208371 -8.99584,0 -29.10418,11.112507 -105.30423,59.266703 8.46667,-35.9833552 11.11251,-48.154196 11.11251,-51.858365 0,-4.762503 -3.175,-7.408338 -7.93751,-7.408338 -5.29167,0 -11.1125,3.175002 -37.57085,17.9916779 C 102.73239,23.203424 102.73239,23.203424 93.207389,29.553427 L 89.50322,44.370103 c 28.04585,-14.287509 32.80835,-15.875009 39.15836,-15.875009 4.23333,0 7.40834,4.233335 7.40834,10.054172 0,7.937505 -1.58751,14.816676 -22.75419,98.954224 -4.7625,16.93335 -8.99583,34.39586 -13.22917,51.85837 z"
         id="path4408" />
      <path
         d="m 635.07383,133.27016 c -38.62919,26.45835 -47.62503,31.75002 -52.9167,31.75002 -3.70417,0 -6.35,-4.23334 -6.35,-10.58334 0,-14.28751 12.17084,-69.850045 31.75002,-142.345923 5.82083,-8.4666721 6.87917,-9.5250061 15.34584,-19.050012 -25.40002,-5.820837 -43.39169,-7.937505 -66.67504,-7.937505 -21.69585,0 -32.27919,2.116668 -45.50836,10.58334 -19.05001,11.1125068 -41.27503,27.516684 -48.1542,34.925021 -20.10834,22.225014 -41.80419,93.662559 -41.80419,136.525089 0,25.40001 8.46667,42.33335 21.69585,42.33335 11.64167,0 29.10418,-10.58334 95.25005,-58.20836 -5.82083,26.98751 -7.9375,40.21669 -7.9375,47.09586 0,7.40834 3.175,11.1125 8.46667,11.1125 6.87917,0 11.11251,-2.11666 48.68336,-26.98751 17.99168,-12.17084 28.04586,-19.05001 47.62503,-33.33752 z m -93.13339,-3.70417 c -18.52084,13.75834 -28.04585,20.63751 -28.57502,21.16668 -17.46251,11.11251 -31.22085,17.99168 -38.10002,17.99168 -8.99584,0 -13.75834,-9.52501 -13.75834,-26.45835 0,-26.98752 7.9375,-61.912541 21.69584,-92.604227 12.70001,-29.104184 24.34169,-40.2166912 42.33336,-40.2166912 9.52501,0 27.51669,2.6458352 44.9792,6.8791712 -10.58334,38.100023 -14.28751,52.387532 -14.81668,55.033367 -3.175,13.229175 -5.82083,26.458349 -8.99584,40.21669 -0.52916,2.64584 -2.11666,8.99584 -4.7625,17.99168 z"
         id="path4410" />
      <path
         d="m 814.46047,86.703463 c 2.11667,-11.641674 4.7625,-21.695847 6.87917,-30.162519 2.64583,-10.054173 5.29167,-20.108346 7.9375,-29.633351 l 2.64584,-11.641674 c 9.525,-2.645835 10.05417,-2.645835 26.98752,-29.633352 -2.64584,0 -9.52501,0 -61.38338,1.058334 -32.27918,0.529167 -41.80419,2.116668 -57.15003,11.641674 -25.40002,15.345843 -43.39169,30.691685 -54.5042,44.979194 -15.87501,21.16668 -34.92502,84.137551 -34.92502,116.945901 0,13.22918 3.175,22.75419 11.64167,34.39586 -32.27919,28.04585 -41.80419,35.98335 -60.8542,52.38753 -26.45835,23.28335 -38.62919,40.74586 -38.62919,55.56254 0,19.57917 22.75418,30.69168 63.50004,30.69168 48.68336,0 86.78338,-13.75834 122.23757,-44.45003 22.75418,-19.57918 28.04585,-30.69168 39.15836,-83.07921 z M 745.13959,231.69522 c -6.87917,32.27919 -11.64167,43.92086 -21.16668,53.97503 -11.64167,13.75834 -33.33752,20.10835 -64.55837,20.10835 -34.39586,0 -52.9167,-8.99584 -52.9167,-26.45835 0,-21.69585 14.81668,-34.92502 161.39593,-147.63759 z M 704.9229,162.37434 c -9.52501,-9.525 -13.22917,-17.99168 -13.22917,-30.69168 0,-12.17084 2.64583,-25.40002 12.17084,-56.620871 9.525,-31.75002 16.93334,-45.508362 29.10418,-52.916699 9.52501,-6.350004 21.16668,-7.408338 74.08338,-7.408338 h 16.93334 c -22.22501,16.404176 -24.87084,18.520844 -29.63335,26.458349 -4.23333,6.879171 -10.05417,26.987517 -21.69584,71.437549 -8.99584,5.82083 -10.58334,7.40833 -17.46252,12.17084 -12.7,8.99583 -24.87084,18.52084 -36.51252,27.51668 z"
         id="path4412" />
      <path
         d="m 1017.1312,130.09516 c -42.33337,35.98335 -65.08755,49.21253 -85.19589,49.21253 -13.75834,0 -24.34168,-8.99584 -28.04585,-22.75418 -2.11667,-8.46668 -2.64584,-14.28751 -2.64584,-29.63336 24.34168,-15.34584 39.15836,-25.92918 70.37921,-49.212526 29.10417,-21.695847 39.68757,-39.158358 39.68757,-62.970872 0,-18.520845 -11.1125,-29.633352 -30.16256,-29.633352 -11.64168,0 -19.57918,2.645835 -32.27919,9.525006 -20.10834,11.6416738 -38.10002,25.929183 -48.68336,38.62919 -20.10835,24.341682 -38.10002,82.550054 -38.10002,125.412574 0,31.22086 16.40417,50.80003 43.39169,50.80003 31.22085,0 71.43754,-23.28334 111.12504,-64.0292 z M 902.83112,107.87014 C 911.82696,50.720107 935.63948,7.3284138 958.92283,7.3284138 c 8.46667,0 14.2875,8.4666722 14.2875,21.6958462 0,26.45835 -15.34584,43.391694 -70.37921,78.84588 z"
         id="path4414" />
    </g>
    <g
       aria-label="sourcerer"
       id="text870"
       style="font-size:529.167px;line-height:1.25;font-family:Z003;-inkscape-font-specification:Z003;stroke-width:0">
      <path
         d="m -76.279885,522.58866 c -0.529167,4.7625 -1.058334,8.99584 -1.058334,12.17084 0,23.28335 15.87501,38.62919 39.158358,38.62919 16.933344,0 39.15835728,-6.35 56.091701,-16.40417 31.75002,-17.99168 50.270864,-44.9792 50.270864,-71.43755 0,-19.57918 -3.175002,-23.81251 -33.33752,-42.33336 C 16.853506,431.57194 9.4451682,421.51777 9.4451682,407.75942 c 0,-17.99167 15.3458428,-33.86668 33.3375208,-33.86668 12.17084,0 21.695846,5.82083 32.808353,20.63751 C 93.58272,377.06774 93.58272,377.06774 100.46189,367.01357 89.878551,354.31356 79.824378,349.02189 65.007702,349.02189 c -38.62919,0 -88.370887,45.50836 -88.370887,80.96255 0,16.40417 8.466672,29.10418 28.5750172,43.39169 26.4583498,18.52085 30.1625188,23.28335 30.1625188,36.51252 0,19.05002 -24.341682,41.27503 -44.9791946,41.27503 -11.6416734,0 -20.6375124,-6.35001 -25.9291824,-17.99168 -3.704169,-7.9375 -4.762503,-15.87501 -5.29167,-34.39585 -5.820837,4.7625 -10.054173,7.40833 -12.170841,8.99584 -4.233336,2.64583 -8.995839,5.29167 -13.758342,8.46667 -0.529167,0 -5.29167,3.70417 -9.525006,6.35 z"
         style="fill:#542538"
         id="path4389" />
      <path
         d="m 260.27017,349.02189 c -21.16668,0 -55.03337,15.34584 -86.25422,38.62919 -33.86669,25.40001 -57.6792,80.43338 -57.6792,133.35008 0,31.75002 17.99167,52.38753 46.03752,52.38753 14.81668,0 30.16252,-5.29167 53.97504,-17.99168 26.45835,-14.81667 43.92086,-28.04585 53.44586,-40.21669 21.16668,-29.10418 38.10003,-80.96255 38.10003,-117.47507 0,-28.57502 -19.57918,-48.68336 -47.62503,-48.68336 z m -27.51669,24.87085 c 21.16668,0 34.39586,20.10834 34.39586,52.38753 0,22.75418 -7.40834,49.7417 -20.10835,75.67088 -15.34584,30.16252 -34.39585,46.56669 -54.5042,46.56669 -21.69584,0 -35.45419,-19.57917 -35.45419,-49.74169 0,-61.38337 38.62919,-124.88341 75.67088,-124.88341 z"
         style="fill:#542538"
         id="path4391" />
      <path
         d="m 456.59092,496.65948 c -40.21669,27.51668 -58.73754,38.62919 -65.61671,38.62919 -5.82083,0 -10.05417,-7.40834 -10.05417,-17.46251 0,-12.17084 4.23334,-33.33752 13.22918,-67.20421 5.29166,-20.10835 10.58333,-40.21669 11.1125,-43.39169 4.7625,-20.10835 8.46667,-33.33752 9.52501,-37.04169 1.5875,-5.82084 2.64583,-11.11251 2.64583,-14.28751 0,-4.23334 -2.64583,-6.87917 -6.35,-6.87917 -5.29167,0 -43.39169,20.63751 -82.02089,44.45003 l -3.70416,14.2875 c 22.75418,-11.64167 32.27918,-15.34584 38.62919,-15.34584 4.23333,0 7.40833,3.70417 7.40833,10.05417 0,7.40834 -4.7625,28.04585 -14.81667,65.61671 -13.22918,49.7417 -16.40418,64.02921 -16.40418,79.37505 0,14.81668 6.35001,25.92918 14.81668,25.92918 7.9375,0 16.93334,-4.7625 43.92086,-22.22501 41.27502,-26.45835 41.27502,-26.45835 54.5042,-35.45419 -4.7625,17.99168 -7.40834,35.98336 -7.40834,45.50836 0,7.40834 3.70417,12.17084 9.52501,12.17084 10.58334,0 60.32503,-29.10418 96.83756,-56.62087 l 3.70416,-15.87501 c -37.57085,22.22502 -55.03336,31.75002 -60.8542,31.75002 -3.70417,0 -5.82084,-3.70416 -5.82084,-12.7 0,-26.98752 19.05002,-105.30424 42.33336,-173.03761 -6.87917,3.70417 -11.64167,6.35 -13.75834,7.40834 -6.35,3.175 -12.70001,6.35 -19.57918,8.99584 -1.5875,1.05833 -4.7625,2.64583 -10.58334,5.82083 -3.70417,13.22918 -12.17084,48.68337 -25.92918,106.36257 z"
         style="fill:#c30b38"
         id="path4393" />
      <path
         d="m 573.00716,571.80119 40.74586,-15.34584 39.68753,-150.81259 c 17.99167,-13.75835 30.16251,-18.52085 44.45002,-18.52085 11.64168,0 18.52085,4.23334 28.04585,16.40418 l 15.87501,-50.27087 c -9.525,-3.175 -14.28751,-4.23333 -19.57918,-4.23333 -10.05417,0 -20.63751,4.7625 -34.92502,14.81667 -6.87917,5.29167 -13.75834,10.58334 -21.16668,15.34585 -3.175,2.64583 -6.87917,5.29167 -10.05417,7.40833 l 6.35,-31.75002 c 0,-3.175 -3.175,-5.82083 -6.87917,-5.82083 -6.87917,0 -53.44586,22.75418 -85.72505,41.80419 l -1.5875,14.28751 c 30.69169,-14.81668 31.22085,-15.34584 38.10002,-15.34584 6.87917,0 10.05418,3.70417 10.05418,11.1125 0,7.40834 -5.29167,31.75002 -11.64168,55.03337 z"
         style="fill:#542538"
         id="path4395" />
      <path
         d="m 878.86461,499.30531 c -40.21669,29.10419 -68.7917,43.92086 -85.72505,43.92086 -19.05001,0 -30.16252,-14.81667 -30.16252,-40.21669 0,-25.92918 6.35001,-59.2667 16.40418,-84.13755 11.11251,-28.04585 24.34168,-42.33336 39.68752,-42.33336 12.70001,0 19.57918,10.05417 22.22502,33.33752 l 30.69168,-17.99168 c 0.52917,-2.64583 0.52917,-5.29167 0.52917,-6.35 0,-22.75418 -11.64167,-36.51252 -30.16252,-36.51252 -10.05417,0 -14.81667,2.11667 -34.39585,14.81667 -39.68753,24.87085 -48.1542,32.80836 -59.79587,54.5042 -14.81668,28.57502 -25.92918,73.55422 -25.92918,106.36257 0,31.22085 13.75834,48.68336 38.62919,48.68336 25.40001,0 67.73337,-20.63751 116.9459,-57.15003 z"
         style="fill:#542538"
         id="path4397" />
      <path
         d="m 1058.2507,494.01364 c -42.3334,35.98336 -65.08755,49.21253 -85.1959,49.21253 -13.75834,0 -24.34168,-8.99584 -28.04585,-22.75418 -2.11667,-8.46667 -2.64584,-14.28751 -2.64584,-29.63335 24.34169,-15.34584 39.15836,-25.92918 70.37919,-49.21253 29.1042,-21.69585 39.6875,-39.15836 39.6875,-62.97087 0,-18.52085 -11.1125,-29.63335 -30.1625,-29.63335 -11.6416,0 -19.5791,2.64583 -32.27916,9.525 -20.10834,11.64168 -38.10002,25.92919 -48.68336,38.62919 -20.10835,24.34169 -38.10002,82.55005 -38.10002,125.41258 0,31.22085 16.40417,50.80003 43.39169,50.80003 31.22085,0 71.43755,-23.28335 111.12505,-64.0292 z M 943.95062,471.78863 c 8.99583,-57.15004 32.80835,-100.54173 56.09168,-100.54173 8.4667,0 14.2875,8.46667 14.2875,21.69585 0,26.45835 -15.34582,43.39169 -70.37918,78.84588 z"
         style="fill:#542538"
         id="path4399" />
      <path
         d="m 1084.7082,571.80119 40.7458,-15.34584 39.6875,-150.81259 c 17.9917,-13.75835 30.1626,-18.52085 44.4501,-18.52085 11.6416,0 18.5208,4.23334 28.0458,16.40418 l 15.875,-50.27087 c -9.525,-3.175 -14.2875,-4.23333 -19.5792,-4.23333 -10.0541,0 -20.6375,4.7625 -34.925,14.81667 -6.8791,5.29167 -13.7583,10.58334 -21.1667,15.34585 -3.175,2.64583 -6.8791,5.29167 -10.0541,7.40833 l 6.35,-31.75002 c 0,-3.175 -3.175,-5.82083 -6.8792,-5.82083 -6.8792,0 -53.4459,22.75418 -85.7251,41.80419 l -1.5875,14.28751 c 30.6917,-14.81668 31.2209,-15.34584 38.1001,-15.34584 6.8791,0 10.0541,3.70417 10.0541,11.1125 0,7.40834 -5.2916,31.75002 -11.6416,55.03337 z"
         style="fill:#542538"
         id="path4401" />
      <path
         d="m 1390.0368,494.01364 c -42.3333,35.98336 -65.0875,49.21253 -85.1959,49.21253 -13.7583,0 -24.3416,-8.99584 -28.0458,-22.75418 -2.1167,-8.46667 -2.6459,-14.28751 -2.6459,-29.63335 24.3417,-15.34584 39.1584,-25.92918 70.3793,-49.21253 29.1041,-21.69585 39.6875,-39.15836 39.6875,-62.97087 0,-18.52085 -11.1125,-29.63335 -30.1625,-29.63335 -11.6417,0 -19.5792,2.64583 -32.2792,9.525 -20.1084,11.64168 -38.1,25.92919 -48.6834,38.62919 -20.1083,24.34169 -38.1,82.55005 -38.1,125.41258 0,31.22085 16.4042,50.80003 43.3917,50.80003 31.2208,0 71.4375,-23.28335 111.1251,-64.0292 z m -114.3001,-22.22501 c 8.9959,-57.15004 32.8084,-100.54173 56.0917,-100.54173 8.4667,0 14.2876,8.46667 14.2876,21.69585 0,26.45835 -15.3459,43.39169 -70.3793,78.84588 z"
         style="fill:#542538"
         id="path4403" />
      <path
         d="m 1416.4943,571.80119 40.7458,-15.34584 39.6876,-150.81259 c 17.9916,-13.75835 30.1625,-18.52085 44.45,-18.52085 11.6417,0 18.5208,4.23334 28.0458,16.40418 l 15.8751,-50.27087 c -9.5251,-3.175 -14.2876,-4.23333 -19.5792,-4.23333 -10.0542,0 -20.6375,4.7625 -34.925,14.81667 -6.8792,5.29167 -13.7584,10.58334 -21.1667,15.34585 -3.175,2.64583 -6.8792,5.29167 -10.0542,7.40833 l 6.35,-31.75002 c 0,-3.175 -3.175,-5.82083 -6.8792,-5.82083 -6.8791,0 -53.4458,22.75418 -85.725,41.80419 l -1.5875,14.28751 c 30.6917,-14.81668 31.2208,-15.34584 38.1,-15.34584 6.8792,0 10.0542,3.70417 10.0542,11.1125 0,7.40834 -5.2917,31.75002 -11.6417,55.03337 z"
         style="fill:#542538"
         id="path4405" />
    </g>
    <g
       transform="matrix(-4.3732823,0,0,4.1489473,-7683.9314,3858.1877)"
       style="display:inline"
       id="g15745">
      <path
         d="m -1774.2711,-954.86792 c 0.4453,-1.01594 2.1705,-4.52486 5.6775,-6.995 6.3577,-4.4835 14.2414,-3.62821 18.8768,-0.93691 3.1324,1.82227 5.2903,4.17054 7.0001,7.61821 0.4172,0.84216 1.1951,2.63915 1.7282,5.20993 0.4613,2.22972 0.5058,3.63581 0.58,5.97108 0,1.95125 -3.7069,3.71117 -10.0877,4.56818 -8.93,1.19586 -19.7224,0.15709 -24.1026,-2.3198 -1.2534,-0.70839 -1.8451,-1.46218 -1.8426,-2.19634 0.092,-3.01727 0.204,-6.43549 2.1707,-10.91935 z"
         style="fill:#ffffff;stroke-linejoin:round"
         id="path19-3-0"
         inkscape:connector-curvature="0" />
      <path
         d="m -1764.7572,-936.08809 c 0,0 3.8014,2.04415 9.6284,4.07591 3.5189,1.22483 9.7706,-0.84277 13.0263,-1.70788 3.2599,-0.86192 8.8934,-2.65141 7.3303,-4.21754 -1.5629,-1.56233 -6.0547,-4.89329 -6.0547,-4.89329 0,0 4.277,7.06618 -23.9307,6.7428 z"
         style="fill:#ffbd34;fill-opacity:1;stroke:#ffbd34;stroke-width:0.633166;stroke-linejoin:round;stroke-opacity:1"
         id="path27-6-0"
         inkscape:connector-curvature="0" />
      <path
         sodipodi:nodetypes="csccccc"
         inkscape:connector-curvature="0"
         id="path31-3-3"
         style="fill:#ffbd34;fill-opacity:1;stroke:#ffbd34;stroke-width:0.633166;stroke-linejoin:round;stroke-opacity:1"
         d="m -1738.7453,-941.22671 c 0,2.98032 -8.913,5.39499 -19.9138,5.39499 -10.998,0 -19.9138,-2.41405 -19.9138,-5.39499 2.2952,-1.66272 1.961,-3.06243 1.961,-3.06243 h 35.9986 c 0,0 -0.214,1.63369 1.9731,3.29629 z" />
      <path
         d="m -1774.422,-954.95874 c 0.4452,-1.01521 2.1713,-4.52265 5.6774,-6.99513 6.357,-4.48337 14.2401,-3.6271 18.8767,-0.93616 3.1344,1.82238 5.2911,4.17041 6.9995,7.61526 0.418,0.84216 1.1977,2.63915 1.7282,5.21128 0.46,2.22825 0.505,3.63557 0.5804,5.96789 0,1.95137 -3.7087,3.71424 -10.0905,4.5683 -8.9296,1.19893 -19.7211,0.15697 -24.1,-2.31993 -1.2535,-0.70838 -1.8464,-1.45948 -1.8437,-2.19633 0.096,-3.01248 0.2077,-6.43119 2.1721,-10.91518 z"
         style="fill:#ffd520;stroke-linejoin:round"
         id="path37-0-6"
         inkscape:connector-curvature="0" />
      <path
         d="m -1774.422,-954.95874 c 0.4452,-1.01521 2.1713,-4.52265 5.6774,-6.99513 6.357,-4.48337 14.2401,-3.6271 18.8767,-0.93616 3.1344,1.82238 5.2911,4.17041 6.9995,7.61526 0.418,0.84216 1.1977,2.63915 1.7282,5.21128 0.46,2.22825 0.505,3.63557 0.5804,5.96789 0,1.95137 -3.7087,3.71424 -10.0905,4.5683 -8.9296,1.19893 -19.7211,0.15697 -24.1,-2.31993 -1.2535,-0.70838 -1.8464,-1.45948 -1.8437,-2.19633 0.096,-3.01248 0.2077,-6.43119 2.1721,-10.91518 z"
         style="fill:none;stroke:#000000;stroke-width:0.633166;stroke-linejoin:round"
         id="path41-6-5"
         inkscape:connector-curvature="0" />
      <path
         d="m -1774.422,-954.95874 c 0.4452,-1.01521 2.1713,-4.52265 5.6774,-6.99513 6.357,-4.48337 14.2401,-3.6271 18.8767,-0.93616 3.1344,1.82238 5.2911,4.17041 6.9995,7.61526 0.418,0.84216 1.1977,2.63915 1.7282,5.21128 0.46,2.22825 0.505,3.63557 0.5804,5.96789 0,1.95137 -3.7087,3.71424 -10.0905,4.5683 -8.9296,1.19893 -19.7211,0.15697 -24.1,-2.31993 -1.2535,-0.70838 -1.8464,-1.45948 -1.8437,-2.19633 0.096,-3.01248 0.2077,-6.43119 2.1721,-10.91518 z"
         style="fill:#ffd046;fill-opacity:1;stroke:#fac44b;stroke-linejoin:round;stroke-opacity:1"
         id="path52-0-7"
         inkscape:connector-curvature="0" />
      <path
         d="m -1767.915,-962.62629 c 13.3737,-8.528 26.9474,8.98687 26.5227,20.23415 l 1.2441,0.50196 c -7e-4,-12.25929 -13.2853,-30.32975 -27.7672,-20.73611"
         style="fill:#cccccc;stroke-linejoin:round"
         id="path60-2-9"
         inkscape:connector-curvature="0" />
      <path
         id="polygon62-6-3"
         style="fill:#cccccc;stroke-linejoin:round"
         transform="matrix(-0.12272793,0,0,0.12272793,-1731.9594,-974.55471)"
         d="m 76.865,262.06 -15.668,19.09 5.532,-15 z" />
      <path
         d="m -1745.3502,-940.13566 c 0,-11.09583 -6.6212,-28.38329 -18.6117,-24.45845 12.8582,-4.35218 23.8104,11.56833 23.8104,22.70098 l 0.6789,1.84129 -5.2013,1.75427 -0.6765,-1.83772 z"
         style="fill:#ffd467;fill-opacity:1;stroke:none;stroke-width:0.633166;stroke-linecap:round;stroke-linejoin:round"
         id="path64-7-7"
         inkscape:connector-curvature="0" />
      <path
         d="m -1745.349,-940.13566 0.6782,1.84141 -3.0497,-2.13755 c 0.4259,-11.24802 -6.82,-30.72126 -20.1949,-22.19658 14.4819,-9.59106 22.566,10.23183 22.566,22.49358 z"
         style="fill:#cccccc;stroke-linejoin:round"
         id="path70-9-2"
         inkscape:connector-curvature="0" />
      <path
         d="m -1745.349,-940.13566 0.6782,1.84141 -3.0497,-2.13755 c 0.4259,-11.24802 -6.82,-30.72126 -20.1949,-22.19658 14.4819,-9.59106 22.566,10.23183 22.566,22.49358 z"
         style="fill:#ffbd34;fill-opacity:1;stroke:none;stroke-width:0.633166;stroke-linecap:round;stroke-linejoin:round"
         id="path74-7-4"
         inkscape:connector-curvature="0" />
      <path
         id="polygon78-8-4"
         style="fill:#ffbd34;stroke:#ffbd34;stroke-width:5.1591;stroke-linecap:round;stroke-linejoin:round"
         transform="matrix(-0.12272793,0,0,0.12272793,-1731.9594,-974.55471)"
         d="m 265.49,233.41 1.75,43.9 -14.21,-25.67 1.65,-29.07 z" />
      <path
         id="polygon80-2-4"
         style="stroke-linejoin:round"
         transform="matrix(-0.12272793,0,0,0.12272793,-1731.9594,-974.55471)"
         d="m 327.99,223.07 1.74,43.91 -9.03,-25.68 1.62,-23.9 z" />
      <path
         inkscape:connector-curvature="0"
         id="path82-9-3"
         style="fill:#ffd467;fill-opacity:1;stroke:#ffd467;stroke-width:0.633166;stroke-linecap:round;stroke-linejoin:round;stroke-opacity:1"
         d="m -1764.7572,-940.52103 c 0,0 -7.3005,-0.90536 -7.6667,-1.27121 -0.3672,-0.36291 0.2126,-5.38788 0.2126,-5.38788 l 7.6696,1.26802 z" />
      <path
         id="polygon84-9-0"
         style="fill:#f4b253;stroke:#f4b253;stroke-width:5.1591;stroke-linecap:round;stroke-linejoin:round"
         transform="matrix(-0.12272793,0,0,0.12272793,-1731.9594,-974.55471)"
         d="m 317.16,212.24 -62.48,10.33 10.81,10.84 62.5,-10.34 z" />
      <g
         transform="scale(-0.97401395,1.0266793)"
         id="text23570"
         style="font-size:2.48456px;line-height:0;font-family:Z003;-inkscape-font-specification:Z003;stroke-width:0.062114" />
      <g
         aria-label="This page is under construction.
Sorry for any inconvinience!"
         transform="scale(-0.97401398,1.0266793)"
         id="text26544"
         style="font-size:28.9866px;line-height:1.25;font-family:Z003;-inkscape-font-specification:Z003;stroke-width:0.062114">
        <path
           d="m 1797.7691,-733.86261 c 6.9858,0 7.4206,-0.058 9.7685,-1.36237 l 0.058,-0.23189 c -1.3044,0.17392 -3.1016,0.28986 -4.6959,0.28986 -0.2319,0 -0.7246,-0.029 -1.3333,-0.058 2.2319,-1.88413 2.9566,-2.92765 3.4494,-5.13063 l 2.2609,-9.0728 c 3.7683,0.31885 3.7973,0.31885 4.406,0.31885 1.3624,0 1.5653,-0.28987 2.2609,-3.13055 l -0.3768,-0.4348 c -1.1884,2.02906 -1.3334,2.17399 -2.3769,2.17399 -0.2899,0 -0.9276,-0.029 -1.8261,-0.058 -4.2321,-0.20291 -4.6959,-0.23189 -5.7104,-0.23189 -5.0727,0 -8.8409,2.75372 -8.8409,6.46401 0,0.95656 0.2029,1.73919 0.7246,2.75372 l 2.174,-1.42034 c -0.5507,-1.39136 -0.6667,-1.85514 -0.6667,-2.66677 0,-1.65223 0.7537,-2.86967 2.174,-3.53636 0.7537,-0.34784 1.7392,-0.49277 3.3625,-0.49277 0.6377,0 0.7536,0 2.6088,0.14493 l -2.3479,9.44963 c -1.0435,4.26103 -1.5943,4.9857 -4.0582,5.10164 z"
           style="text-align:center;text-anchor:middle"
           id="path4282" />
        <path
           d="m 1810.2622,-733.60173 2.0581,-0.84061 1.7102,-6.75388 c 0.2899,-0.20291 0.5508,-0.34784 0.6957,-0.4348 0.7536,-0.49277 1.2754,-0.81162 1.3913,-0.8696 1.9132,-1.04351 1.9132,-1.04351 2.174,-1.04351 0.174,0 0.3189,0.17392 0.3189,0.43479 0,0.40582 -0.116,0.95656 -0.5218,2.49285 -0.8406,3.27549 -1.2464,5.15962 -1.2464,5.94226 0,0.37682 0.116,0.69567 0.4348,1.24642 1.5943,-0.81163 3.7103,-2.14501 5.2756,-3.30447 l 0.2029,-0.84061 c -2.4059,1.42034 -2.8697,1.65223 -3.2465,1.65223 -0.2609,0 -0.4348,-0.28986 -0.4348,-0.75365 0,-0.78264 0.1449,-1.36237 1.3044,-5.6234 0.7536,-2.8117 0.7536,-2.8117 0.7536,-2.98562 0,-0.28987 -0.2319,-0.49277 -0.6087,-0.49277 -0.6377,0 -2.5218,1.04351 -6.2321,3.4494 l 0.9855,-3.8842 c 0.6957,-2.84069 0.9856,-3.73927 1.3624,-4.46394 0.4058,-0.81162 1.0145,-1.18845 1.7972,-1.18845 0.3768,0 0.6087,0.029 1.7392,0.26088 l 1.2464,-1.76818 c -0.5218,-0.11595 -0.7537,-0.14494 -1.2174,-0.14494 -1.5653,0 -2.4059,0.4348 -4.522,2.28995 -1.5073,1.33338 -1.7392,1.82615 -2.6377,5.65238 z"
           style="text-align:center;text-anchor:middle"
           id="path4284" />
        <path
           d="m 1828.7557,-751.71836 c -0.8117,0.63771 -1.4784,1.15947 -2.0001,1.50731 0.2029,0.60872 0.4638,1.10149 1.1015,2.02906 0.8116,-0.72467 0.8986,-0.81163 1.8841,-1.56528 -0.087,-0.17392 -0.1449,-0.28986 -0.3768,-0.66669 -0.1739,-0.34784 -0.2029,-0.34784 -0.4348,-0.92757 z m 1.1015,14.4933 -0.4928,0.26088 c -2.0001,1.10149 -2.3479,1.24643 -2.6958,1.24643 -0.3188,0 -0.5217,-0.31885 -0.5217,-0.81163 0,-0.49277 0,-0.49277 0.9565,-4.319 1.0725,-4.40596 1.0725,-4.40596 1.0725,-4.63786 0,-0.17392 -0.1449,-0.28986 -0.3478,-0.28986 -0.4928,0 -2.203,0.95656 -4.5799,2.55082 l -0.058,0.81162 c 1.7682,-0.95655 1.8552,-0.98554 2.1161,-0.98554 0.2318,0 0.3478,0.17392 0.3478,0.49277 0,0.40581 -0.087,0.81163 -0.5218,2.46386 -1.3623,5.04367 -1.3623,5.04367 -1.3623,5.79732 0,0.69568 0.2608,1.15947 0.6956,1.15947 0.4928,0 1.2755,-0.37683 2.8117,-1.36237 0.5508,-0.34784 1.1015,-0.69568 1.6523,-1.07251 0.2609,-0.14493 0.4638,-0.28986 0.8116,-0.49277 z"
           style="text-align:center;text-anchor:middle"
           id="path4286" />
        <path
           d="m 1829.0455,-736.2685 c -0.029,0.26088 -0.058,0.49277 -0.058,0.66669 0,1.27541 0.8696,2.11603 2.1451,2.11603 0.9275,0 2.145,-0.34784 3.0725,-0.89859 1.7392,-0.98554 2.7538,-2.46386 2.7538,-3.91319 0,-1.0725 -0.174,-1.3044 -1.8262,-2.31893 -0.9855,-0.6377 -1.3914,-1.18845 -1.3914,-1.9421 0,-0.98554 0.8407,-1.85514 1.8262,-1.85514 0.6667,0 1.1885,0.31885 1.7972,1.13047 0.9855,-0.95655 0.9855,-0.95655 1.3623,-1.5073 -0.5797,-0.69568 -1.1304,-0.98554 -1.9421,-0.98554 -2.116,0 -4.8407,2.49284 -4.8407,4.43495 0,0.89858 0.4638,1.59426 1.5653,2.3769 1.4493,1.01453 1.6522,1.27541 1.6522,2.00007 0,1.04352 -1.3334,2.26096 -2.4639,2.26096 -0.6377,0 -1.1304,-0.34784 -1.4203,-0.98555 -0.2029,-0.43479 -0.2609,-0.86959 -0.2899,-1.88412 -0.3188,0.26087 -0.5507,0.40581 -0.6667,0.49277 -0.2319,0.14493 -0.4927,0.28986 -0.7536,0.46378 -0.029,0 -0.2899,0.20291 -0.5218,0.34784 z"
           style="text-align:center;text-anchor:middle"
           id="path4288" />
        <path
           d="m 1844.0895,-727.68846 -0.8696,0.92757 c 0.5218,0.029 0.8696,0.029 0.9856,0.029 l 2.087,0.029 1.8552,0.029 c 0.2319,0 0.6377,0 1.3623,-0.029 l 0.8986,-0.72466 -3.2465,-0.17392 c 0.3768,-1.76819 0.5508,-2.6088 0.6667,-3.07258 0.1449,-0.60872 0.2609,-1.21744 0.4058,-1.85515 l 0.3189,-1.24642 c 0.5797,0.11595 0.8986,0.14493 1.3913,0.14493 1.5943,0 1.9131,-0.14493 4.1741,-2.02906 0.9855,-0.78264 1.3334,-1.18845 1.7682,-2.02906 0.9276,-1.88413 1.5363,-4.14509 1.5363,-5.79732 0,-1.39136 -0.6087,-2.28994 -1.5653,-2.28994 -0.6957,0 -1.6812,0.4348 -2.8697,1.30439 -1.2754,0.92758 -2.058,1.50731 -2.3769,1.71021 0.4058,-1.71021 0.6087,-2.5798 0.6087,-2.63778 0,-0.17392 -0.2029,-0.37682 -0.4058,-0.37682 -0.2898,0 -2.6378,1.24642 -4.7828,2.52183 l -0.1739,0.75365 c 0.2029,-0.087 0.6087,-0.26088 1.1885,-0.49277 0.5507,-0.26088 0.6667,-0.28987 0.8986,-0.28987 0.3478,0 0.5507,0.28987 0.5507,0.81163 0,1.04352 -1.7102,8.49307 -3.3624,14.72519 z m 5.1597,-9.01484 0.4348,-1.97109 0.4348,-1.88412 c 0.029,-0.14494 0.1159,-0.52176 0.2318,-1.04352 2.348,-1.7392 3.2755,-2.23197 4.0292,-2.23197 0.5797,0 0.9565,0.60872 0.9565,1.59426 0,1.3044 -0.4058,2.95664 -1.1304,4.52191 -0.7827,1.7392 -1.7682,2.57981 -2.9567,2.57981 -0.7246,0 -1.5073,-0.23189 -2.203,-0.63771 z"
           style="text-align:center;text-anchor:middle"
           id="path4290" />
        <path
           d="m 1870.4673,-737.65985 c -2.116,1.44933 -2.6088,1.73919 -2.8987,1.73919 -0.2029,0 -0.3478,-0.23189 -0.3478,-0.57973 0,-0.78264 0.6667,-3.82623 1.7392,-7.7974 0.3189,-0.46378 0.3768,-0.52175 0.8406,-1.04351 -1.3913,-0.31886 -2.3769,-0.4348 -3.6523,-0.4348 -1.1885,0 -1.7682,0.11594 -2.4928,0.57973 -1.0436,0.60872 -2.261,1.5073 -2.6378,1.91311 -1.1015,1.21744 -2.29,5.13063 -2.29,7.47855 0,1.39135 0.4638,2.31893 1.1885,2.31893 0.6377,0 1.5942,-0.57974 5.2176,-3.18853 -0.3189,1.47832 -0.4348,2.20298 -0.4348,2.57981 0,0.40581 0.1739,0.60872 0.4638,0.60872 0.3768,0 0.6087,-0.11595 2.6667,-1.47832 0.9856,-0.66669 1.5363,-1.04352 2.6088,-1.82616 z m -5.1016,-0.20291 c -1.0146,0.75365 -1.5363,1.13048 -1.5653,1.15946 -0.9566,0.60872 -1.7102,0.98555 -2.0871,0.98555 -0.4927,0 -0.7536,-0.52176 -0.7536,-1.44933 0,-1.47832 0.4348,-3.39143 1.1884,-5.07266 0.6957,-1.59426 1.3334,-2.20298 2.319,-2.20298 0.5217,0 1.5073,0.14493 2.4638,0.37683 -0.5797,2.08703 -0.7826,2.86967 -0.8116,3.0146 -0.1739,0.72467 -0.3188,1.44933 -0.4928,2.20298 -0.029,0.14494 -0.1159,0.49278 -0.2608,0.98555 z"
           style="text-align:center;text-anchor:middle"
           id="path4292" />
        <path
           d="m 1880.2937,-740.21068 c 0.116,-0.6377 0.2609,-1.18845 0.3768,-1.65223 0.145,-0.55075 0.2899,-1.10149 0.4348,-1.62325 l 0.145,-0.63771 c 0.5217,-0.14493 0.5507,-0.14493 1.4783,-1.62325 -0.145,0 -0.5218,0 -3.3625,0.058 -1.7681,0.029 -2.2899,0.11594 -3.1305,0.6377 -1.3914,0.84061 -2.3769,1.68123 -2.9856,2.46386 -0.8696,1.15947 -1.9132,4.60887 -1.9132,6.40604 0,0.72467 0.174,1.24643 0.6378,1.88413 -1.7682,1.53629 -2.29,1.97109 -3.3335,2.86967 -1.4493,1.27542 -2.116,2.23197 -2.116,3.0436 0,1.0725 1.2464,1.68122 3.4784,1.68122 2.6667,0 4.7538,-0.75365 6.6959,-2.43487 1.2464,-1.07251 1.5363,-1.68123 2.145,-4.5509 z m -3.7972,7.94233 c -0.3769,1.76819 -0.6377,2.40589 -1.1595,2.95664 -0.6377,0.75365 -1.8262,1.10149 -3.5364,1.10149 -1.8841,0 -2.8986,-0.49277 -2.8986,-1.44933 0,-1.18845 0.8116,-1.91312 8.8409,-8.08726 z m -2.203,-3.79724 c -0.5218,-0.52176 -0.7247,-0.98555 -0.7247,-1.68122 0,-0.6667 0.1449,-1.39136 0.6667,-3.10157 0.5218,-1.7392 0.9276,-2.49285 1.5943,-2.89866 0.5217,-0.34784 1.1594,-0.40581 4.0581,-0.40581 h 0.9276 c -1.2175,0.89858 -1.3624,1.01453 -1.6233,1.44933 -0.2319,0.37682 -0.5507,1.47831 -1.1884,3.91319 -0.4928,0.31885 -0.5798,0.40581 -0.9566,0.66669 -0.6957,0.49277 -1.3624,1.01453 -2.0001,1.5073 z"
           style="text-align:center;text-anchor:middle"
           id="path4294" />
        <path
           d="m 1891.3956,-737.83377 c -2.319,1.97108 -3.5654,2.69575 -4.6669,2.69575 -0.7536,0 -1.3334,-0.49277 -1.5363,-1.24642 -0.1159,-0.46379 -0.1449,-0.78264 -0.1449,-1.62325 1.3334,-0.84062 2.145,-1.42035 3.8552,-2.69576 1.5943,-1.18845 2.174,-2.14501 2.174,-3.4494 0,-1.01453 -0.6087,-1.62325 -1.6522,-1.62325 -0.6377,0 -1.0725,0.14493 -1.7682,0.52176 -1.1015,0.6377 -2.087,1.42034 -2.6668,2.11602 -1.1015,1.33338 -2.087,4.52191 -2.087,6.86982 0,1.71021 0.8986,2.78272 2.3769,2.78272 1.7102,0 3.9132,-1.27541 6.0872,-3.50738 z m -6.2611,-1.21744 c 0.4927,-3.13055 1.7971,-5.50746 3.0725,-5.50746 0.4638,0 0.7827,0.46379 0.7827,1.18846 0,1.44933 -0.8406,2.3769 -3.8552,4.319 z"
           style="text-align:center;text-anchor:middle"
           id="path4296" />
        <path
           d="m 1904.5264,-751.71836 c -0.8116,0.63771 -1.4783,1.15947 -2,1.50731 0.2029,0.60872 0.4637,1.10149 1.1014,2.02906 0.8117,-0.72467 0.8986,-0.81163 1.8842,-1.56528 -0.087,-0.17392 -0.145,-0.28986 -0.3769,-0.66669 -0.1739,-0.34784 -0.2029,-0.34784 -0.4348,-0.92757 z m 1.1015,14.4933 -0.4928,0.26088 c -2,1.10149 -2.3479,1.24643 -2.6957,1.24643 -0.3189,0 -0.5218,-0.31885 -0.5218,-0.81163 0,-0.49277 0,-0.49277 0.9566,-4.319 1.0725,-4.40596 1.0725,-4.40596 1.0725,-4.63786 0,-0.17392 -0.1449,-0.28986 -0.3478,-0.28986 -0.4928,0 -2.203,0.95656 -4.5799,2.55082 l -0.058,0.81162 c 1.7682,-0.95655 1.8551,-0.98554 2.116,-0.98554 0.2319,0 0.3479,0.17392 0.3479,0.49277 0,0.40581 -0.087,0.81163 -0.5218,2.46386 -1.3624,5.04367 -1.3624,5.04367 -1.3624,5.79732 0,0.69568 0.2609,1.15947 0.6957,1.15947 0.4928,0 1.2754,-0.37683 2.8117,-1.36237 0.5508,-0.34784 1.1015,-0.69568 1.6522,-1.07251 0.2609,-0.14493 0.4638,-0.28986 0.8117,-0.49277 z"
           style="text-align:center;text-anchor:middle"
           id="path4298" />
        <path
           d="m 1904.8163,-736.2685 c -0.029,0.26088 -0.058,0.49277 -0.058,0.66669 0,1.27541 0.8696,2.11603 2.145,2.11603 0.9276,0 2.145,-0.34784 3.0726,-0.89859 1.7392,-0.98554 2.7537,-2.46386 2.7537,-3.91319 0,-1.0725 -0.1739,-1.3044 -1.8261,-2.31893 -0.9856,-0.6377 -1.3914,-1.18845 -1.3914,-1.9421 0,-0.98554 0.8406,-1.85514 1.8262,-1.85514 0.6667,0 1.1884,0.31885 1.7971,1.13047 0.9856,-0.95655 0.9856,-0.95655 1.3624,-1.5073 -0.5797,-0.69568 -1.1305,-0.98554 -1.9421,-0.98554 -2.116,0 -4.8408,2.49284 -4.8408,4.43495 0,0.89858 0.4638,1.59426 1.5653,2.3769 1.4493,1.01453 1.6523,1.27541 1.6523,2.00007 0,1.04352 -1.3334,2.26096 -2.4639,2.26096 -0.6377,0 -1.1305,-0.34784 -1.4204,-0.98555 -0.2029,-0.43479 -0.2608,-0.86959 -0.2898,-1.88412 -0.3189,0.26087 -0.5508,0.40581 -0.6667,0.49277 -0.2319,0.14493 -0.4928,0.28986 -0.7537,0.46378 -0.029,0 -0.2898,0.20291 -0.5217,0.34784 z"
           style="text-align:center;text-anchor:middle"
           id="path4300" />
        <path
           d="m 1928.7882,-737.68884 c -2.203,1.5073 -3.2175,2.11602 -3.5944,2.11602 -0.3188,0 -0.5507,-0.40581 -0.5507,-0.95656 0,-0.66669 0.2319,-1.82615 0.7247,-3.6813 0.2898,-1.10149 0.5797,-2.20298 0.6087,-2.3769 0.2609,-1.10149 0.4638,-1.82615 0.5217,-2.02906 0.087,-0.31885 0.145,-0.60872 0.145,-0.78264 0,-0.23189 -0.145,-0.37682 -0.3479,-0.37682 -0.2898,0 -2.3769,1.13047 -4.4929,2.43487 l -0.2029,0.78264 c 1.2464,-0.63771 1.7682,-0.84061 2.116,-0.84061 0.2319,0 0.4058,0.2029 0.4058,0.55074 0,0.40582 -0.2608,1.53629 -0.8116,3.59434 -0.7247,2.72474 -0.8986,3.50738 -0.8986,4.34799 0,0.81163 0.3479,1.42035 0.8116,1.42035 0.4348,0 0.9276,-0.26088 2.4059,-1.21744 2.261,-1.44933 2.261,-1.44933 2.9857,-1.9421 -0.2609,0.98554 -0.4059,1.97109 -0.4059,2.49284 0,0.40582 0.2029,0.6667 0.5218,0.6667 0.5797,0 3.3045,-1.59427 5.3045,-3.10157 l 0.203,-0.8696 c -2.0581,1.21744 -3.0147,1.7392 -3.3335,1.7392 -0.2029,0 -0.3189,-0.20291 -0.3189,-0.69568 0,-1.47832 1.0436,-5.76833 2.319,-9.47862 -0.3769,0.20291 -0.6377,0.34784 -0.7537,0.40581 -0.3478,0.17392 -0.6957,0.34784 -1.0725,0.49278 -0.087,0.058 -0.2609,0.14493 -0.5797,0.31885 -0.2029,0.72466 -0.6667,2.66677 -1.4204,5.8263 z"
           style="text-align:center;text-anchor:middle"
           id="path4302" />
        <path
           d="m 1937.3102,-734.41336 1.7102,-6.81185 0.7247,-0.46378 c 2.6957,-1.68122 3.0146,-1.85514 3.4204,-1.85514 0.1739,0 0.2899,0.14493 0.2899,0.37682 0,0.46379 -0.2029,1.3044 -1.0725,4.84076 -0.6378,2.55082 -0.7537,3.07258 -0.7537,3.62333 0,0.40581 0.1159,0.75365 0.4348,1.3044 1.3044,-0.57974 3.3335,-1.85515 5.3625,-3.36245 l 0.2029,-0.81162 c -2.8117,1.62324 -3.0146,1.7102 -3.3044,1.7102 -0.2899,0 -0.4638,-0.28986 -0.4638,-0.78263 0,-0.78264 0.1159,-1.27541 1.3913,-5.88428 0.7247,-2.57981 0.7247,-2.57981 0.7247,-2.75373 0,-0.31885 -0.2029,-0.49277 -0.5508,-0.49277 -0.6377,0 -0.7246,0.058 -3.8552,1.97109 -1.1594,0.72466 -1.9131,1.18845 -2.2609,1.42034 0.2898,-1.01453 0.6957,-2.78271 0.6957,-3.01461 0,-0.23189 -0.145,-0.37682 -0.3769,-0.37682 -0.3188,0 -2.2899,1.01453 -4.5509,2.34791 l -0.1739,0.75365 c 1.8552,-0.84061 1.9711,-0.86959 2.232,-0.86959 0.2029,0 0.3478,0.17392 0.3478,0.40581 0,0.6377 -0.5217,2.95663 -1.2754,5.65239 l -0.6667,2.34791 c -0.058,0.20291 -0.2029,0.75365 -0.4058,1.56528 z"
           style="text-align:center;text-anchor:middle"
           id="path4304" />
        <path
           d="m 1960.2966,-737.65985 -0.8117,0.52175 c -0.7246,0.49278 -1.2174,0.84062 -1.3623,0.92758 -0.6088,0.37682 -1.1595,0.6377 -1.3044,0.6377 -0.2319,0 -0.4059,-0.31885 -0.4059,-0.75365 0,-0.95656 2.4059,-11.44971 3.0436,-13.24688 0.6377,-1.73919 1.2755,-2.40589 2.319,-2.40589 0.4058,0 0.6667,0.058 1.3334,0.2319 l 1.0145,-1.62325 c -0.4348,-0.087 -0.6377,-0.11595 -0.9276,-0.11595 -0.6957,0 -1.1015,0.11595 -1.7392,0.49277 -0.7246,0.40582 -1.7102,1.15947 -2.5218,1.91312 -1.4204,1.36237 -1.5073,1.56528 -2.261,4.5509 -0.029,0.11594 -0.1159,0.52175 -0.2319,0.92757 -0.5217,-0.11595 -0.9275,-0.17392 -1.1884,-0.17392 -0.8986,0 -3.3914,1.56527 -4.5509,2.84068 -0.9856,1.13048 -2.29,5.21759 -2.29,7.21767 0,1.10149 0.5798,2.23197 1.1015,2.23197 0.5508,0 1.8842,-0.81163 4.8698,-2.98562 -0.1449,0.78263 -0.2319,1.53629 -0.2319,2.08703 0,0.57973 0.2029,0.89859 0.6377,0.89859 0.4638,0 2.9856,-1.53629 5.3915,-3.27549 z m -5.6814,0.11594 c -2.4639,1.7392 -3.1016,2.11602 -3.5074,2.11602 -0.4058,0 -0.6087,-0.40581 -0.6087,-1.27541 0,-0.95655 0.1739,-2.02906 0.5217,-3.33346 0.8117,-2.92764 1.9711,-4.37697 3.4494,-4.37697 0.5508,0 0.9276,0.2029 1.5074,0.78264 z"
           style="text-align:center;text-anchor:middle"
           id="path4306" />
        <path
           d="m 1969.6592,-737.83377 c -2.3189,1.97108 -3.5654,2.69575 -4.6669,2.69575 -0.7536,0 -1.3333,-0.49277 -1.5363,-1.24642 -0.1159,-0.46379 -0.1449,-0.78264 -0.1449,-1.62325 1.3334,-0.84062 2.145,-1.42035 3.8552,-2.69576 1.5943,-1.18845 2.174,-2.14501 2.174,-3.4494 0,-1.01453 -0.6087,-1.62325 -1.6522,-1.62325 -0.6377,0 -1.0725,0.14493 -1.7682,0.52176 -1.1015,0.6377 -2.087,1.42034 -2.6668,2.11602 -1.1014,1.33338 -2.087,4.52191 -2.087,6.86982 0,1.71021 0.8986,2.78272 2.3769,2.78272 1.7102,0 3.9132,-1.27541 6.0872,-3.50738 z m -6.2611,-1.21744 c 0.4927,-3.13055 1.7971,-5.50746 3.0726,-5.50746 0.4637,0 0.7826,0.46379 0.7826,1.18846 0,1.44933 -0.8406,2.3769 -3.8552,4.319 z"
           style="text-align:center;text-anchor:middle"
           id="path4308" />
        <path
           d="m 1971.1085,-733.57274 2.2319,-0.84062 2.174,-8.26118 c 0.9856,-0.75365 1.6523,-1.01453 2.4349,-1.01453 0.6377,0 1.0145,0.2319 1.5363,0.89859 l 0.8696,-2.75373 c -0.5218,-0.17392 -0.7827,-0.23189 -1.0725,-0.23189 -0.5508,0 -1.1305,0.26088 -1.9131,0.81162 -0.3769,0.28987 -0.7537,0.57973 -1.1595,0.84061 -0.1739,0.14494 -0.3768,0.28987 -0.5507,0.40582 l 0.3478,-1.7392 c 0,-0.17392 -0.1739,-0.31885 -0.3768,-0.31885 -0.3769,0 -2.9277,1.24642 -4.6959,2.28994 l -0.087,0.78264 c 1.6812,-0.81163 1.7102,-0.84061 2.087,-0.84061 0.3768,0 0.5508,0.2029 0.5508,0.60871 0,0.40582 -0.2899,1.7392 -0.6377,3.01461 z"
           style="text-align:center;text-anchor:middle"
           id="path4310" />
        <path
           d="m 1994.6745,-737.54391 c -2.203,1.59426 -3.7682,2.40589 -4.6958,2.40589 -1.0435,0 -1.6522,-0.81163 -1.6522,-2.20298 0,-1.42035 0.3478,-3.2465 0.8986,-4.60887 0.6087,-1.53629 1.3333,-2.31893 2.1739,-2.31893 0.6957,0 1.0725,0.55075 1.2175,1.82616 l 1.6812,-0.98555 c 0.029,-0.14493 0.029,-0.28986 0.029,-0.34784 0,-1.24642 -0.6377,-2.00007 -1.6522,-2.00007 -0.5508,0 -0.8117,0.11594 -1.8842,0.81162 -2.174,1.36237 -2.6378,1.79717 -3.2755,2.98562 -0.8116,1.56528 -1.4203,4.02914 -1.4203,5.82631 0,1.71021 0.7536,2.66677 2.116,2.66677 1.3914,0 3.7103,-1.13048 6.4061,-3.13056 z"
           style="text-align:center;text-anchor:middle"
           id="path4312" />
        <path
           d="m 2003.8342,-745.7761 c -1.1594,0 -3.0146,0.84061 -4.7248,2.11602 -1.8551,1.39136 -3.1595,4.40596 -3.1595,7.30462 0,1.7392 0.9855,2.86968 2.5218,2.86968 0.8116,0 1.6523,-0.28987 2.9567,-0.98555 1.4493,-0.81162 2.4058,-1.53629 2.9276,-2.20298 1.1595,-1.59426 2.087,-4.43495 2.087,-6.43503 0,-1.56527 -1.0725,-2.66676 -2.6088,-2.66676 z m -1.5073,1.36237 c 1.1595,0 1.8842,1.10149 1.8842,2.86967 0,1.24642 -0.4058,2.72474 -1.1015,4.14508 -0.8406,1.65224 -1.8841,2.55083 -2.9856,2.55083 -1.1885,0 -1.9421,-1.07251 -1.9421,-2.72474 0,-3.36245 2.116,-6.84084 4.145,-6.84084 z"
           style="text-align:center;text-anchor:middle"
           id="path4314" />
        <path
           d="m 2009.7765,-734.41336 1.7102,-6.81185 0.7247,-0.46378 c 2.6957,-1.68122 3.0146,-1.85514 3.4204,-1.85514 0.1739,0 0.2899,0.14493 0.2899,0.37682 0,0.46379 -0.203,1.3044 -1.0726,4.84076 -0.6377,2.55082 -0.7536,3.07258 -0.7536,3.62333 0,0.40581 0.1159,0.75365 0.4348,1.3044 1.3044,-0.57974 3.3335,-1.85515 5.3625,-3.36245 l 0.2029,-0.81162 c -2.8117,1.62324 -3.0146,1.7102 -3.3044,1.7102 -0.2899,0 -0.4638,-0.28986 -0.4638,-0.78263 0,-0.78264 0.1159,-1.27541 1.3913,-5.88428 0.7247,-2.57981 0.7247,-2.57981 0.7247,-2.75373 0,-0.31885 -0.2029,-0.49277 -0.5508,-0.49277 -0.6377,0 -0.7246,0.058 -3.8552,1.97109 -1.1594,0.72466 -1.9131,1.18845 -2.2609,1.42034 0.2898,-1.01453 0.6956,-2.78271 0.6956,-3.01461 0,-0.23189 -0.1449,-0.37682 -0.3768,-0.37682 -0.3188,0 -2.2899,1.01453 -4.5509,2.34791 l -0.1739,0.75365 c 1.8551,-0.84061 1.9711,-0.86959 2.232,-0.86959 0.2029,0 0.3478,0.17392 0.3478,0.40581 0,0.6377 -0.5217,2.95663 -1.2754,5.65239 l -0.6667,2.34791 c -0.058,0.20291 -0.2029,0.75365 -0.4058,1.56528 z"
           style="text-align:center;text-anchor:middle"
           id="path4316" />
        <path
           d="m 2019.6029,-736.2685 c -0.029,0.26088 -0.058,0.49277 -0.058,0.66669 0,1.27541 0.8696,2.11603 2.1451,2.11603 0.9275,0 2.145,-0.34784 3.0725,-0.89859 1.7392,-0.98554 2.7538,-2.46386 2.7538,-3.91319 0,-1.0725 -0.174,-1.3044 -1.8262,-2.31893 -0.9855,-0.6377 -1.3914,-1.18845 -1.3914,-1.9421 0,-0.98554 0.8407,-1.85514 1.8262,-1.85514 0.6667,0 1.1885,0.31885 1.7972,1.13047 0.9855,-0.95655 0.9855,-0.95655 1.3623,-1.5073 -0.5797,-0.69568 -1.1304,-0.98554 -1.9421,-0.98554 -2.116,0 -4.8407,2.49284 -4.8407,4.43495 0,0.89858 0.4638,1.59426 1.5653,2.3769 1.4493,1.01453 1.6522,1.27541 1.6522,2.00007 0,1.04352 -1.3334,2.26096 -2.4639,2.26096 -0.6377,0 -1.1305,-0.34784 -1.4203,-0.98555 -0.2029,-0.43479 -0.2609,-0.86959 -0.2899,-1.88412 -0.3188,0.26087 -0.5507,0.40581 -0.6667,0.49277 -0.2319,0.14493 -0.4927,0.28986 -0.7536,0.46378 -0.029,0 -0.2899,0.20291 -0.5218,0.34784 z"
           style="text-align:center;text-anchor:middle"
           id="path4318" />
        <path
           d="m 2037.5746,-737.51492 c -2.203,1.33338 -3.1306,1.79717 -3.5364,1.79717 -0.3768,0 -0.8406,-0.72467 -0.8406,-1.36237 0,-0.40581 0.029,-0.49277 0.6667,-3.2465 0.1449,-0.52176 0.2609,-1.07251 0.3768,-1.62325 0.029,-0.087 0.145,-0.55075 0.2029,-0.81163 0.9856,-0.029 1.8842,-0.087 2.8697,-0.14493 l 1.1015,-0.84061 h -3.7103 c 0.145,-0.66669 0.2029,-0.8696 0.2899,-1.3044 0.087,-0.28986 0.2899,-1.0725 0.6957,-2.63778 l 0.1739,-0.75365 -0.4928,0.26088 c -0.1739,0.058 -0.4058,0.17392 -0.7247,0.31885 -0.2029,0.11595 -0.4347,0.20291 -0.6666,0.31885 -0.116,0.058 -0.2319,0.11595 -0.4059,0.17392 l -0.2608,1.18845 -0.3189,1.39136 -0.2319,1.04352 c -0.2609,0.029 -0.4348,0.029 -0.5217,0.029 h -0.6957 c -0.058,0 -0.2029,0 -0.4348,0.029 -0.1449,0.087 -0.2609,0.17392 -0.2899,0.17392 -0.087,0.058 -0.2609,0.20291 -0.5507,0.4348 -0.058,0.029 -0.2029,0.17392 -0.4348,0.31885 h 0.6957 1.3333 0.6377 l -0.2898,1.27541 c -1.2464,5.13063 -1.2464,5.13063 -1.2464,6.0582 0,0.92757 0.6087,1.94211 1.1594,1.94211 0.6377,0 2.6088,-1.18845 5.3915,-3.30448 z"
           style="text-align:center;text-anchor:middle"
           id="path4320" />
        <path
           d="m 2039.3137,-733.57274 2.232,-0.84062 2.174,-8.26118 c 0.9855,-0.75365 1.6522,-1.01453 2.4349,-1.01453 0.6377,0 1.0145,0.2319 1.5363,0.89859 l 0.8696,-2.75373 c -0.5218,-0.17392 -0.7827,-0.23189 -1.0725,-0.23189 -0.5508,0 -1.1305,0.26088 -1.9132,0.81162 -0.3768,0.28987 -0.7536,0.57973 -1.1594,0.84061 -0.1739,0.14494 -0.3768,0.28987 -0.5508,0.40582 l 0.3479,-1.7392 c 0,-0.17392 -0.1739,-0.31885 -0.3769,-0.31885 -0.3768,0 -2.9276,1.24642 -4.6958,2.28994 l -0.087,0.78264 c 1.6812,-0.81163 1.7102,-0.84061 2.087,-0.84061 0.3768,0 0.5507,0.2029 0.5507,0.60871 0,0.40582 -0.2898,1.7392 -0.6377,3.01461 z"
           style="text-align:center;text-anchor:middle"
           id="path4322" />
        <path
           d="m 2055.4592,-737.68884 c -2.203,1.5073 -3.2175,2.11602 -3.5943,2.11602 -0.3189,0 -0.5508,-0.40581 -0.5508,-0.95656 0,-0.66669 0.2319,-1.82615 0.7247,-3.6813 0.2898,-1.10149 0.5797,-2.20298 0.6087,-2.3769 0.2609,-1.10149 0.4638,-1.82615 0.5218,-2.02906 0.087,-0.31885 0.1449,-0.60872 0.1449,-0.78264 0,-0.23189 -0.1449,-0.37682 -0.3479,-0.37682 -0.2898,0 -2.3769,1.13047 -4.4929,2.43487 l -0.2029,0.78264 c 1.2464,-0.63771 1.7682,-0.84061 2.116,-0.84061 0.2319,0 0.4059,0.2029 0.4059,0.55074 0,0.40582 -0.2609,1.53629 -0.8117,3.59434 -0.7246,2.72474 -0.8986,3.50738 -0.8986,4.34799 0,0.81163 0.3479,1.42035 0.8117,1.42035 0.4348,0 0.9275,-0.26088 2.4059,-1.21744 2.2609,-1.44933 2.2609,-1.44933 2.9856,-1.9421 -0.2609,0.98554 -0.4058,1.97109 -0.4058,2.49284 0,0.40582 0.2029,0.6667 0.5217,0.6667 0.5798,0 3.3045,-1.59427 5.3046,-3.10157 l 0.2029,-0.8696 c -2.0581,1.21744 -3.0146,1.7392 -3.3335,1.7392 -0.2029,0 -0.3188,-0.20291 -0.3188,-0.69568 0,-1.47832 1.0435,-5.76833 2.3189,-9.47862 -0.3768,0.20291 -0.6377,0.34784 -0.7537,0.40581 -0.3478,0.17392 -0.6956,0.34784 -1.0725,0.49278 -0.087,0.058 -0.2608,0.14493 -0.5797,0.31885 -0.2029,0.72466 -0.6667,2.66677 -1.4203,5.8263 z"
           style="text-align:center;text-anchor:middle"
           id="path4324" />
        <path
           d="m 2070.3293,-737.54391 c -2.203,1.59426 -3.7683,2.40589 -4.6958,2.40589 -1.0436,0 -1.6523,-0.81163 -1.6523,-2.20298 0,-1.42035 0.3479,-3.2465 0.8986,-4.60887 0.6087,-1.53629 1.3334,-2.31893 2.174,-2.31893 0.6957,0 1.0725,0.55075 1.2174,1.82616 l 1.6813,-0.98555 c 0.029,-0.14493 0.029,-0.28986 0.029,-0.34784 0,-1.24642 -0.6377,-2.00007 -1.6522,-2.00007 -0.5507,0 -0.8116,0.11594 -1.8841,0.81162 -2.174,1.36237 -2.6378,1.79717 -3.2755,2.98562 -0.8116,1.56528 -1.4203,4.02914 -1.4203,5.82631 0,1.71021 0.7536,2.66677 2.116,2.66677 1.3913,0 3.7103,-1.13048 6.406,-3.13056 z"
           style="text-align:center;text-anchor:middle"
           id="path4326" />
        <path
           d="m 2079.3151,-737.51492 c -2.203,1.33338 -3.1306,1.79717 -3.5364,1.79717 -0.3768,0 -0.8406,-0.72467 -0.8406,-1.36237 0,-0.40581 0.029,-0.49277 0.6667,-3.2465 0.1449,-0.52176 0.2609,-1.07251 0.3768,-1.62325 0.029,-0.087 0.1449,-0.55075 0.2029,-0.81163 0.9856,-0.029 1.8842,-0.087 2.8697,-0.14493 l 1.1015,-0.84061 h -3.7103 c 0.1449,-0.66669 0.2029,-0.8696 0.2899,-1.3044 0.087,-0.28986 0.2898,-1.0725 0.6956,-2.63778 l 0.174,-0.75365 -0.4928,0.26088 c -0.1739,0.058 -0.4058,0.17392 -0.7247,0.31885 -0.2029,0.11595 -0.4348,0.20291 -0.6667,0.31885 -0.1159,0.058 -0.2319,0.11595 -0.4058,0.17392 l -0.2609,1.18845 -0.3188,1.39136 -0.2319,1.04352 c -0.2609,0.029 -0.4348,0.029 -0.5218,0.029 h -0.6956 c -0.058,0 -0.2029,0 -0.4348,0.029 -0.145,0.087 -0.2609,0.17392 -0.2899,0.17392 -0.087,0.058 -0.2609,0.20291 -0.5507,0.4348 -0.058,0.029 -0.203,0.17392 -0.4348,0.31885 h 0.6956 1.3334 0.6377 l -0.2898,1.27541 c -1.2465,5.13063 -1.2465,5.13063 -1.2465,6.0582 0,0.92757 0.6087,1.94211 1.1595,1.94211 0.6377,0 2.6088,-1.18845 5.3915,-3.30448 z"
           style="text-align:center;text-anchor:middle"
           id="path4328" />
        <path
           d="m 2086.3009,-751.71836 c -0.8117,0.63771 -1.4784,1.15947 -2.0001,1.50731 0.2029,0.60872 0.4638,1.10149 1.1015,2.02906 0.8116,-0.72467 0.8986,-0.81163 1.8841,-1.56528 -0.087,-0.17392 -0.1449,-0.28986 -0.3768,-0.66669 -0.1739,-0.34784 -0.2029,-0.34784 -0.4348,-0.92757 z m 1.1014,14.4933 -0.4927,0.26088 c -2.0001,1.10149 -2.3479,1.24643 -2.6958,1.24643 -0.3188,0 -0.5217,-0.31885 -0.5217,-0.81163 0,-0.49277 0,-0.49277 0.9565,-4.319 1.0725,-4.40596 1.0725,-4.40596 1.0725,-4.63786 0,-0.17392 -0.1449,-0.28986 -0.3478,-0.28986 -0.4928,0 -2.203,0.95656 -4.5799,2.55082 l -0.058,0.81162 c 1.7682,-0.95655 1.8552,-0.98554 2.116,-0.98554 0.2319,0 0.3479,0.17392 0.3479,0.49277 0,0.40581 -0.087,0.81163 -0.5218,2.46386 -1.3623,5.04367 -1.3623,5.04367 -1.3623,5.79732 0,0.69568 0.2608,1.15947 0.6956,1.15947 0.4928,0 1.2754,-0.37683 2.8117,-1.36237 0.5508,-0.34784 1.1015,-0.69568 1.6523,-1.07251 0.2609,-0.14493 0.4638,-0.28986 0.8116,-0.49277 z"
           style="text-align:center;text-anchor:middle"
           id="path4330" />
        <path
           d="m 2095.7505,-745.7761 c -1.1595,0 -3.0146,0.84061 -4.7249,2.11602 -1.8551,1.39136 -3.1595,4.40596 -3.1595,7.30462 0,1.7392 0.9855,2.86968 2.5218,2.86968 0.8117,0 1.6523,-0.28987 2.9567,-0.98555 1.4493,-0.81162 2.4059,-1.53629 2.9276,-2.20298 1.1595,-1.59426 2.0871,-4.43495 2.0871,-6.43503 0,-1.56527 -1.0726,-2.66676 -2.6088,-2.66676 z m -1.5073,1.36237 c 1.1594,0 1.8841,1.10149 1.8841,2.86967 0,1.24642 -0.4058,2.72474 -1.1015,4.14508 -0.8406,1.65224 -1.8841,2.55083 -2.9856,2.55083 -1.1885,0 -1.9421,-1.07251 -1.9421,-2.72474 0,-3.36245 2.116,-6.84084 4.1451,-6.84084 z"
           style="text-align:center;text-anchor:middle"
           id="path4332" />
        <path
           d="m 2101.6927,-734.41336 1.7102,-6.81185 0.7247,-0.46378 c 2.6957,-1.68122 3.0146,-1.85514 3.4204,-1.85514 0.1739,0 0.2899,0.14493 0.2899,0.37682 0,0.46379 -0.2029,1.3044 -1.0725,4.84076 -0.6377,2.55082 -0.7537,3.07258 -0.7537,3.62333 0,0.40581 0.116,0.75365 0.4348,1.3044 1.3044,-0.57974 3.3335,-1.85515 5.3625,-3.36245 l 0.2029,-0.81162 c -2.8117,1.62324 -3.0146,1.7102 -3.3044,1.7102 -0.2899,0 -0.4638,-0.28986 -0.4638,-0.78263 0,-0.78264 0.1159,-1.27541 1.3913,-5.88428 0.7247,-2.57981 0.7247,-2.57981 0.7247,-2.75373 0,-0.31885 -0.2029,-0.49277 -0.5507,-0.49277 -0.6377,0 -0.7247,0.058 -3.8553,1.97109 -1.1594,0.72466 -1.9131,1.18845 -2.2609,1.42034 0.2898,-1.01453 0.6957,-2.78271 0.6957,-3.01461 0,-0.23189 -0.145,-0.37682 -0.3769,-0.37682 -0.3188,0 -2.2899,1.01453 -4.5509,2.34791 l -0.1739,0.75365 c 1.8552,-0.84061 1.9711,-0.86959 2.232,-0.86959 0.2029,0 0.3478,0.17392 0.3478,0.40581 0,0.6377 -0.5217,2.95663 -1.2754,5.65239 l -0.6667,2.34791 c -0.058,0.20291 -0.2029,0.75365 -0.4058,1.56528 z"
           style="text-align:center;text-anchor:middle"
           id="path4334" />
        <path
           d="m 2113.3743,-735.8337 c 0.2319,0.63771 0.8116,1.56528 1.3623,2.23197 1.1015,-0.81163 1.3624,-1.01453 2.1451,-1.82616 -0.3479,-0.49277 -0.6378,-0.95655 -0.6667,-0.98554 -0.2029,-0.31885 -0.3479,-0.55075 -0.6957,-1.15946 -0.087,0.087 -0.2319,0.2029 -0.4058,0.34783 -0.2319,0.17392 -0.4638,0.37683 -0.6957,0.57974 -0.2029,0.14493 -0.3768,0.28986 -1.0435,0.81162 z"
           style="text-align:center;text-anchor:middle"
           id="path4336" />
        <path
           d="m 1813.3204,-700.58599 -1.2754,3.0146 c 1.0145,1.36237 2.3479,2.00008 4.261,2.00008 4.435,0 8.783,-3.59434 8.783,-7.30462 0,-1.18845 -0.4348,-1.79717 -2.6088,-3.4784 -2.116,-1.65223 -2.4639,-2.145 -2.4639,-3.39143 0,-1.91311 1.4204,-3.50738 3.1306,-3.50738 1.2174,0 1.6522,0.52176 1.9711,2.3769 l 1.9131,-1.36237 c -0.1739,-1.56527 -1.0435,-2.3769 -2.5798,-2.3769 -2.9856,0 -6.3771,3.27549 -6.3771,6.17415 0,1.33338 0.5798,2.23197 2.29,3.56535 1.9711,1.56528 2.4928,2.34792 2.4928,3.6813 0,2.28994 -2.174,4.26103 -4.6958,4.26103 -1.2464,0 -2.5218,-0.55075 -3.3045,-1.42034 -0.6087,-0.6667 -0.8406,-1.27541 -1.0725,-2.55082 z"
           style="text-align:center;text-anchor:middle"
           id="path4338" />
        <path
           d="m 1835.2342,-709.54285 c -1.1594,0 -3.0146,0.84061 -4.7248,2.11602 -1.8551,1.39136 -3.1595,4.40596 -3.1595,7.30462 0,1.7392 0.9855,2.86968 2.5218,2.86968 0.8116,0 1.6523,-0.28987 2.9567,-0.98555 1.4493,-0.81162 2.4058,-1.53629 2.9276,-2.20298 1.1595,-1.59426 2.087,-4.43495 2.087,-6.43502 0,-1.56528 -1.0725,-2.66677 -2.6088,-2.66677 z m -1.5073,1.36237 c 1.1595,0 1.8842,1.10149 1.8842,2.86967 0,1.24643 -0.4058,2.72474 -1.1015,4.14509 -0.8406,1.65223 -1.8842,2.55082 -2.9856,2.55082 -1.1885,0 -1.9421,-1.07251 -1.9421,-2.72474 0,-3.36245 2.116,-6.84084 4.145,-6.84084 z"
           style="text-align:center;text-anchor:middle"
           id="path4340" />
        <path
           d="m 1839.0315,-697.33949 2.2319,-0.84061 2.174,-8.26119 c 0.9856,-0.75365 1.6523,-1.01453 2.4349,-1.01453 0.6377,0 1.0145,0.2319 1.5363,0.89859 l 0.8696,-2.75373 c -0.5218,-0.17392 -0.7826,-0.23189 -1.0725,-0.23189 -0.5507,0 -1.1305,0.26088 -1.9131,0.81162 -0.3768,0.28987 -0.7537,0.57974 -1.1595,0.84061 -0.1739,0.14494 -0.3768,0.28987 -0.5507,0.40582 l 0.3478,-1.7392 c 0,-0.17392 -0.1739,-0.31885 -0.3768,-0.31885 -0.3768,0 -2.9277,1.24642 -4.6958,2.28994 l -0.087,0.78264 c 1.6812,-0.81163 1.7102,-0.84061 2.087,-0.84061 0.3769,0 0.5508,0.2029 0.5508,0.60872 0,0.40581 -0.2899,1.73919 -0.6377,3.0146 z"
           style="text-align:center;text-anchor:middle"
           id="path4342" />
        <path
           d="m 1848.3071,-697.33949 2.232,-0.84061 2.174,-8.26119 c 0.9855,-0.75365 1.6522,-1.01453 2.4349,-1.01453 0.6377,0 1.0145,0.2319 1.5363,0.89859 l 0.8696,-2.75373 c -0.5218,-0.17392 -0.7827,-0.23189 -1.0726,-0.23189 -0.5507,0 -1.1304,0.26088 -1.9131,0.81162 -0.3768,0.28987 -0.7536,0.57974 -1.1594,0.84061 -0.174,0.14494 -0.3769,0.28987 -0.5508,0.40582 l 0.3479,-1.7392 c 0,-0.17392 -0.174,-0.31885 -0.3769,-0.31885 -0.3768,0 -2.9276,1.24642 -4.6958,2.28994 l -0.087,0.78264 c 1.6813,-0.81163 1.7103,-0.84061 2.0871,-0.84061 0.3768,0 0.5507,0.2029 0.5507,0.60872 0,0.40581 -0.2898,1.73919 -0.6377,3.0146 z"
           style="text-align:center;text-anchor:middle"
           id="path4344" />
        <path
           d="m 1855.3798,-690.64359 c 0.9276,0.11595 2.145,0.20291 3.1885,0.20291 2.0291,0 3.1596,-0.55075 4.8408,-2.31893 1.6812,-1.82616 1.7972,-2.11602 2.8117,-6.84084 1.0145,-4.63785 1.5653,-6.78286 2.5508,-10.05835 -0.3768,0.20291 -0.6957,0.37683 -0.8116,0.4348 l -1.0145,0.49277 c -0.2609,0.11595 -0.4348,0.20291 -0.6378,0.31886 l -0.2608,1.04351 -0.6087,2.3769 -0.5798,2.37691 -0.3188,1.24642 c -2.8987,1.79717 -3.0436,1.88413 -3.5654,1.88413 -0.3478,0 -0.6087,-0.37683 -0.6087,-0.92757 0,-0.81163 0.2319,-1.85514 1.2464,-5.68138 0.6957,-2.89866 0.6957,-2.89866 0.6957,-3.10156 0,-0.20291 -0.1449,-0.34784 -0.3189,-0.34784 -0.3188,0 -2.145,0.95656 -4.6088,2.40589 l -0.087,0.78263 c 1.4493,-0.72466 1.6812,-0.81162 2.0001,-0.81162 0.2899,0 0.4348,0.14493 0.4348,0.4348 0,0.52176 -0.2029,1.36237 -0.8986,3.94218 -0.7247,2.63778 -0.8406,3.13055 -0.8406,3.91319 0,0.95656 0.4348,1.62325 1.0145,1.62325 0.3479,0 0.7537,-0.20291 1.7392,-0.81163 2.4929,-1.56527 2.4929,-1.56527 3.7103,-2.43487 l -0.3188,1.53629 c -0.8696,4.14508 -1.0146,4.66684 -1.3624,5.42049 -0.4928,1.01453 -1.3914,1.44933 -3.0146,1.44933 -0.8696,0 -1.5073,-0.11594 -3.2175,-0.52176 z"
           style="text-align:center;text-anchor:middle"
           id="path4346" />
        <path
           d="m 1870.8876,-691.60015 c -0.2319,0.31886 -0.4928,0.63771 -0.7247,0.98555 0.6377,0.087 0.8986,0.11595 1.4204,0.11595 0.9565,0 1.7102,-0.14494 2.174,-0.40582 0.8406,-0.46378 2.3189,-1.88413 3.1015,-2.89866 0.8986,-1.21743 1.9421,-3.6813 2.6088,-6.34806 1.1015,-4.14509 1.6523,-6.2901 1.7102,-6.493 0.2609,0.029 0.3769,0.029 0.4928,0.029 l 1.5073,-0.058 c 0.087,0 0.2609,0 0.5508,0.029 l 1.2174,-0.92757 c -0.8406,-0.029 -1.1595,-0.029 -1.8551,-0.029 -0.6377,0 -0.8986,0 -1.6813,0.029 1.8842,-7.39159 2.29,-8.26118 4.0292,-8.26118 0.5217,0 0.9275,0.058 1.9421,0.23189 l 1.3334,-1.56528 c -0.5798,-0.14493 -0.8117,-0.17392 -1.3914,-0.17392 -1.7682,0 -2.9276,0.60872 -4.8987,2.52184 -1.6233,1.59426 -2.0001,2.40588 -3.1306,7.24665 -0.2899,-0.029 -0.4348,-0.029 -0.5797,-0.029 l -1.4204,0.058 c -0.058,0 -0.2029,0 -0.4348,-0.029 -0.1739,0.11594 -0.3478,0.23189 -0.4058,0.26088 -0.3188,0.17392 -0.3768,0.23189 -0.6377,0.34784 -0.087,0.058 -0.3188,0.17392 -0.5797,0.31885 h 0.7247 l 2.029,0.029 c 0.1739,0 0.4928,0 1.0725,-0.029 -0.4638,1.76818 -0.6377,2.52183 -1.1884,5.07265 -1.7392,8.00031 -2.4059,9.27572 -4.8698,9.27572 -0.4348,0 -0.7826,-0.029 -1.5363,-0.14494 z"
           style="text-align:center;text-anchor:middle"
           id="path4348" />
        <path
           d="m 1891.9898,-709.54285 c -1.1595,0 -3.0146,0.84061 -4.7248,2.11602 -1.8552,1.39136 -3.1596,4.40596 -3.1596,7.30462 0,1.7392 0.9856,2.86968 2.5219,2.86968 0.8116,0 1.6522,-0.28987 2.9566,-0.98555 1.4493,-0.81162 2.4059,-1.53629 2.9276,-2.20298 1.1595,-1.59426 2.0871,-4.43495 2.0871,-6.43502 0,-1.56528 -1.0725,-2.66677 -2.6088,-2.66677 z m -1.5073,1.36237 c 1.1595,0 1.8841,1.10149 1.8841,2.86967 0,1.24643 -0.4058,2.72474 -1.1015,4.14509 -0.8406,1.65223 -1.8841,2.55082 -2.9856,2.55082 -1.1884,0 -1.9421,-1.07251 -1.9421,-2.72474 0,-3.36245 2.116,-6.84084 4.1451,-6.84084 z"
           style="text-align:center;text-anchor:middle"
           id="path4350" />
        <path
           d="m 1895.787,-697.33949 2.232,-0.84061 2.174,-8.26119 c 0.9855,-0.75365 1.6522,-1.01453 2.4349,-1.01453 0.6377,0 1.0145,0.2319 1.5362,0.89859 l 0.8696,-2.75373 c -0.5217,-0.17392 -0.7826,-0.23189 -1.0725,-0.23189 -0.5507,0 -1.1304,0.26088 -1.9131,0.81162 -0.3768,0.28987 -0.7536,0.57974 -1.1594,0.84061 -0.174,0.14494 -0.3769,0.28987 -0.5508,0.40582 l 0.3479,-1.7392 c 0,-0.17392 -0.174,-0.31885 -0.3769,-0.31885 -0.3768,0 -2.9276,1.24642 -4.6958,2.28994 l -0.087,0.78264 c 1.6813,-0.81163 1.7103,-0.84061 2.0871,-0.84061 0.3768,0 0.5507,0.2029 0.5507,0.60872 0,0.40581 -0.2898,1.73919 -0.6377,3.0146 z"
           style="text-align:center;text-anchor:middle"
           id="path4352" />
        <path
           d="m 1922.5126,-701.4266 c -2.116,1.44933 -2.6088,1.73919 -2.8986,1.73919 -0.2029,0 -0.3479,-0.23189 -0.3479,-0.57973 0,-0.78264 0.6667,-3.82623 1.7392,-7.7974 0.3189,-0.46378 0.3769,-0.52175 0.8406,-1.04351 -1.3913,-0.31886 -2.3769,-0.4348 -3.6523,-0.4348 -1.1884,0 -1.7682,0.11594 -2.4928,0.57973 -1.0435,0.60872 -2.261,1.5073 -2.6378,1.91312 -1.1015,1.21743 -2.2899,5.13062 -2.2899,7.47854 0,1.39136 0.4637,2.31893 1.1884,2.31893 0.6377,0 1.5943,-0.57973 5.2176,-3.18853 -0.3189,1.47832 -0.4348,2.20298 -0.4348,2.57981 0,0.40581 0.1739,0.60872 0.4638,0.60872 0.3768,0 0.6087,-0.11595 2.6668,-1.47832 0.9855,-0.66669 1.5362,-1.04352 2.6087,-1.82616 z m -5.1016,-0.20291 c -1.0145,0.75365 -1.5363,1.13048 -1.5653,1.15946 -0.9565,0.60872 -1.7102,0.98555 -2.087,0.98555 -0.4928,0 -0.7537,-0.52176 -0.7537,-1.44933 0,-1.47832 0.4348,-3.39143 1.1885,-5.07266 0.6957,-1.59426 1.3334,-2.20298 2.3189,-2.20298 0.5218,0 1.5073,0.14493 2.4639,0.37683 -0.5798,2.08703 -0.7827,2.86967 -0.8117,3.0146 -0.1739,0.72467 -0.3188,1.44933 -0.4927,2.20299 -0.029,0.14493 -0.116,0.49277 -0.2609,0.98554 z"
           style="text-align:center;text-anchor:middle"
           id="path4354" />
        <path
           d="m 1925.1793,-698.1801 1.7103,-6.81186 0.7246,-0.46378 c 2.6958,-1.68122 3.0146,-1.85514 3.4204,-1.85514 0.174,0 0.2899,0.14493 0.2899,0.37682 0,0.46379 -0.2029,1.3044 -1.0725,4.84076 -0.6377,2.55083 -0.7537,3.07258 -0.7537,3.62333 0,0.40581 0.116,0.75365 0.4348,1.3044 1.3044,-0.57974 3.3335,-1.85515 5.3626,-3.36245 l 0.2029,-0.81162 c -2.8117,1.62325 -3.0146,1.71021 -3.3045,1.71021 -0.2899,0 -0.4638,-0.28987 -0.4638,-0.78264 0,-0.78264 0.116,-1.27541 1.3914,-5.88428 0.7246,-2.57981 0.7246,-2.57981 0.7246,-2.75373 0,-0.31885 -0.2029,-0.49277 -0.5507,-0.49277 -0.6377,0 -0.7247,0.058 -3.8552,1.97109 -1.1595,0.72466 -1.9131,1.18845 -2.261,1.42034 0.2899,-1.01453 0.6957,-2.78271 0.6957,-3.01461 0,-0.23189 -0.1449,-0.37682 -0.3768,-0.37682 -0.3189,0 -2.29,1.01453 -4.5509,2.34791 l -0.1739,0.75365 c 1.8551,-0.84061 1.971,-0.86959 2.2319,-0.86959 0.2029,0 0.3479,0.17392 0.3479,0.40581 0,0.6377 -0.5218,2.95663 -1.2754,5.65239 l -0.6667,2.34791 c -0.058,0.20291 -0.2029,0.75365 -0.4059,1.56528 z"
           style="text-align:center;text-anchor:middle"
           id="path4356" />
        <path
           d="m 1934.1941,-690.64359 c 0.9276,0.11595 2.145,0.20291 3.1886,0.20291 2.029,0 3.1595,-0.55075 4.8407,-2.31893 1.6813,-1.82616 1.7972,-2.11602 2.8117,-6.84084 1.0146,-4.63785 1.5653,-6.78286 2.5508,-10.05835 -0.3768,0.20291 -0.6956,0.37683 -0.8116,0.4348 l -1.0145,0.49277 c -0.2609,0.11595 -0.4348,0.20291 -0.6377,0.31886 l -0.2609,1.04351 -0.6087,2.3769 -0.5797,2.37691 -0.3189,1.24642 c -2.8987,1.79717 -3.0436,1.88413 -3.5653,1.88413 -0.3479,0 -0.6088,-0.37683 -0.6088,-0.92757 0,-0.81163 0.2319,-1.85514 1.2465,-5.68138 0.6956,-2.89866 0.6956,-2.89866 0.6956,-3.10156 0,-0.20291 -0.1449,-0.34784 -0.3188,-0.34784 -0.3189,0 -2.145,0.95656 -4.6089,2.40589 l -0.087,0.78263 c 1.4493,-0.72466 1.6812,-0.81162 2,-0.81162 0.2899,0 0.4348,0.14493 0.4348,0.4348 0,0.52176 -0.2029,1.36237 -0.8986,3.94218 -0.7246,2.63778 -0.8406,3.13055 -0.8406,3.91319 0,0.95656 0.4348,1.62325 1.0146,1.62325 0.3478,0 0.7536,-0.20291 1.7392,-0.81163 2.4928,-1.56527 2.4928,-1.56527 3.7102,-2.43487 l -0.3188,1.53629 c -0.8696,4.14508 -1.0145,4.66684 -1.3624,5.42049 -0.4927,1.01453 -1.3913,1.44933 -3.0146,1.44933 -0.8696,0 -1.5073,-0.11594 -3.2175,-0.52176 z"
           style="text-align:center;text-anchor:middle"
           id="path4358" />
        <path
           d="m 1959.7603,-715.4851 c -0.8116,0.6377 -1.4783,1.15946 -2.0001,1.5073 0.2029,0.60872 0.4638,1.10149 1.1015,2.02906 0.8116,-0.72466 0.8986,-0.81162 1.8841,-1.56528 -0.087,-0.17392 -0.1449,-0.28986 -0.3768,-0.66669 -0.1739,-0.34784 -0.2029,-0.34784 -0.4348,-0.92757 z m 1.1015,14.4933 -0.4928,0.26087 c -2.0001,1.1015 -2.3479,1.24643 -2.6957,1.24643 -0.3189,0 -0.5218,-0.31885 -0.5218,-0.81163 0,-0.49277 0,-0.49277 0.9565,-4.319 1.0726,-4.40596 1.0726,-4.40596 1.0726,-4.63786 0,-0.17392 -0.145,-0.28986 -0.3479,-0.28986 -0.4928,0 -2.203,0.95656 -4.5799,2.55082 l -0.058,0.81162 c 1.7681,-0.95655 1.8551,-0.98554 2.116,-0.98554 0.2319,0 0.3478,0.17392 0.3478,0.49277 0,0.40581 -0.087,0.81163 -0.5217,2.46386 -1.3624,5.04367 -1.3624,5.04367 -1.3624,5.79732 0,0.69568 0.2609,1.15947 0.6957,1.15947 0.4927,0 1.2754,-0.37683 2.8117,-1.36237 0.5507,-0.34784 1.1015,-0.69568 1.6522,-1.07251 0.2609,-0.14493 0.4638,-0.28986 0.8116,-0.49277 z"
           style="text-align:center;text-anchor:middle"
           id="path4360" />
        <path
           d="m 1963.5575,-698.1801 1.7102,-6.81186 0.7247,-0.46378 c 2.6958,-1.68122 3.0146,-1.85514 3.4204,-1.85514 0.1739,0 0.2899,0.14493 0.2899,0.37682 0,0.46379 -0.2029,1.3044 -1.0725,4.84076 -0.6377,2.55083 -0.7537,3.07258 -0.7537,3.62333 0,0.40581 0.116,0.75365 0.4348,1.3044 1.3044,-0.57974 3.3335,-1.85515 5.3626,-3.36245 l 0.2029,-0.81162 c -2.8117,1.62325 -3.0146,1.71021 -3.3045,1.71021 -0.2899,0 -0.4638,-0.28987 -0.4638,-0.78264 0,-0.78264 0.116,-1.27541 1.3914,-5.88428 0.7246,-2.57981 0.7246,-2.57981 0.7246,-2.75373 0,-0.31885 -0.2029,-0.49277 -0.5507,-0.49277 -0.6377,0 -0.7247,0.058 -3.8552,1.97109 -1.1595,0.72466 -1.9132,1.18845 -2.261,1.42034 0.2899,-1.01453 0.6957,-2.78271 0.6957,-3.01461 0,-0.23189 -0.1449,-0.37682 -0.3768,-0.37682 -0.3189,0 -2.29,1.01453 -4.5509,2.34791 l -0.174,0.75365 c 1.8552,-0.84061 1.9711,-0.86959 2.232,-0.86959 0.2029,0 0.3479,0.17392 0.3479,0.40581 0,0.6377 -0.5218,2.95663 -1.2755,5.65239 l -0.6666,2.34791 c -0.058,0.20291 -0.203,0.75365 -0.4059,1.56528 z"
           style="text-align:center;text-anchor:middle"
           id="path4362" />
        <path
           d="m 1983.2394,-701.31066 c -2.203,1.59427 -3.7683,2.40589 -4.6958,2.40589 -1.0435,0 -1.6523,-0.81162 -1.6523,-2.20298 0,-1.42034 0.3479,-3.2465 0.8986,-4.60887 0.6087,-1.53629 1.3334,-2.31893 2.174,-2.31893 0.6957,0 1.0725,0.55075 1.2175,1.82616 l 1.6812,-0.98555 c 0.029,-0.14493 0.029,-0.28986 0.029,-0.34784 0,-1.24642 -0.6377,-2.00007 -1.6523,-2.00007 -0.5507,0 -0.8116,0.11594 -1.8841,0.81162 -2.174,1.36237 -2.6378,1.79717 -3.2755,2.98562 -0.8116,1.56528 -1.4203,4.02914 -1.4203,5.82631 0,1.71021 0.7536,2.66677 2.116,2.66677 1.3913,0 3.7103,-1.13048 6.406,-3.13056 z"
           style="text-align:center;text-anchor:middle"
           id="path4364" />
        <path
           d="m 1992.3991,-709.54285 c -1.1594,0 -3.0146,0.84061 -4.7248,2.11602 -1.8551,1.39136 -3.1595,4.40596 -3.1595,7.30462 0,1.7392 0.9855,2.86968 2.5218,2.86968 0.8116,0 1.6522,-0.28987 2.9566,-0.98555 1.4494,-0.81162 2.4059,-1.53629 2.9277,-2.20298 1.1594,-1.59426 2.087,-4.43495 2.087,-6.43502 0,-1.56528 -1.0725,-2.66677 -2.6088,-2.66677 z m -1.5073,1.36237 c 1.1595,0 1.8841,1.10149 1.8841,2.86967 0,1.24643 -0.4058,2.72474 -1.1015,4.14509 -0.8406,1.65223 -1.8841,2.55082 -2.9856,2.55082 -1.1884,0 -1.9421,-1.07251 -1.9421,-2.72474 0,-3.36245 2.116,-6.84084 4.1451,-6.84084 z"
           style="text-align:center;text-anchor:middle"
           id="path4366" />
        <path
           d="m 1998.3414,-698.1801 1.7102,-6.81186 0.7246,-0.46378 c 2.6958,-1.68122 3.0146,-1.85514 3.4205,-1.85514 0.1739,0 0.2898,0.14493 0.2898,0.37682 0,0.46379 -0.2029,1.3044 -1.0725,4.84076 -0.6377,2.55083 -0.7536,3.07258 -0.7536,3.62333 0,0.40581 0.1159,0.75365 0.4348,1.3044 1.3044,-0.57974 3.3334,-1.85515 5.3625,-3.36245 l 0.2029,-0.81162 c -2.8117,1.62325 -3.0146,1.71021 -3.3045,1.71021 -0.2898,0 -0.4638,-0.28987 -0.4638,-0.78264 0,-0.78264 0.116,-1.27541 1.3914,-5.88428 0.7247,-2.57981 0.7247,-2.57981 0.7247,-2.75373 0,-0.31885 -0.203,-0.49277 -0.5508,-0.49277 -0.6377,0 -0.7247,0.058 -3.8552,1.97109 -1.1595,0.72466 -1.9131,1.18845 -2.261,1.42034 0.2899,-1.01453 0.6957,-2.78271 0.6957,-3.01461 0,-0.23189 -0.1449,-0.37682 -0.3768,-0.37682 -0.3189,0 -2.29,1.01453 -4.5509,2.34791 l -0.1739,0.75365 c 1.8551,-0.84061 1.9711,-0.86959 2.2319,-0.86959 0.2029,0 0.3479,0.17392 0.3479,0.40581 0,0.6377 -0.5218,2.95663 -1.2754,5.65239 l -0.6667,2.34791 c -0.058,0.20291 -0.2029,0.75365 -0.4058,1.56528 z"
           style="text-align:center;text-anchor:middle"
           id="path4368" />
        <path
           d="m 2009.9069,-703.86148 c 0.8407,-2.60879 1.0436,-2.86967 2.1161,-2.92764 1.6232,-0.029 2.058,-0.058 2.7827,-0.2319 -1.7102,1.91312 -2.174,2.49285 -2.5798,3.15954 -0.8406,1.39136 -1.3334,3.0436 -1.3334,4.46394 0,1.33338 0.6087,2.14501 1.5653,2.14501 2.2899,0 5.3045,-2.40589 7.3046,-5.82631 1.1595,-1.9421 1.9131,-4.20306 1.9131,-5.65239 0,-0.69568 -0.2029,-1.0725 -0.7536,-1.56527 -0.6957,0.2029 -1.0146,0.31885 -1.9421,0.78263 0.3478,0.78264 0.4637,1.21744 0.4637,2.02907 0,1.76818 -0.5217,3.59434 -1.5073,5.27556 -1.1304,1.91311 -2.7247,3.30447 -3.7972,3.30447 -0.6667,0 -1.1595,-0.75365 -1.1595,-1.7392 0,-1.33338 0.4638,-2.92764 1.2754,-4.37697 0.5798,-1.04352 1.1595,-1.82616 2.4929,-3.36245 v -0.2029 c 0,-0.058 0,-0.17392 -0.029,-0.31886 h -0.2899 c -0.3188,0.40582 -0.6377,0.49278 -1.5363,0.49278 -0.3768,0 -0.7246,0 -1.6232,-0.058 -0.7247,-0.029 -1.2174,-0.058 -1.4204,-0.058 -0.5797,0 -0.8406,0.087 -1.0145,0.31885 -0.3768,0.46379 -0.8406,1.65224 -1.4203,3.73927 z"
           style="text-align:center;text-anchor:middle"
           id="path4370" />
        <path
           d="m 2027.7627,-715.4851 c -0.8117,0.6377 -1.4784,1.15946 -2.0001,1.5073 0.2029,0.60872 0.4638,1.10149 1.1015,2.02906 0.8116,-0.72466 0.8986,-0.81162 1.8841,-1.56528 -0.087,-0.17392 -0.1449,-0.28986 -0.3768,-0.66669 -0.1739,-0.34784 -0.2029,-0.34784 -0.4348,-0.92757 z m 1.1014,14.4933 -0.4927,0.26087 c -2.0001,1.1015 -2.3479,1.24643 -2.6958,1.24643 -0.3188,0 -0.5217,-0.31885 -0.5217,-0.81163 0,-0.49277 0,-0.49277 0.9565,-4.319 1.0725,-4.40596 1.0725,-4.40596 1.0725,-4.63786 0,-0.17392 -0.1449,-0.28986 -0.3478,-0.28986 -0.4928,0 -2.203,0.95656 -4.5799,2.55082 l -0.058,0.81162 c 1.7682,-0.95655 1.8552,-0.98554 2.116,-0.98554 0.2319,0 0.3479,0.17392 0.3479,0.49277 0,0.40581 -0.087,0.81163 -0.5218,2.46386 -1.3623,5.04367 -1.3623,5.04367 -1.3623,5.79732 0,0.69568 0.2608,1.15947 0.6956,1.15947 0.4928,0 1.2754,-0.37683 2.8117,-1.36237 0.5508,-0.34784 1.1015,-0.69568 1.6523,-1.07251 0.2609,-0.14493 0.4638,-0.28986 0.8116,-0.49277 z"
           style="text-align:center;text-anchor:middle"
           id="path4372" />
        <path
           d="m 2031.5599,-698.1801 1.7102,-6.81186 0.7247,-0.46378 c 2.6957,-1.68122 3.0146,-1.85514 3.4204,-1.85514 0.1739,0 0.2899,0.14493 0.2899,0.37682 0,0.46379 -0.2029,1.3044 -1.0725,4.84076 -0.6378,2.55083 -0.7537,3.07258 -0.7537,3.62333 0,0.40581 0.1159,0.75365 0.4348,1.3044 1.3044,-0.57974 3.3335,-1.85515 5.3625,-3.36245 l 0.2029,-0.81162 c -2.8117,1.62325 -3.0146,1.71021 -3.3044,1.71021 -0.2899,0 -0.4638,-0.28987 -0.4638,-0.78264 0,-0.78264 0.1159,-1.27541 1.3913,-5.88428 0.7247,-2.57981 0.7247,-2.57981 0.7247,-2.75373 0,-0.31885 -0.2029,-0.49277 -0.5508,-0.49277 -0.6377,0 -0.7246,0.058 -3.8552,1.97109 -1.1594,0.72466 -1.9131,1.18845 -2.2609,1.42034 0.2898,-1.01453 0.6957,-2.78271 0.6957,-3.01461 0,-0.23189 -0.145,-0.37682 -0.3769,-0.37682 -0.3188,0 -2.2899,1.01453 -4.5509,2.34791 l -0.1739,0.75365 c 1.8552,-0.84061 1.9711,-0.86959 2.232,-0.86959 0.2029,0 0.3478,0.17392 0.3478,0.40581 0,0.6377 -0.5217,2.95663 -1.2754,5.65239 l -0.6667,2.34791 c -0.058,0.20291 -0.2029,0.75365 -0.4058,1.56528 z"
           style="text-align:center;text-anchor:middle"
           id="path4374" />
        <path
           d="m 2048.0532,-715.4851 c -0.8116,0.6377 -1.4783,1.15946 -2,1.5073 0.2029,0.60872 0.4637,1.10149 1.1015,2.02906 0.8116,-0.72466 0.8985,-0.81162 1.8841,-1.56528 -0.087,-0.17392 -0.1449,-0.28986 -0.3768,-0.66669 -0.174,-0.34784 -0.2029,-0.34784 -0.4348,-0.92757 z m 1.1015,14.4933 -0.4927,0.26087 c -2.0001,1.1015 -2.348,1.24643 -2.6958,1.24643 -0.3188,0 -0.5218,-0.31885 -0.5218,-0.81163 0,-0.49277 0,-0.49277 0.9566,-4.319 1.0725,-4.40596 1.0725,-4.40596 1.0725,-4.63786 0,-0.17392 -0.1449,-0.28986 -0.3478,-0.28986 -0.4928,0 -2.203,0.95656 -4.5799,2.55082 l -0.058,0.81162 c 1.7682,-0.95655 1.8552,-0.98554 2.116,-0.98554 0.2319,0 0.3479,0.17392 0.3479,0.49277 0,0.40581 -0.087,0.81163 -0.5218,2.46386 -1.3624,5.04367 -1.3624,5.04367 -1.3624,5.79732 0,0.69568 0.2609,1.15947 0.6957,1.15947 0.4928,0 1.2754,-0.37683 2.8117,-1.36237 0.5508,-0.34784 1.1015,-0.69568 1.6523,-1.07251 0.2608,-0.14493 0.4637,-0.28986 0.8116,-0.49277 z"
           style="text-align:center;text-anchor:middle"
           id="path4376" />
        <path
           d="m 2058.1116,-701.60052 c -2.3189,1.97109 -3.5654,2.69575 -4.6668,2.69575 -0.7537,0 -1.3334,-0.49277 -1.5363,-1.24642 -0.116,-0.46379 -0.145,-0.78264 -0.145,-1.62325 1.3334,-0.84061 2.145,-1.42035 3.8552,-2.69576 1.5943,-1.18845 2.174,-2.14501 2.174,-3.4494 0,-1.01453 -0.6087,-1.62325 -1.6522,-1.62325 -0.6377,0 -1.0725,0.14493 -1.7682,0.52176 -1.1015,0.6377 -2.087,1.42034 -2.6667,2.11602 -1.1015,1.33338 -2.0871,4.52191 -2.0871,6.86982 0,1.71021 0.8986,2.78272 2.3769,2.78272 1.7102,0 3.9132,-1.27541 6.0872,-3.50738 z m -6.2611,-1.21744 c 0.4928,-3.13055 1.7972,-5.50745 3.0726,-5.50745 0.4638,0 0.7826,0.46378 0.7826,1.18845 0,1.44933 -0.8406,2.3769 -3.8552,4.319 z"
           style="text-align:center;text-anchor:middle"
           id="path4378" />
        <path
           d="m 2061.7059,-698.1801 1.7102,-6.81186 0.7247,-0.46378 c 2.6957,-1.68122 3.0146,-1.85514 3.4204,-1.85514 0.1739,0 0.2898,0.14493 0.2898,0.37682 0,0.46379 -0.2029,1.3044 -1.0725,4.84076 -0.6377,2.55083 -0.7536,3.07258 -0.7536,3.62333 0,0.40581 0.1159,0.75365 0.4348,1.3044 1.3044,-0.57974 3.3334,-1.85515 5.3625,-3.36245 l 0.2029,-0.81162 c -2.8117,1.62325 -3.0146,1.71021 -3.3045,1.71021 -0.2898,0 -0.4637,-0.28987 -0.4637,-0.78264 0,-0.78264 0.1159,-1.27541 1.3913,-5.88428 0.7247,-2.57981 0.7247,-2.57981 0.7247,-2.75373 0,-0.31885 -0.2029,-0.49277 -0.5508,-0.49277 -0.6377,0 -0.7246,0.058 -3.8552,1.97109 -1.1595,0.72466 -1.9131,1.18845 -2.2609,1.42034 0.2898,-1.01453 0.6956,-2.78271 0.6956,-3.01461 0,-0.23189 -0.1449,-0.37682 -0.3768,-0.37682 -0.3188,0 -2.2899,1.01453 -4.5509,2.34791 l -0.1739,0.75365 c 1.8551,-0.84061 1.9711,-0.86959 2.232,-0.86959 0.2029,0 0.3478,0.17392 0.3478,0.40581 0,0.6377 -0.5218,2.95663 -1.2754,5.65239 l -0.6667,2.34791 c -0.058,0.20291 -0.2029,0.75365 -0.4058,1.56528 z"
           style="text-align:center;text-anchor:middle"
           id="path4380" />
        <path
           d="m 2081.3878,-701.31066 c -2.203,1.59427 -3.7683,2.40589 -4.6959,2.40589 -1.0435,0 -1.6522,-0.81162 -1.6522,-2.20298 0,-1.42034 0.3478,-3.2465 0.8986,-4.60887 0.6087,-1.53629 1.3334,-2.31893 2.174,-2.31893 0.6957,0 1.0725,0.55075 1.2174,1.82616 l 1.6812,-0.98555 c 0.029,-0.14493 0.029,-0.28986 0.029,-0.34784 0,-1.24642 -0.6377,-2.00007 -1.6522,-2.00007 -0.5508,0 -0.8116,0.11594 -1.8841,0.81162 -2.174,1.36237 -2.6378,1.79717 -3.2755,2.98562 -0.8117,1.56528 -1.4204,4.02914 -1.4204,5.82631 0,1.71021 0.7537,2.66677 2.116,2.66677 1.3914,0 3.7103,-1.13048 6.4061,-3.13056 z"
           style="text-align:center;text-anchor:middle"
           id="path4382" />
        <path
           d="m 2091.2141,-701.60052 c -2.3189,1.97109 -3.5653,2.69575 -4.6668,2.69575 -0.7537,0 -1.3334,-0.49277 -1.5363,-1.24642 -0.1159,-0.46379 -0.1449,-0.78264 -0.1449,-1.62325 1.3334,-0.84061 2.145,-1.42035 3.8552,-2.69576 1.5942,-1.18845 2.174,-2.14501 2.174,-3.4494 0,-1.01453 -0.6087,-1.62325 -1.6523,-1.62325 -0.6377,0 -1.0725,0.14493 -1.7681,0.52176 -1.1015,0.6377 -2.0871,1.42034 -2.6668,2.11602 -1.1015,1.33338 -2.087,4.52191 -2.087,6.86982 0,1.71021 0.8985,2.78272 2.3769,2.78272 1.7102,0 3.9132,-1.27541 6.0871,-3.50738 z m -6.2611,-1.21744 c 0.4928,-3.13055 1.7972,-5.50745 3.0726,-5.50745 0.4638,0 0.7826,0.46378 0.7826,1.18845 0,1.44933 -0.8406,2.3769 -3.8552,4.319 z"
           style="text-align:center;text-anchor:middle"
           id="path4384" />
        <path
           d="m 2092.7793,-699.60045 c 0.2609,0.66669 0.8117,1.56528 1.3624,2.23197 1.0725,-0.78264 1.3334,-0.98554 2.145,-1.82616 -0.5218,-0.75365 -0.9855,-1.47831 -1.3624,-2.145 -0.9565,0.78263 -1.6812,1.36237 -2.145,1.73919 z m 1.5073,-2.55082 c 0.6087,-0.34784 0.6377,-0.34784 1.5943,-0.95656 l 0.5797,-1.71021 c 0.2899,-0.84061 0.5508,-1.68122 0.8116,-2.52183 1.7392,-5.30455 1.7392,-5.30455 2.4059,-7.30462 -0.2608,0.11594 -0.5217,0.23189 -0.7826,0.37682 -0.3478,0.14494 -0.6957,0.31885 -1.0145,0.46379 l -0.7827,0.37682 c -0.5217,2.02907 -0.6667,2.57981 -0.9855,3.85522 -0.4928,1.97109 -0.8986,3.65231 -1.3334,5.36252 z"
           style="text-align:center;text-anchor:middle"
           id="path4386" />
      </g>
    </g>
  </g>
</svg>
