<?xml version="1.0" encoding="UTF-8" standalone="no"?>
<svg
   width="1685.1394mm"
   height="1065.2754mm"
   viewBox="0 0 1685.1394 1065.2754"
   version="1.1"
   id="svg8"
   inkscape:version="1.1 (c4e8f9ed74, 2021-05-24)"
   sodipodi:docname="logo-under-construction.svg"
   xmlns:inkscape="http://www.inkscape.org/namespaces/inkscape"
   xmlns:sodipodi="http://sodipodi.sourceforge.net/DTD/sodipodi-0.dtd"
   xmlns="http://www.w3.org/2000/svg"
   xmlns:svg="http://www.w3.org/2000/svg"
   xmlns:rdf="http://www.w3.org/1999/02/22-rdf-syntax-ns#"
   xmlns:cc="http://creativecommons.org/ns#"
   xmlns:dc="http://purl.org/dc/elements/1.1/">
  <defs
     id="defs2" />
  <sodipodi:namedview
     id="base"
     pagecolor="#ffffff"
     bordercolor="#666666"
     borderopacity="1.0"
     inkscape:pageopacity="0.0"
     inkscape:pageshadow="2"
     inkscape:zoom="0.125"
     inkscape:cx="2484"
     inkscape:cy="2632"
     inkscape:document-units="mm"
     inkscape:current-layer="g15745"
     inkscape:document-rotation="0"
     showgrid="false"
     showborder="true"
     inkscape:window-width="1916"
     inkscape:window-height="1061"
     inkscape:window-x="0"
     inkscape:window-y="15"
     inkscape:window-maximized="1"
     inkscape:pagecheckerboard="false"
     inkscape:showpageshadow="true" />
  <metadata
     id="metadata5">
    <rdf:RDF>
      <cc:Work
         rdf:about="">
        <dc:format>image/svg+xml</dc:format>
        <dc:type
           rdf:resource="http://purl.org/dc/dcmitype/StillImage" />
      </cc:Work>
    </rdf:RDF>
  </metadata>
  <g
     inkscape:label="Layer 1"
     inkscape:groupmode="layer"
     id="layer1"
     transform="translate(99.84088,148.11533)">
    <g
       id="g884"
       transform="translate(-98.330723,-185.98567)">
      <g
         id="layer2"
         inkscape:label="Text"
         transform="translate(20.221622,-38.567821)">
        <path
           id="text1582"
           style="font-style:normal;font-weight:normal;font-size:529.167px;line-height:1.25;font-family:sans-serif;fill:#c30b38;fill-opacity:1;stroke:none;stroke-width:0.999999"
           transform="scale(0.26458333)"
           d="m 438.67383,798.38867 c -34.00002,0 -151.9999,65.99993 -316,176 l -4,56.00003 c 122.00007,-66.0001 127.99999,-68.00003 146,-68.00003 16.00001,0 24,11.99999 24,34 0,28.00003 -5.99998,56.00193 -36,170.00193 -94.00006,348.0002 -94,348 -94,400 0,48.0001 17.99998,80 48,80 34.00002,0 87.99993,-25.9999 194,-94 38.00002,-24 75.99997,-48 114,-74 18.00001,-10 31.99998,-20 56,-34 l 8,-56 -34,18 c -138.00009,76.0001 -161.99999,86 -186,86 -22.00002,0 -36,-22 -36,-56 0,-34 -4e-5,-33.9998 66,-298 74.00004,-304.00013 74,-304.00192 74,-320.00193 0,-12.00001 -9.99999,-20 -24,-20 z" />
      </g>
      <g
         inkscape:label="Layer 1"
         id="layer1-67"
         style="display:inline"
         transform="translate(20.221622,-38.567821)">
        <g
           inkscape:label="Layer 1"
           id="layer1-6"
           transform="translate(80.213131,91.912739)" />
      </g>
    </g>
    <text
       xml:space="preserve"
       style="font-size:529.167px;line-height:1.25;font-family:Z003;-inkscape-font-specification:Z003;fill:#542538;fill-opacity:1;stroke-width:0;stroke-miterlimit:4;stroke-dasharray:none"
       x="46.640694"
       y="202.59103"
       id="text888"><tspan
         sodipodi:role="line"
         id="tspan886"
         x="46.640694"
         y="202.59103"
         style="fill:#542538;fill-opacity:1;stroke-width:0;stroke-miterlimit:4;stroke-dasharray:none">mage</tspan></text>
    <text
       xml:space="preserve"
       style="font-size:529.167px;line-height:1.25;font-family:Z003;-inkscape-font-specification:Z003;stroke-width:0;stroke-miterlimit:4;stroke-dasharray:none"
       x="-99.034065"
       y="566.50952"
       id="text870"><tspan
         sodipodi:role="line"
         id="tspan868"
         x="-99.034065"
         y="566.50952"
         style="fill:#542538;fill-opacity:1;stroke-width:0;stroke-miterlimit:4;stroke-dasharray:none">so<tspan
   style="fill:#c30b38;fill-opacity:1"
   id="tspan872">u</tspan>rcerer</tspan></text>
    <g
       transform="matrix(-4.3732823,0,0,4.1489473,-7683.9314,3858.1877)"
       style="display:inline"
       id="g15745">
      <path
         d="m -1774.2711,-954.86792 c 0.4453,-1.01594 2.1705,-4.52486 5.6775,-6.995 6.3577,-4.4835 14.2414,-3.62821 18.8768,-0.93691 3.1324,1.82227 5.2903,4.17054 7.0001,7.61821 0.4172,0.84216 1.1951,2.63915 1.7282,5.20993 0.4613,2.22972 0.5058,3.63581 0.58,5.97108 0,1.95125 -3.7069,3.71117 -10.0877,4.56818 -8.93,1.19586 -19.7224,0.15709 -24.1026,-2.3198 -1.2534,-0.70839 -1.8451,-1.46218 -1.8426,-2.19634 0.092,-3.01727 0.204,-6.43549 2.1707,-10.91935 z"
         style="fill:#ffffff;stroke-linejoin:round"
         id="path19-3-0"
         inkscape:connector-curvature="0" />
      <path
         d="m -1764.7572,-936.08809 c 0,0 3.8014,2.04415 9.6284,4.07591 3.5189,1.22483 9.7706,-0.84277 13.0263,-1.70788 3.2599,-0.86192 8.8934,-2.65141 7.3303,-4.21754 -1.5629,-1.56233 -6.0547,-4.89329 -6.0547,-4.89329 0,0 4.277,7.06618 -23.9307,6.7428 z"
         style="fill:#ffbd34;fill-opacity:1;stroke:#ffbd34;stroke-width:0.633166;stroke-linejoin:round;stroke-opacity:1"
         id="path27-6-0"
         inkscape:connector-curvature="0" />
      <path
         sodipodi:nodetypes="csccccc"
         inkscape:connector-curvature="0"
         id="path31-3-3"
         style="fill:#ffbd34;fill-opacity:1;stroke:#ffbd34;stroke-width:0.633166;stroke-linejoin:round;stroke-opacity:1"
         d="m -1738.7453,-941.22671 c 0,2.98032 -8.913,5.39499 -19.9138,5.39499 -10.998,0 -19.9138,-2.41405 -19.9138,-5.39499 2.2952,-1.66272 1.961,-3.06243 1.961,-3.06243 h 35.9986 c 0,0 -0.214,1.63369 1.9731,3.29629 z" />
      <path
         d="m -1774.422,-954.95874 c 0.4452,-1.01521 2.1713,-4.52265 5.6774,-6.99513 6.357,-4.48337 14.2401,-3.6271 18.8767,-0.93616 3.1344,1.82238 5.2911,4.17041 6.9995,7.61526 0.418,0.84216 1.1977,2.63915 1.7282,5.21128 0.46,2.22825 0.505,3.63557 0.5804,5.96789 0,1.95137 -3.7087,3.71424 -10.0905,4.5683 -8.9296,1.19893 -19.7211,0.15697 -24.1,-2.31993 -1.2535,-0.70838 -1.8464,-1.45948 -1.8437,-2.19633 0.096,-3.01248 0.2077,-6.43119 2.1721,-10.91518 z"
         style="fill:#ffd520;stroke-linejoin:round"
         id="path37-0-6"
         inkscape:connector-curvature="0" />
      <path
         d="m -1774.422,-954.95874 c 0.4452,-1.01521 2.1713,-4.52265 5.6774,-6.99513 6.357,-4.48337 14.2401,-3.6271 18.8767,-0.93616 3.1344,1.82238 5.2911,4.17041 6.9995,7.61526 0.418,0.84216 1.1977,2.63915 1.7282,5.21128 0.46,2.22825 0.505,3.63557 0.5804,5.96789 0,1.95137 -3.7087,3.71424 -10.0905,4.5683 -8.9296,1.19893 -19.7211,0.15697 -24.1,-2.31993 -1.2535,-0.70838 -1.8464,-1.45948 -1.8437,-2.19633 0.096,-3.01248 0.2077,-6.43119 2.1721,-10.91518 z"
         style="fill:none;stroke:#000000;stroke-width:0.633166;stroke-linejoin:round"
         id="path41-6-5"
         inkscape:connector-curvature="0" />
      <path
         d="m -1774.422,-954.95874 c 0.4452,-1.01521 2.1713,-4.52265 5.6774,-6.99513 6.357,-4.48337 14.2401,-3.6271 18.8767,-0.93616 3.1344,1.82238 5.2911,4.17041 6.9995,7.61526 0.418,0.84216 1.1977,2.63915 1.7282,5.21128 0.46,2.22825 0.505,3.63557 0.5804,5.96789 0,1.95137 -3.7087,3.71424 -10.0905,4.5683 -8.9296,1.19893 -19.7211,0.15697 -24.1,-2.31993 -1.2535,-0.70838 -1.8464,-1.45948 -1.8437,-2.19633 0.096,-3.01248 0.2077,-6.43119 2.1721,-10.91518 z"
         style="fill:#ffd046;fill-opacity:1;stroke:#fac44b;stroke-linejoin:round;stroke-opacity:1"
         id="path52-0-7"
         inkscape:connector-curvature="0" />
      <path
         d="m -1767.915,-962.62629 c 13.3737,-8.528 26.9474,8.98687 26.5227,20.23415 l 1.2441,0.50196 c -7e-4,-12.25929 -13.2853,-30.32975 -27.7672,-20.73611"
         style="fill:#cccccc;stroke-linejoin:round"
         id="path60-2-9"
         inkscape:connector-curvature="0" />
      <polygon
         transform="matrix(-0.12272793,0,0,0.12272793,-1731.9594,-974.55471)"
         id="polygon62-6-3"
         style="fill:#cccccc;stroke-linejoin:round"
         points="76.865,262.06 61.197,281.15 66.729,266.15 " />
      <path
         d="m -1745.3502,-940.13566 c 0,-11.09583 -6.6212,-28.38329 -18.6117,-24.45845 12.8582,-4.35218 23.8104,11.56833 23.8104,22.70098 l 0.6789,1.84129 -5.2013,1.75427 -0.6765,-1.83772 z"
         style="fill:#ffd467;fill-opacity:1;stroke:none;stroke-width:0.633166;stroke-linecap:round;stroke-linejoin:round"
         id="path64-7-7"
         inkscape:connector-curvature="0" />
      <path
         d="m -1745.349,-940.13566 0.6782,1.84141 -3.0497,-2.13755 c 0.4259,-11.24802 -6.82,-30.72126 -20.1949,-22.19658 14.4819,-9.59106 22.566,10.23183 22.566,22.49358 z"
         style="fill:#cccccc;stroke-linejoin:round"
         id="path70-9-2"
         inkscape:connector-curvature="0" />
      <path
         d="m -1745.349,-940.13566 0.6782,1.84141 -3.0497,-2.13755 c 0.4259,-11.24802 -6.82,-30.72126 -20.1949,-22.19658 14.4819,-9.59106 22.566,10.23183 22.566,22.49358 z"
         style="fill:#ffbd34;fill-opacity:1;stroke:none;stroke-width:0.633166;stroke-linecap:round;stroke-linejoin:round"
         id="path74-7-4"
         inkscape:connector-curvature="0" />
      <polygon
         transform="matrix(-0.12272793,0,0,0.12272793,-1731.9594,-974.55471)"
         id="polygon78-8-4"
         style="fill:#ffbd34;fill-opacity:1;stroke:#ffbd34;stroke-width:5.1591;stroke-linecap:round;stroke-linejoin:round;stroke-opacity:1"
         points="265.49,233.41 267.24,277.31 253.03,251.64 254.68,222.57 " />
      <polygon
         style="stroke-linejoin:round"
         transform="matrix(-0.12272793,0,0,0.12272793,-1731.9594,-974.55471)"
         id="polygon80-2-4"
         points="327.99,223.07 329.73,266.98 320.7,241.3 322.32,217.4 " />
      <path
         inkscape:connector-curvature="0"
         id="path82-9-3"
         style="fill:#ffd467;fill-opacity:1;stroke:#ffd467;stroke-width:0.633166;stroke-linecap:round;stroke-linejoin:round;stroke-opacity:1"
         d="m -1764.7572,-940.52103 c 0,0 -7.3005,-0.90536 -7.6667,-1.27121 -0.3672,-0.36291 0.2126,-5.38788 0.2126,-5.38788 l 7.6696,1.26802 z" />
      <polygon
         transform="matrix(-0.12272793,0,0,0.12272793,-1731.9594,-974.55471)"
         id="polygon84-9-0"
         style="fill:#f4b253;fill-opacity:1;stroke:#f4b253;stroke-width:5.1591;stroke-linecap:round;stroke-linejoin:round;stroke-opacity:1"
         points="317.16,212.24 254.68,222.57 265.49,233.41 327.99,223.07 " />
      <text
         xml:space="preserve"
         style="font-size:2.48456px;line-height:0;font-family:Z003;-inkscape-font-specification:Z003;stroke-width:0.062114"
         x="1859.0071"
         y="-759.83008"
         id="text23570"
         transform="scale(-0.97401395,1.0266793)"><tspan
           sodipodi:role="line"
           id="tspan23568"
           style="stroke-width:0.062114"
           x="1859.0071"
           y="-759.83008" /></text>
      <text
         xml:space="preserve"
         style="font-style:normal;font-variant:normal;font-weight:normal;font-stretch:normal;font-size:28.9866px;line-height:1.25;font-family:Z003;-inkscape-font-specification:Z003;stroke-width:0.062114"
         x="1954.8905"
         y="-733.86261"
         id="text26544"
         transform="scale(-0.97401398,1.0266793)"><tspan
           sodipodi:role="line"
           style="font-style:normal;font-variant:normal;font-weight:normal;font-stretch:normal;font-size:28.9866px;font-family:Z003;-inkscape-font-specification:Z003;text-align:center;text-anchor:middle;stroke-width:0.062114"
           x="1954.8905"
           y="-733.86261"
           id="tspan40458">This page is under construction.</tspan><tspan
           sodipodi:role="line"
           style="font-style:normal;font-variant:normal;font-weight:normal;font-stretch:normal;font-size:28.9866px;font-family:Z003;-inkscape-font-specification:Z003;text-align:center;text-anchor:middle;stroke-width:0.062114"
           x="1954.8905"
           y="-697.62933"
           id="tspan42556">Sorry for any inconvinience!</tspan></text>
    </g>
  </g>
</svg>
