<?xml version="1.0" encoding="UTF-8" standalone="no"?>
<svg
   width="1683.6293mm"
   height="759.37439mm"
   viewBox="0 0 1683.6293 759.37439"
   version="1.1"
   id="svg8"
   inkscape:version="1.1 (c4e8f9ed74, 2021-05-24)"
   sodipodi:docname="logo.svg"
   xmlns:inkscape="http://www.inkscape.org/namespaces/inkscape"
   xmlns:sodipodi="http://sodipodi.sourceforge.net/DTD/sodipodi-0.dtd"
   xmlns="http://www.w3.org/2000/svg"
   xmlns:svg="http://www.w3.org/2000/svg"
   xmlns:rdf="http://www.w3.org/1999/02/22-rdf-syntax-ns#"
   xmlns:cc="http://creativecommons.org/ns#"
   xmlns:dc="http://purl.org/dc/elements/1.1/">
  <defs
     id="defs2" />
  <sodipodi:namedview
     id="base"
     pagecolor="#ffffff"
     bordercolor="#666666"
     borderopacity="1.0"
     inkscape:pageopacity="0.0"
     inkscape:pageshadow="2"
     inkscape:zoom="0.0625"
     inkscape:cx="2312"
     inkscape:cy="3584"
     inkscape:document-units="mm"
     inkscape:current-layer="layer1"
     inkscape:document-rotation="0"
     showgrid="false"
     showborder="true"
     inkscape:window-width="1916"
     inkscape:window-height="1061"
     inkscape:window-x="0"
     inkscape:window-y="15"
     inkscape:window-maximized="1"
     inkscape:pagecheckerboard="0" />
  <metadata
     id="metadata5">
    <rdf:RDF>
      <cc:Work
         rdf:about="">
        <dc:format>image/svg+xml</dc:format>
        <dc:type
           rdf:resource="http://purl.org/dc/dcmitype/StillImage" />
      </cc:Work>
    </rdf:RDF>
  </metadata>
  <g
     inkscape:label="Layer 1"
     inkscape:groupmode="layer"
     id="layer1"
     transform="translate(98.330723,185.98567)">
    <g
       id="g884"
       transform="translate(-98.330723,-185.98567)">
      <g
         id="layer2"
         inkscape:label="Text"
         transform="translate(20.221622,-38.567821)">
        <path
           id="text1582"
           style="font-style:normal;font-weight:normal;font-size:529.167px;line-height:1.25;font-family:sans-serif;fill:#c30b38;fill-opacity:1;stroke:none;stroke-width:0.999999"
           transform="scale(0.26458333)"
           d="m 438.67383,798.38867 c -34.00002,0 -151.9999,65.99993 -316,176 l -4,56.00003 c 122.00007,-66.0001 127.99999,-68.00003 146,-68.00003 16.00001,0 24,11.99999 24,34 0,28.00003 -5.99998,56.00193 -36,170.00193 -94.00006,348.0002 -94,348 -94,400 0,48.0001 17.99998,80 48,80 34.00002,0 87.99993,-25.9999 194,-94 38.00002,-24 75.99997,-48 114,-74 18.00001,-10 31.99998,-20 56,-34 l 8,-56 -34,18 c -138.00009,76.0001 -161.99999,86 -186,86 -22.00002,0 -36,-22 -36,-56 0,-34 -4e-5,-33.9998 66,-298 74.00004,-304.00013 74,-304.00192 74,-320.00193 0,-12.00001 -9.99999,-20 -24,-20 z" />
      </g>
      <g
         inkscape:label="Layer 1"
         id="layer1-67"
         style="display:inline"
         transform="translate(20.221622,-38.567821)">
        <g
           inkscape:label="Layer 1"
           id="layer1-6"
           transform="translate(80.213131,91.912739)">
          <path
             style="fill:#542538;fill-opacity:1;stroke:#000000;stroke-width:0.237018px;stroke-linecap:butt;stroke-linejoin:miter;stroke-opacity:1"
             d="m -54.14592,52.678234 -46.01663,17.354827 c 0,0 52.682937,31.330669 116.294525,31.330669 64.452226,0 126.078655,-26.56634 126.078655,-26.56634 L 91.862561,52.524289 c 0,0 -20.117959,16.139974 -73.098501,16.139974 -53.966834,0 -72.90998,-15.986029 -72.90998,-15.986029 z"
             id="path833"
             sodipodi:nodetypes="ccsccsc" />
          <path
             style="fill:#542538;fill-opacity:1;stroke:#000000;stroke-width:0;stroke-linecap:butt;stroke-linejoin:miter;stroke-miterlimit:4;stroke-dasharray:none;stroke-opacity:1"
             d="m -47.896672,42.162484 c 0,0 15.192999,15.406188 65.187436,15.406188 42.13193,0 69.886982,-13.274585 69.886982,-13.274585 0,0 -61.165938,-64.314556 -36.620076,-62.131865 24.545864,2.182688 27.253138,11.2307874 30.657573,7.096762 4.520907,-5.489763 -52.305165,-53.782844 -69.689994,-40.207922 -21.5057519,16.79274 -59.421921,93.111422 -59.421921,93.111422 z"
             id="path835"
             sodipodi:nodetypes="cscsssc" />
        </g>
      </g>
    </g>
    <g
       aria-label="mage"
       id="text888"
       style="font-size:529.167px;line-height:1.25;font-family:Z003;-inkscape-font-specification:Z003;fill:#542538;stroke-width:0">
      <path
         d="M 95.324057,207.8827 132.89491,193.5952 166.7616,65.007616 c 34.39586,-23.812515 57.15004,-36.512522 64.02921,-36.512522 4.23333,0 6.87917,4.233335 6.87917,11.641673 0,15.87501 -20.10835,95.779223 -42.33336,167.745933 l 40.21669,-14.2875 32.80835,-132.291753 c 30.16252,-19.579179 58.73754,-35.454188 65.08754,-35.454188 4.76251,0 6.87917,3.704168 6.87917,10.054172 0,11.641674 -4.7625,35.454189 -19.05001,89.958389 -7.9375,32.80835 -10.58334,46.03753 -10.58334,58.20837 0,11.11251 2.64584,16.93334 12.70001,23.81251 30.69169,-15.34584 60.32504,-34.39585 89.42922,-57.6792 l 0.52917,-12.17084 c -44.9792,27.51668 -44.9792,27.51668 -52.38753,27.51668 -5.82084,0 -9.52501,-5.29167 -9.52501,-13.75834 0,-12.17084 6.35001,-40.21669 17.46251,-79.375046 16.93335,-58.737536 20.10835,-70.9083771 20.10835,-79.375049 0,-5.29167 -2.64584,-7.937505 -8.46667,-7.937505 -9.52501,0 -42.33336,16.9333439 -106.89174,55.033367 2.11667,-9.525006 2.11667,-9.525006 6.87917,-30.1625182 2.11667,-7.9375049 3.70417,-16.9333438 3.70417,-19.0500117 0,-3.7041691 -2.64583,-5.8208371 -6.87917,-5.8208371 -8.99584,0 -29.10418,11.112507 -105.30423,59.266703 8.46667,-35.9833552 11.11251,-48.154196 11.11251,-51.858365 0,-4.762503 -3.175,-7.408338 -7.93751,-7.408338 -5.29167,0 -11.1125,3.175002 -37.57085,17.9916779 C 102.73239,23.203424 102.73239,23.203424 93.207389,29.553427 L 89.50322,44.370103 c 28.04585,-14.287509 32.80835,-15.875009 39.15836,-15.875009 4.23333,0 7.40834,4.233335 7.40834,10.054172 0,7.937505 -1.58751,14.816676 -22.75419,98.954224 -4.7625,16.93335 -8.99583,34.39586 -13.22917,51.85837 z"
         id="path1158" />
      <path
         d="m 635.07383,133.27016 c -38.62919,26.45835 -47.62503,31.75002 -52.9167,31.75002 -3.70417,0 -6.35,-4.23334 -6.35,-10.58334 0,-14.28751 12.17084,-69.850045 31.75002,-142.345923 5.82083,-8.4666721 6.87917,-9.5250061 15.34584,-19.050012 -25.40002,-5.820837 -43.39169,-7.937505 -66.67504,-7.937505 -21.69585,0 -32.27919,2.116668 -45.50836,10.58334 -19.05001,11.1125068 -41.27503,27.516684 -48.1542,34.925021 -20.10834,22.225014 -41.80419,93.662559 -41.80419,136.525089 0,25.40001 8.46667,42.33335 21.69585,42.33335 11.64167,0 29.10418,-10.58334 95.25005,-58.20836 -5.82083,26.98751 -7.9375,40.21669 -7.9375,47.09586 0,7.40834 3.175,11.1125 8.46667,11.1125 6.87917,0 11.11251,-2.11666 48.68336,-26.98751 17.99168,-12.17084 28.04586,-19.05001 47.62503,-33.33752 z m -93.13339,-3.70417 c -18.52084,13.75834 -28.04585,20.63751 -28.57502,21.16668 -17.46251,11.11251 -31.22085,17.99168 -38.10002,17.99168 -8.99584,0 -13.75834,-9.52501 -13.75834,-26.45835 0,-26.98752 7.9375,-61.912541 21.69584,-92.604227 12.70001,-29.104184 24.34169,-40.2166912 42.33336,-40.2166912 9.52501,0 27.51669,2.6458352 44.9792,6.8791712 -10.58334,38.100023 -14.28751,52.387532 -14.81668,55.033367 -3.175,13.229175 -5.82083,26.458349 -8.99584,40.21669 -0.52916,2.64584 -2.11666,8.99584 -4.7625,17.99168 z"
         id="path1160" />
      <path
         d="m 814.46047,86.703463 c 2.11667,-11.641674 4.7625,-21.695847 6.87917,-30.162519 2.64583,-10.054173 5.29167,-20.108346 7.9375,-29.633351 l 2.64584,-11.641674 c 9.525,-2.645835 10.05417,-2.645835 26.98752,-29.633352 -2.64584,0 -9.52501,0 -61.38338,1.058334 -32.27918,0.529167 -41.80419,2.116668 -57.15003,11.641674 -25.40002,15.345843 -43.39169,30.691685 -54.5042,44.979194 -15.87501,21.16668 -34.92502,84.137551 -34.92502,116.945901 0,13.22918 3.175,22.75419 11.64167,34.39586 -32.27919,28.04585 -41.80419,35.98335 -60.8542,52.38753 -26.45835,23.28335 -38.62919,40.74586 -38.62919,55.56254 0,19.57917 22.75418,30.69168 63.50004,30.69168 48.68336,0 86.78338,-13.75834 122.23757,-44.45003 22.75418,-19.57918 28.04585,-30.69168 39.15836,-83.07921 z M 745.13959,231.69522 c -6.87917,32.27919 -11.64167,43.92086 -21.16668,53.97503 -11.64167,13.75834 -33.33752,20.10835 -64.55837,20.10835 -34.39586,0 -52.9167,-8.99584 -52.9167,-26.45835 0,-21.69585 14.81668,-34.92502 161.39593,-147.63759 z M 704.9229,162.37434 c -9.52501,-9.525 -13.22917,-17.99168 -13.22917,-30.69168 0,-12.17084 2.64583,-25.40002 12.17084,-56.620871 9.525,-31.75002 16.93334,-45.508362 29.10418,-52.916699 9.52501,-6.350004 21.16668,-7.408338 74.08338,-7.408338 h 16.93334 c -22.22501,16.404176 -24.87084,18.520844 -29.63335,26.458349 -4.23333,6.879171 -10.05417,26.987517 -21.69584,71.437549 -8.99584,5.82083 -10.58334,7.40833 -17.46252,12.17084 -12.7,8.99583 -24.87084,18.52084 -36.51252,27.51668 z"
         id="path1162" />
      <path
         d="m 1017.1312,130.09516 c -42.33337,35.98335 -65.08755,49.21253 -85.19589,49.21253 -13.75834,0 -24.34168,-8.99584 -28.04585,-22.75418 -2.11667,-8.46668 -2.64584,-14.28751 -2.64584,-29.63336 24.34168,-15.34584 39.15836,-25.92918 70.37921,-49.212526 29.10417,-21.695847 39.68757,-39.158358 39.68757,-62.970872 0,-18.520845 -11.1125,-29.633352 -30.16256,-29.633352 -11.64168,0 -19.57918,2.645835 -32.27919,9.525006 -20.10834,11.6416738 -38.10002,25.929183 -48.68336,38.62919 -20.10835,24.341682 -38.10002,82.550054 -38.10002,125.412574 0,31.22086 16.40417,50.80003 43.39169,50.80003 31.22085,0 71.43754,-23.28334 111.12504,-64.0292 z M 902.83112,107.87014 C 911.82696,50.720107 935.63948,7.3284138 958.92283,7.3284138 c 8.46667,0 14.2875,8.4666722 14.2875,21.6958462 0,26.45835 -15.34584,43.391694 -70.37921,78.84588 z"
         id="path1164" />
    </g>
    <g
       aria-label="sourcerer"
       id="text870"
       style="font-size:529.167px;line-height:1.25;font-family:Z003;-inkscape-font-specification:Z003;stroke-width:0">
      <path
         d="m -76.279885,522.58866 c -0.529167,4.7625 -1.058334,8.99584 -1.058334,12.17084 0,23.28335 15.87501,38.62919 39.158358,38.62919 16.933344,0 39.15835728,-6.35 56.091701,-16.40417 31.75002,-17.99168 50.270864,-44.9792 50.270864,-71.43755 0,-19.57918 -3.175002,-23.81251 -33.33752,-42.33336 C 16.853506,431.57194 9.4451682,421.51777 9.4451682,407.75942 c 0,-17.99167 15.3458428,-33.86668 33.3375208,-33.86668 12.17084,0 21.695846,5.82083 32.808353,20.63751 C 93.58272,377.06774 93.58272,377.06774 100.46189,367.01357 89.878551,354.31356 79.824378,349.02189 65.007702,349.02189 c -38.62919,0 -88.370887,45.50836 -88.370887,80.96255 0,16.40417 8.466672,29.10418 28.5750172,43.39169 26.4583498,18.52085 30.1625188,23.28335 30.1625188,36.51252 0,19.05002 -24.341682,41.27503 -44.9791946,41.27503 -11.6416734,0 -20.6375124,-6.35001 -25.9291824,-17.99168 -3.704169,-7.9375 -4.762503,-15.87501 -5.29167,-34.39585 -5.820837,4.7625 -10.054173,7.40833 -12.170841,8.99584 -4.233336,2.64583 -8.995839,5.29167 -13.758342,8.46667 -0.529167,0 -5.29167,3.70417 -9.525006,6.35 z"
         style="fill:#542538"
         id="path1139" />
      <path
         d="m 260.27017,349.02189 c -21.16668,0 -55.03337,15.34584 -86.25422,38.62919 -33.86669,25.40001 -57.6792,80.43338 -57.6792,133.35008 0,31.75002 17.99167,52.38753 46.03752,52.38753 14.81668,0 30.16252,-5.29167 53.97504,-17.99168 26.45835,-14.81667 43.92086,-28.04585 53.44586,-40.21669 21.16668,-29.10418 38.10003,-80.96255 38.10003,-117.47507 0,-28.57502 -19.57918,-48.68336 -47.62503,-48.68336 z m -27.51669,24.87085 c 21.16668,0 34.39586,20.10834 34.39586,52.38753 0,22.75418 -7.40834,49.7417 -20.10835,75.67088 -15.34584,30.16252 -34.39585,46.56669 -54.5042,46.56669 -21.69584,0 -35.45419,-19.57917 -35.45419,-49.74169 0,-61.38337 38.62919,-124.88341 75.67088,-124.88341 z"
         style="fill:#542538"
         id="path1141" />
      <path
         d="m 456.59092,496.65948 c -40.21669,27.51668 -58.73754,38.62919 -65.61671,38.62919 -5.82083,0 -10.05417,-7.40834 -10.05417,-17.46251 0,-12.17084 4.23334,-33.33752 13.22918,-67.20421 5.29166,-20.10835 10.58333,-40.21669 11.1125,-43.39169 4.7625,-20.10835 8.46667,-33.33752 9.52501,-37.04169 1.5875,-5.82084 2.64583,-11.11251 2.64583,-14.28751 0,-4.23334 -2.64583,-6.87917 -6.35,-6.87917 -5.29167,0 -43.39169,20.63751 -82.02089,44.45003 l -3.70416,14.2875 c 22.75418,-11.64167 32.27918,-15.34584 38.62919,-15.34584 4.23333,0 7.40833,3.70417 7.40833,10.05417 0,7.40834 -4.7625,28.04585 -14.81667,65.61671 -13.22918,49.7417 -16.40418,64.02921 -16.40418,79.37505 0,14.81668 6.35001,25.92918 14.81668,25.92918 7.9375,0 16.93334,-4.7625 43.92086,-22.22501 41.27502,-26.45835 41.27502,-26.45835 54.5042,-35.45419 -4.7625,17.99168 -7.40834,35.98336 -7.40834,45.50836 0,7.40834 3.70417,12.17084 9.52501,12.17084 10.58334,0 60.32503,-29.10418 96.83756,-56.62087 l 3.70416,-15.87501 c -37.57085,22.22502 -55.03336,31.75002 -60.8542,31.75002 -3.70417,0 -5.82084,-3.70416 -5.82084,-12.7 0,-26.98752 19.05002,-105.30424 42.33336,-173.03761 -6.87917,3.70417 -11.64167,6.35 -13.75834,7.40834 -6.35,3.175 -12.70001,6.35 -19.57918,8.99584 -1.5875,1.05833 -4.7625,2.64583 -10.58334,5.82083 -3.70417,13.22918 -12.17084,48.68337 -25.92918,106.36257 z"
         style="fill:#c30b38"
         id="path1143" />
      <path
         d="m 573.00716,571.80119 40.74586,-15.34584 39.68753,-150.81259 c 17.99167,-13.75835 30.16251,-18.52085 44.45002,-18.52085 11.64168,0 18.52085,4.23334 28.04585,16.40418 l 15.87501,-50.27087 c -9.525,-3.175 -14.28751,-4.23333 -19.57918,-4.23333 -10.05417,0 -20.63751,4.7625 -34.92502,14.81667 -6.87917,5.29167 -13.75834,10.58334 -21.16668,15.34585 -3.175,2.64583 -6.87917,5.29167 -10.05417,7.40833 l 6.35,-31.75002 c 0,-3.175 -3.175,-5.82083 -6.87917,-5.82083 -6.87917,0 -53.44586,22.75418 -85.72505,41.80419 l -1.5875,14.28751 c 30.69169,-14.81668 31.22085,-15.34584 38.10002,-15.34584 6.87917,0 10.05418,3.70417 10.05418,11.1125 0,7.40834 -5.29167,31.75002 -11.64168,55.03337 z"
         style="fill:#542538"
         id="path1145" />
      <path
         d="m 878.86461,499.30531 c -40.21669,29.10419 -68.7917,43.92086 -85.72505,43.92086 -19.05001,0 -30.16252,-14.81667 -30.16252,-40.21669 0,-25.92918 6.35001,-59.2667 16.40418,-84.13755 11.11251,-28.04585 24.34168,-42.33336 39.68752,-42.33336 12.70001,0 19.57918,10.05417 22.22502,33.33752 l 30.69168,-17.99168 c 0.52917,-2.64583 0.52917,-5.29167 0.52917,-6.35 0,-22.75418 -11.64167,-36.51252 -30.16252,-36.51252 -10.05417,0 -14.81667,2.11667 -34.39585,14.81667 -39.68753,24.87085 -48.1542,32.80836 -59.79587,54.5042 -14.81668,28.57502 -25.92918,73.55422 -25.92918,106.36257 0,31.22085 13.75834,48.68336 38.62919,48.68336 25.40001,0 67.73337,-20.63751 116.9459,-57.15003 z"
         style="fill:#542538"
         id="path1147" />
      <path
         d="m 1058.2507,494.01364 c -42.3334,35.98336 -65.08755,49.21253 -85.1959,49.21253 -13.75834,0 -24.34168,-8.99584 -28.04585,-22.75418 -2.11667,-8.46667 -2.64584,-14.28751 -2.64584,-29.63335 24.34169,-15.34584 39.15836,-25.92918 70.37919,-49.21253 29.1042,-21.69585 39.6875,-39.15836 39.6875,-62.97087 0,-18.52085 -11.1125,-29.63335 -30.1625,-29.63335 -11.6416,0 -19.5791,2.64583 -32.27916,9.525 -20.10834,11.64168 -38.10002,25.92919 -48.68336,38.62919 -20.10835,24.34169 -38.10002,82.55005 -38.10002,125.41258 0,31.22085 16.40417,50.80003 43.39169,50.80003 31.22085,0 71.43755,-23.28335 111.12505,-64.0292 z M 943.95062,471.78863 c 8.99583,-57.15004 32.80835,-100.54173 56.09168,-100.54173 8.4667,0 14.2875,8.46667 14.2875,21.69585 0,26.45835 -15.34582,43.39169 -70.37918,78.84588 z"
         style="fill:#542538"
         id="path1149" />
      <path
         d="m 1084.7082,571.80119 40.7458,-15.34584 39.6875,-150.81259 c 17.9917,-13.75835 30.1626,-18.52085 44.4501,-18.52085 11.6416,0 18.5208,4.23334 28.0458,16.40418 l 15.875,-50.27087 c -9.525,-3.175 -14.2875,-4.23333 -19.5792,-4.23333 -10.0541,0 -20.6375,4.7625 -34.925,14.81667 -6.8791,5.29167 -13.7583,10.58334 -21.1667,15.34585 -3.175,2.64583 -6.8791,5.29167 -10.0541,7.40833 l 6.35,-31.75002 c 0,-3.175 -3.175,-5.82083 -6.8792,-5.82083 -6.8792,0 -53.4459,22.75418 -85.7251,41.80419 l -1.5875,14.28751 c 30.6917,-14.81668 31.2209,-15.34584 38.1001,-15.34584 6.8791,0 10.0541,3.70417 10.0541,11.1125 0,7.40834 -5.2916,31.75002 -11.6416,55.03337 z"
         style="fill:#542538"
         id="path1151" />
      <path
         d="m 1390.0368,494.01364 c -42.3333,35.98336 -65.0875,49.21253 -85.1959,49.21253 -13.7583,0 -24.3416,-8.99584 -28.0458,-22.75418 -2.1167,-8.46667 -2.6459,-14.28751 -2.6459,-29.63335 24.3417,-15.34584 39.1584,-25.92918 70.3793,-49.21253 29.1041,-21.69585 39.6875,-39.15836 39.6875,-62.97087 0,-18.52085 -11.1125,-29.63335 -30.1625,-29.63335 -11.6417,0 -19.5792,2.64583 -32.2792,9.525 -20.1084,11.64168 -38.1,25.92919 -48.6834,38.62919 -20.1083,24.34169 -38.1,82.55005 -38.1,125.41258 0,31.22085 16.4042,50.80003 43.3917,50.80003 31.2208,0 71.4375,-23.28335 111.1251,-64.0292 z m -114.3001,-22.22501 c 8.9959,-57.15004 32.8084,-100.54173 56.0917,-100.54173 8.4667,0 14.2876,8.46667 14.2876,21.69585 0,26.45835 -15.3459,43.39169 -70.3793,78.84588 z"
         style="fill:#542538"
         id="path1153" />
      <path
         d="m 1416.4943,571.80119 40.7458,-15.34584 39.6876,-150.81259 c 17.9916,-13.75835 30.1625,-18.52085 44.45,-18.52085 11.6417,0 18.5208,4.23334 28.0458,16.40418 l 15.8751,-50.27087 c -9.5251,-3.175 -14.2876,-4.23333 -19.5792,-4.23333 -10.0542,0 -20.6375,4.7625 -34.925,14.81667 -6.8792,5.29167 -13.7584,10.58334 -21.1667,15.34585 -3.175,2.64583 -6.8792,5.29167 -10.0542,7.40833 l 6.35,-31.75002 c 0,-3.175 -3.175,-5.82083 -6.8792,-5.82083 -6.8791,0 -53.4458,22.75418 -85.725,41.80419 l -1.5875,14.28751 c 30.6917,-14.81668 31.2208,-15.34584 38.1,-15.34584 6.8792,0 10.0542,3.70417 10.0542,11.1125 0,7.40834 -5.2917,31.75002 -11.6417,55.03337 z"
         style="fill:#542538"
         id="path1155" />
    </g>
  </g>
</svg>
