<?xml version="1.0" encoding="UTF-8" standalone="no"?>
<!-- Created with Inkscape (http://www.inkscape.org/) -->

<svg
   width="39.687256mm"
   height="7.9374747mm"
   viewBox="0 0 39.687256 7.9374747"
   version="1.1"
   id="svg5"
   inkscape:version="1.1 (c4e8f9ed74, 2021-05-24)"
   sodipodi:docname="contribute.svg"
   xmlns:inkscape="http://www.inkscape.org/namespaces/inkscape"
   xmlns:sodipodi="http://sodipodi.sourceforge.net/DTD/sodipodi-0.dtd"
   xmlns="http://www.w3.org/2000/svg"
   xmlns:svg="http://www.w3.org/2000/svg">
  <sodipodi:namedview
     id="namedview7"
     pagecolor="#505050"
     bordercolor="#eeeeee"
     borderopacity="1"
     inkscape:pageshadow="0"
     inkscape:pageopacity="0"
     inkscape:pagecheckerboard="0"
     inkscape:document-units="mm"
     showgrid="false"
     inkscape:zoom="7.1400439"
     inkscape:cx="74.999539"
     inkscape:cy="6.4425374"
     inkscape:window-width="1916"
     inkscape:window-height="1061"
     inkscape:window-x="0"
     inkscape:window-y="15"
     inkscape:window-maximized="1"
     inkscape:current-layer="layer1" />
  <defs
     id="defs2" />
  <g
     inkscape:label="Layer 1"
     inkscape:groupmode="layer"
     id="layer1"
     transform="translate(-25.644396,-59.204735)">
    <g
       aria-label="Contribute"
       id="text5798"
       style="font-size:10.5833px;line-height:1.25;font-family:Z003;-inkscape-font-specification:Z003;stroke-width:0.264583">
      <path
         d="m 30.311632,65.702881 c -0.973664,0.666748 -1.693328,0.941914 -2.434159,0.941914 -0.836081,0 -1.365246,-0.634998 -1.365246,-1.640412 0,-2.201326 1.555745,-4.392069 3.122073,-4.392069 0.634998,0 0.952497,0.391582 1.015997,1.227663 l 0.783164,-0.666748 c -0.04233,-0.338666 -0.105833,-0.507999 -0.232832,-0.666748 -0.201083,-0.243416 -0.582082,-0.391582 -1.005414,-0.391582 -0.920747,0 -1.98966,0.539748 -2.92099,1.471078 -1.02658,1.026581 -1.629829,2.434159 -1.629829,3.809988 0,1.09008 0.603249,1.746245 1.608662,1.746245 0.920747,0 2.063743,-0.423332 2.984491,-1.12183 z"
         style="fill:#542538"
         id="path5178" />
      <path
         d="m 33.814678,62.019893 c -0.423332,0 -1.100663,0.306915 -1.725078,0.772581 -0.677331,0.507998 -1.15358,1.608661 -1.15358,2.666991 0,0.634998 0.359832,1.047747 0.920747,1.047747 0.296333,0 0.603248,-0.105833 1.079497,-0.359832 0.529165,-0.296333 0.878414,-0.560915 1.068913,-0.804331 0.423332,-0.582082 0.761998,-1.619245 0.761998,-2.349493 0,-0.571498 -0.391582,-0.973663 -0.952497,-0.973663 z m -0.550332,0.497415 c 0.423332,0 0.687915,0.402165 0.687915,1.047747 0,0.455081 -0.148167,0.99483 -0.402166,1.513411 -0.306916,0.603248 -0.687914,0.931331 -1.09008,0.931331 -0.433915,0 -0.709081,-0.391582 -0.709081,-0.99483 0,-1.227663 0.772581,-2.497659 1.513412,-2.497659 z"
         style="fill:#542538"
         id="path5180" />
      <path
         d="m 35.98425,66.168546 0.624414,-2.487075 0.264583,-0.169333 c 0.984247,-0.613831 1.100663,-0.677331 1.248829,-0.677331 0.0635,0 0.105833,0.05292 0.105833,0.137583 0,0.169333 -0.07408,0.476248 -0.391582,1.767411 -0.232832,0.93133 -0.275166,1.12183 -0.275166,1.322912 0,0.148166 0.04233,0.275166 0.15875,0.476249 0.476248,-0.211666 1.217079,-0.677331 1.95791,-1.227663 l 0.07408,-0.296332 c -1.02658,0.592664 -1.100663,0.624414 -1.206496,0.624414 -0.105833,0 -0.169333,-0.105833 -0.169333,-0.285749 0,-0.285749 0.04233,-0.465665 0.507999,-2.14841 0.264582,-0.941913 0.264582,-0.941913 0.264582,-1.005413 0,-0.116416 -0.07408,-0.179916 -0.201082,-0.179916 -0.232833,0 -0.264583,0.02117 -1.407579,0.719664 -0.423332,0.264583 -0.698498,0.433915 -0.825498,0.518582 0.105833,-0.370416 0.254,-1.015997 0.254,-1.100663 0,-0.08467 -0.05292,-0.137583 -0.137583,-0.137583 -0.116417,0 -0.836081,0.370415 -1.661578,0.857247 l -0.0635,0.275166 c 0.677331,-0.306916 0.719664,-0.317499 0.814914,-0.317499 0.07408,0 0.127,0.0635 0.127,0.148166 0,0.232833 -0.1905,1.079497 -0.465666,2.063743 l -0.243416,0.857248 c -0.02117,0.07408 -0.07408,0.275166 -0.148166,0.571498 z"
         style="fill:#542538"
         id="path5182" />
      <path
         d="m 42.958635,65.036133 c -0.80433,0.486832 -1.142996,0.656165 -1.291162,0.656165 -0.137583,0 -0.306916,-0.264583 -0.306916,-0.497415 0,-0.148167 0.01058,-0.179916 0.243416,-1.18533 0.05292,-0.190499 0.09525,-0.391582 0.137583,-0.592665 0.01058,-0.03175 0.05292,-0.201082 0.07408,-0.296332 0.359832,-0.01058 0.687914,-0.03175 1.047747,-0.05292 l 0.402165,-0.306915 h -1.354662 c 0.05292,-0.243416 0.07408,-0.317499 0.105833,-0.476249 0.03175,-0.105833 0.105833,-0.391582 0.253999,-0.96308 l 0.0635,-0.275166 -0.179916,0.09525 c -0.0635,0.02117 -0.148167,0.0635 -0.264583,0.116416 -0.07408,0.04233 -0.158749,0.07408 -0.243416,0.116416 -0.04233,0.02117 -0.08467,0.04233 -0.148166,0.0635 l -0.09525,0.433916 -0.116416,0.507998 -0.08467,0.380999 c -0.09525,0.01058 -0.15875,0.01058 -0.1905,0.01058 h -0.253999 c -0.02117,0 -0.07408,0 -0.158749,0.01058 -0.05292,0.03175 -0.09525,0.0635 -0.105833,0.0635 -0.03175,0.02117 -0.09525,0.07408 -0.201083,0.15875 -0.02117,0.01058 -0.07408,0.0635 -0.15875,0.116416 h 0.254 0.486831 0.232833 l -0.105833,0.465665 c -0.455082,1.873244 -0.455082,1.873244 -0.455082,2.21191 0,0.338665 0.222249,0.709081 0.423332,0.709081 0.232833,0 0.952497,-0.433915 1.968494,-1.206496 z"
         style="fill:#542538"
         id="path5184" />
      <path
         d="m 43.593614,66.475462 0.814914,-0.306916 0.793748,-3.01624 c 0.359832,-0.275166 0.603248,-0.370416 0.888997,-0.370416 0.232832,0 0.370415,0.08467 0.560915,0.328083 l 0.317499,-1.005414 c -0.1905,-0.0635 -0.285749,-0.08467 -0.391582,-0.08467 -0.201083,0 -0.412749,0.09525 -0.698498,0.296332 -0.137583,0.105833 -0.275166,0.211666 -0.423332,0.306916 -0.0635,0.05292 -0.137583,0.105833 -0.201083,0.148166 l 0.127,-0.634998 c 0,-0.0635 -0.0635,-0.116416 -0.137583,-0.116416 -0.137583,0 -1.068913,0.455082 -1.714495,0.83608 l -0.03175,0.28575 c 0.613832,-0.296333 0.624415,-0.306916 0.761998,-0.306916 0.137583,0 0.201083,0.07408 0.201083,0.222249 0,0.148166 -0.105833,0.634998 -0.232833,1.100663 z"
         style="fill:#542538"
         id="path5186" />
      <path
         d="m 48.906413,59.850316 c -0.296333,0.232833 -0.539749,0.423332 -0.730248,0.550332 0.07408,0.222249 0.169333,0.402165 0.402165,0.740831 0.296333,-0.264583 0.328083,-0.296333 0.687915,-0.571498 -0.03175,-0.0635 -0.05292,-0.105833 -0.137583,-0.243416 -0.0635,-0.127 -0.07408,-0.127 -0.15875,-0.338666 z m 0.402165,5.29165 -0.179916,0.09525 c -0.730248,0.402165 -0.857247,0.455082 -0.984247,0.455082 -0.116416,0 -0.190499,-0.116417 -0.190499,-0.296333 0,-0.179916 0,-0.179916 0.349249,-1.576911 0.391582,-1.608662 0.391582,-1.608662 0.391582,-1.693328 0,-0.0635 -0.05292,-0.105833 -0.127,-0.105833 -0.179916,0 -0.804331,0.349249 -1.672161,0.93133 l -0.02117,0.296333 C 47.52,62.898307 47.55175,62.887723 47.647,62.887723 c 0.08467,0 0.127,0.0635 0.127,0.179916 0,0.148167 -0.03175,0.296333 -0.1905,0.899581 -0.497415,1.841494 -0.497415,1.841494 -0.497415,2.11666 0,0.253999 0.09525,0.423332 0.253999,0.423332 0.179916,0 0.465665,-0.137583 1.02658,-0.497415 0.201083,-0.127 0.402166,-0.253999 0.603248,-0.391582 0.09525,-0.05292 0.169333,-0.105833 0.296333,-0.179916 z"
         style="fill:#542538"
         id="path5188" />
      <path
         d="m 49.583741,66.549545 0.338666,-0.285749 c 0.296332,0.116416 0.518582,0.158749 0.719664,0.158749 0.275166,0 0.338666,-0.03175 0.994831,-0.444498 0.476248,-0.264583 0.476248,-0.264583 0.539748,-0.306916 0.285749,-0.179916 0.486832,-0.402165 0.645581,-0.687914 0.338666,-0.613832 0.592665,-1.534579 0.592665,-2.158993 0,-0.486832 -0.243416,-0.804331 -0.624415,-0.804331 -0.359832,0 -0.645581,0.158749 -1.703911,0.910164 0.08467,-0.370416 0.08467,-0.370416 0.201083,-0.899581 0.211666,-1.047747 0.232832,-1.111246 0.444498,-1.587495 0.201083,-0.455082 0.402166,-0.592665 0.888997,-0.592665 h 0.433916 l 0.433915,-0.613831 c -0.211666,-0.02117 -0.349249,-0.03175 -0.465665,-0.03175 -0.391582,0 -0.582082,0.105833 -1.471079,0.846664 -0.719664,0.582082 -0.719664,0.582082 -1.09008,2.222493 -0.201082,0.878414 -0.391582,1.693328 -0.603248,2.624658 -0.190499,0.836081 -0.211666,0.931331 -0.380999,1.608662 z m 1.396996,-3.185573 c 0.603248,-0.444499 0.973664,-0.634998 1.217079,-0.634998 0.211666,0 0.349249,0.190499 0.349249,0.518582 0,0.423331 -0.126999,1.058329 -0.306915,1.513411 -0.285749,0.709081 -0.656165,1.05833 -1.12183,1.05833 -0.211666,0 -0.412749,-0.05292 -0.698498,-0.201082 z"
         style="fill:#542538"
         id="path5190" />
      <path
         d="m 56.494617,64.972633 c -0.80433,0.550332 -1.174746,0.772581 -1.312329,0.772581 -0.116416,0 -0.201082,-0.148166 -0.201082,-0.349249 0,-0.243416 0.08467,-0.666748 0.264582,-1.344079 0.105833,-0.402165 0.211666,-0.80433 0.222249,-0.86783 0.09525,-0.402166 0.169333,-0.666748 0.1905,-0.740831 0.03175,-0.116417 0.05292,-0.22225 0.05292,-0.285749 0,-0.08467 -0.05292,-0.137583 -0.126999,-0.137583 -0.105833,0 -0.867831,0.412748 -1.640412,0.888997 l -0.07408,0.285749 c 0.455082,-0.232833 0.645581,-0.306916 0.772581,-0.306916 0.08467,0 0.148166,0.07408 0.148166,0.201083 0,0.148166 -0.09525,0.560915 -0.296332,1.312329 -0.264583,0.99483 -0.328082,1.280579 -0.328082,1.587495 0,0.296333 0.126999,0.518582 0.296332,0.518582 0.158749,0 0.338666,-0.09525 0.878414,-0.444499 0.825497,-0.529165 0.825497,-0.529165 1.09008,-0.709081 -0.09525,0.359832 -0.148167,0.719665 -0.148167,0.910164 0,0.148166 0.07408,0.243416 0.1905,0.243416 0.211666,0 1.206496,-0.582082 1.936744,-1.132413 l 0.07408,-0.317499 c -0.751414,0.444498 -1.100663,0.634998 -1.21708,0.634998 -0.07408,0 -0.116416,-0.07408 -0.116416,-0.253999 0,-0.539749 0.380999,-2.106077 0.846664,-3.460739 -0.137583,0.07408 -0.232833,0.126999 -0.275166,0.148166 -0.126999,0.0635 -0.253999,0.126999 -0.391582,0.179916 -0.03175,0.02117 -0.09525,0.05292 -0.211666,0.116416 -0.07408,0.264583 -0.243416,0.973664 -0.518582,2.127243 z"
         style="fill:#542538"
         id="path5192" />
      <path
         d="m 61.712175,65.036133 c -0.80433,0.486832 -1.142996,0.656165 -1.291162,0.656165 -0.137583,0 -0.306916,-0.264583 -0.306916,-0.497415 0,-0.148167 0.01058,-0.179916 0.243416,-1.18533 0.05292,-0.190499 0.09525,-0.391582 0.137583,-0.592665 0.01058,-0.03175 0.05292,-0.201082 0.07408,-0.296332 0.359832,-0.01058 0.687915,-0.03175 1.047747,-0.05292 l 0.402165,-0.306915 h -1.354662 c 0.05292,-0.243416 0.07408,-0.317499 0.105833,-0.476249 0.03175,-0.105833 0.105833,-0.391582 0.253999,-0.96308 l 0.0635,-0.275166 -0.179916,0.09525 c -0.0635,0.02117 -0.148167,0.0635 -0.264583,0.116416 -0.07408,0.04233 -0.158749,0.07408 -0.243416,0.116416 -0.04233,0.02117 -0.08467,0.04233 -0.148166,0.0635 l -0.09525,0.433916 -0.116416,0.507998 -0.08467,0.380999 c -0.09525,0.01058 -0.15875,0.01058 -0.1905,0.01058 h -0.253999 c -0.02117,0 -0.07408,0 -0.158749,0.01058 -0.05292,0.03175 -0.09525,0.0635 -0.105833,0.0635 -0.03175,0.02117 -0.09525,0.07408 -0.201083,0.15875 -0.02117,0.01058 -0.07408,0.0635 -0.15875,0.116416 h 0.254 0.486831 0.232833 l -0.105833,0.465665 c -0.455082,1.873244 -0.455082,1.873244 -0.455082,2.21191 0,0.338665 0.222249,0.709081 0.423332,0.709081 0.232833,0 0.952497,-0.433915 1.968494,-1.206496 z"
         style="fill:#542538"
         id="path5194" />
      <path
         d="m 65.331651,64.919717 c -0.846664,0.719664 -1.301745,0.984247 -1.703911,0.984247 -0.275166,0 -0.486832,-0.179916 -0.560915,-0.455082 -0.04233,-0.169333 -0.05292,-0.285749 -0.05292,-0.592665 0.486832,-0.306916 0.783164,-0.518582 1.407579,-0.984247 0.582081,-0.433915 0.793747,-0.783164 0.793747,-1.259412 0,-0.370416 -0.222249,-0.592665 -0.603248,-0.592665 -0.232833,0 -0.391582,0.05292 -0.645581,0.190499 -0.402166,0.232833 -0.761998,0.518582 -0.973664,0.772581 -0.402165,0.486832 -0.761997,1.650995 -0.761997,2.508242 0,0.624415 0.328082,1.015997 0.86783,1.015997 0.624415,0 1.428746,-0.465665 2.222493,-1.280579 z m -2.285992,-0.444499 c 0.179916,-1.142996 0.656164,-2.010827 1.121829,-2.010827 0.169333,0 0.28575,0.169333 0.28575,0.433916 0,0.529165 -0.306916,0.86783 -1.407579,1.576911 z"
         style="fill:#542538"
         id="path5196" />
    </g>
  </g>
</svg>
