<?xml version="1.0" encoding="UTF-8" standalone="no"?>
<!-- Created with Inkscape (http://www.inkscape.org/) -->

<svg
   width="26.606348mm"
   height="7.3024769mm"
   viewBox="0 0 26.606348 7.3024769"
   version="1.1"
   id="svg5"
   inkscape:version="1.1 (c4e8f9ed74, 2021-05-24)"
   sodipodi:docname="decode.svg"
   xmlns:inkscape="http://www.inkscape.org/namespaces/inkscape"
   xmlns:sodipodi="http://sodipodi.sourceforge.net/DTD/sodipodi-0.dtd"
   xmlns="http://www.w3.org/2000/svg"
   xmlns:svg="http://www.w3.org/2000/svg">
  <sodipodi:namedview
     id="namedview7"
     pagecolor="#505050"
     bordercolor="#eeeeee"
     borderopacity="1"
     inkscape:pageshadow="0"
     inkscape:pageopacity="0"
     inkscape:pagecheckerboard="0"
     inkscape:document-units="mm"
     showgrid="false"
     inkscape:zoom="10.650419"
     inkscape:cx="50.279713"
     inkscape:cy="15.774028"
     inkscape:window-width="1916"
     inkscape:window-height="1061"
     inkscape:window-x="0"
     inkscape:window-y="15"
     inkscape:window-maximized="1"
     inkscape:current-layer="layer1" />
  <defs
     id="defs2" />
  <g
     inkscape:label="Layer 1"
     inkscape:groupmode="layer"
     id="layer1"
     transform="translate(-25.62323,-59.204735)">
    <g
       aria-label="Decode"
       id="text5798"
       style="font-size:10.5833px;line-height:1.25;font-family:Z003;-inkscape-font-specification:Z003;stroke-width:0.264583">
      <path
         d="m 25.62323,66.369629 h 1.344079 c 1.735661,0 2.169576,-0.03175 2.730491,-0.232833 0.846664,-0.285749 1.714495,-0.83608 2.127243,-1.344079 0.539749,-0.666748 0.920748,-1.777994 0.920748,-2.677575 0,-0.730247 -0.380999,-1.280579 -1.100664,-1.598078 -0.455082,-0.201082 -0.99483,-0.285749 -2.02141,-0.349249 l 0.07408,-0.296332 -0.761997,0.317499 c -0.867831,0.148166 -1.418162,0.338666 -1.979077,0.698498 -0.899581,0.582081 -1.333496,1.291162 -1.333496,2.201326 0,0.201083 0.01058,0.328082 0.07408,0.592665 l 0.867831,-0.391582 c -0.0635,-0.275166 -0.07408,-0.391582 -0.07408,-0.592665 0,-1.259413 0.783165,-2.000244 2.264827,-2.14841 l -0.793748,3.153823 c -0.412749,1.767411 -0.687914,2.095494 -1.830911,2.18016 z m 3.915821,-5.873731 c 0.783164,0.03175 1.132413,0.09525 1.460495,0.264582 0.518582,0.275166 0.825497,0.857247 0.825497,1.566328 0,0.920748 -0.349248,2.042577 -0.825497,2.645825 -0.518582,0.666748 -1.142996,0.920747 -2.233076,0.920747 h -0.15875 l -1.354662,-0.04233 c 1.227663,-1.142996 1.227663,-1.142996 1.703911,-3.058573 z"
         style="fill:#c30b38"
         id="path5134" />
      <path
         d="m 36.143018,64.919717 c -0.846664,0.719664 -1.301746,0.984247 -1.703912,0.984247 -0.275166,0 -0.486832,-0.179916 -0.560915,-0.455082 -0.04233,-0.169333 -0.05292,-0.285749 -0.05292,-0.592665 0.486832,-0.306916 0.783164,-0.518582 1.407579,-0.984247 0.582081,-0.433915 0.793747,-0.783164 0.793747,-1.259412 0,-0.370416 -0.222249,-0.592665 -0.603248,-0.592665 -0.232832,0 -0.391582,0.05292 -0.645581,0.190499 -0.402166,0.232833 -0.761998,0.518582 -0.973664,0.772581 -0.402165,0.486832 -0.761997,1.650995 -0.761997,2.508242 0,0.624415 0.328082,1.015997 0.86783,1.015997 0.624415,0 1.428746,-0.465665 2.222493,-1.280579 z m -2.285993,-0.444499 c 0.179916,-1.142996 0.656164,-2.010827 1.12183,-2.010827 0.169332,0 0.285749,0.169333 0.285749,0.433916 0,0.529165 -0.306916,0.86783 -1.407579,1.576911 z"
         style="fill:#c30b38"
         id="path5136" />
      <path
         d="m 39.773071,65.02555 c -0.804331,0.582081 -1.375829,0.878414 -1.714494,0.878414 -0.380999,0 -0.603248,-0.296333 -0.603248,-0.804331 0,-0.518582 0.126999,-1.18533 0.328082,-1.682745 0.222249,-0.560915 0.486832,-0.846664 0.793747,-0.846664 0.254,0 0.391582,0.201083 0.444499,0.666748 l 0.613831,-0.359832 c 0.01058,-0.05292 0.01058,-0.105833 0.01058,-0.127 0,-0.455081 -0.232833,-0.730247 -0.603248,-0.730247 -0.201083,0 -0.296333,0.04233 -0.687915,0.296332 -0.793747,0.497415 -0.96308,0.656165 -1.195913,1.09008 -0.296332,0.571498 -0.518581,1.471079 -0.518581,2.127243 0,0.624415 0.275165,0.973664 0.77258,0.973664 0.507999,0 1.354663,-0.412749 2.33891,-1.142997 z"
         style="fill:#c30b38"
         id="path5138" />
      <path
         d="m 43.117375,62.019893 c -0.423332,0 -1.100663,0.306915 -1.725078,0.772581 -0.677331,0.507998 -1.15358,1.608661 -1.15358,2.666991 0,0.634998 0.359833,1.047747 0.920747,1.047747 0.296333,0 0.603248,-0.105833 1.079497,-0.359832 0.529165,-0.296333 0.878414,-0.560915 1.068913,-0.804331 0.423332,-0.582082 0.761998,-1.619245 0.761998,-2.349493 0,-0.571498 -0.391582,-0.973663 -0.952497,-0.973663 z m -0.550332,0.497415 c 0.423332,0 0.687915,0.402165 0.687915,1.047747 0,0.455081 -0.148166,0.99483 -0.402166,1.513411 -0.306915,0.603248 -0.687914,0.931331 -1.09008,0.931331 -0.433915,0 -0.709081,-0.391582 -0.709081,-0.99483 0,-1.227663 0.772581,-2.497659 1.513412,-2.497659 z"
         style="fill:#c30b38"
         id="path5140" />
      <path
         d="m 48.811187,64.983217 -0.296333,0.190499 c -0.264582,0.179916 -0.444498,0.306916 -0.497415,0.338666 -0.222249,0.137583 -0.423332,0.232832 -0.476248,0.232832 -0.08467,0 -0.148167,-0.116416 -0.148167,-0.275166 0,-0.349248 0.878414,-4.180403 1.111247,-4.836567 0.232833,-0.634998 0.465665,-0.878414 0.846664,-0.878414 0.148166,0 0.243416,0.02117 0.486832,0.08467 l 0.370415,-0.592665 c -0.158749,-0.03175 -0.232832,-0.04233 -0.338665,-0.04233 -0.254,0 -0.402166,0.04233 -0.634998,0.179916 -0.264583,0.148166 -0.624415,0.423332 -0.920747,0.698498 -0.518582,0.497415 -0.550332,0.571498 -0.825498,1.661578 -0.01058,0.04233 -0.04233,0.190499 -0.08467,0.338666 -0.1905,-0.04233 -0.338666,-0.0635 -0.433916,-0.0635 -0.328082,0 -1.238246,0.571498 -1.661578,1.037163 -0.359832,0.412749 -0.83608,1.904994 -0.83608,2.635242 0,0.402165 0.211666,0.814914 0.402165,0.814914 0.201083,0 0.687915,-0.296333 1.777994,-1.09008 -0.05292,0.285749 -0.08467,0.560915 -0.08467,0.761998 0,0.211666 0.07408,0.328082 0.232833,0.328082 0.169332,0 1.09008,-0.560915 1.968493,-1.195913 z m -2.074327,0.04233 c -0.899581,0.634998 -1.132413,0.772581 -1.280579,0.772581 -0.148167,0 -0.22225,-0.148166 -0.22225,-0.465665 0,-0.349249 0.0635,-0.740831 0.1905,-1.21708 0.296332,-1.068913 0.719664,-1.598078 1.259412,-1.598078 0.201083,0 0.338666,0.07408 0.550332,0.285749 z"
         style="fill:#c30b38"
         id="path5142" />
      <path
         d="m 52.229578,64.919717 c -0.846664,0.719664 -1.301746,0.984247 -1.703911,0.984247 -0.275166,0 -0.486832,-0.179916 -0.560915,-0.455082 -0.04233,-0.169333 -0.05292,-0.285749 -0.05292,-0.592665 0.486832,-0.306916 0.783164,-0.518582 1.407579,-0.984247 0.582081,-0.433915 0.793747,-0.783164 0.793747,-1.259412 0,-0.370416 -0.222249,-0.592665 -0.603248,-0.592665 -0.232832,0 -0.391582,0.05292 -0.645581,0.190499 -0.402165,0.232833 -0.761997,0.518582 -0.973663,0.772581 -0.402166,0.486832 -0.761998,1.650995 -0.761998,2.508242 0,0.624415 0.328082,1.015997 0.867831,1.015997 0.624414,0 1.428745,-0.465665 2.222492,-1.280579 z m -2.285993,-0.444499 c 0.179916,-1.142996 0.656165,-2.010827 1.12183,-2.010827 0.169333,0 0.285749,0.169333 0.285749,0.433916 0,0.529165 -0.306916,0.86783 -1.407579,1.576911 z"
         style="fill:#c30b38"
         id="path5144" />
    </g>
    <text
       xml:space="preserve"
       style="font-size:10.5833px;line-height:1.25;font-family:Z003;-inkscape-font-specification:Z003;stroke-width:0.264583"
       x="45.117657"
       y="53.995991"
       id="text25988"><tspan
         sodipodi:role="line"
         id="tspan25986"
         style="stroke-width:0.264583"
         x="45.117657"
         y="53.995991" /></text>
  </g>
</svg>
